<?xml version="1.0" encoding="UTF-8"?>
<svg id="a" xmlns="http://www.w3.org/2000/svg" viewBox="0 0 215 248">
    <path
        d="M215,16c-1.2,5.3-2.2,10.7-3.8,15.8-11.7,38.9-37.1,64.1-76.2,75.2-3.8,1.1-6.1,2.6-6.8,6.6-1.3,7.7-2.8,15.4-4.4,23-.6,2.8.2,4.5,2.5,6.2,6.8,5,10.3,12,11.4,20.3.7,5.2-.5,6.5-5.9,6.6-2.5,0-4.9,0-7.9,0,2.6,19,9.5,35.3,22.4,49,8.5,9.1,18.8,15.8,30,21.2,5.3,2.5,5.4,4.6.8,8H38c-4-4.1-3.7-5.6,1.7-8.1,27.1-12.7,44.6-33.1,50.9-62.6.5-2.3.8-4.6,1.2-7.4-3.1,0-5.9-.1-8.7,0-3.9.2-5.4-1.7-5.1-5.5.6-8.6,4.1-15.8,10.9-21.1,2.9-2.2,3.6-4.4,2.9-7.6-1.6-7.5-3.2-15-4.6-22.5-.7-3.6-2.6-5-6.1-6C38.6,95,12.4,67.2,2.5,24.1,1.3,18.8.8,13.4,0,8V0h215v16ZM7.5,7.1c.9,55.8,52.7,102,107.9,96.7,29.9-2.9,54.3-15.9,72.6-39.8,12.7-16.7,19.5-35.5,20.2-56.8H7.5ZM162.3,240.7c-2.6-1.8-4-2.8-5.5-3.8-23.6-16.4-36.4-39.1-39.8-67.4-.7-5.8,0-6.4,5.7-6.5,2.6,0,5.1,0,8,0-1.4-7.3-4.7-12.6-10.4-15.9-3.3-1.9-4.2-4.2-3.6-7.8,1.6-9.3,3-18.7,4.6-28.2h-27.2c.3,1.3.5,2.4.7,3.5,1.4,8.3,2.9,16.7,4.3,25,.6,3.3-.3,5.5-3.5,7.3-5.9,3.4-9.3,8.8-10.5,16,2.8,0,5.3,0,7.8,0,5.8,0,6.8,1,6,6.8-3.8,28.8-17.1,51.8-41.4,68.1-1,.6-1.8,1.5-3.4,2.8h108.3Z"
        style="stroke-width:0px;"/>
    <path d="M52.1,71.9c5.5,4.4,11.6,8.1,18,11.1" style="stroke:#000; stroke-miterlimit:10; stroke-width:7px;"/>
    <path d="M18.8,14.6c1.8,12.5,7.1,25,13.9,35.6s7.7,10.7,12.3,15.4" style="stroke:#000; stroke-miterlimit:10; stroke-width:7px;"/>
    <path
        d="M107.4,51.8c-.2.3-.4.5-.6.8-2.7,4-5.4,8-8.1,12-2.5,3.7-5,7.4-7.6,11.1,0,.1-.2.2-.4.2-3.6,0-7.1,0-10.7-.1,0,0,0,0-.2,0,0,0,0-.1.1-.2,2.5-3.9,5-7.7,7.5-11.6,2.2-3.4,4.4-6.8,6.6-10.2,2.4-3.8,4.9-7.6,7.3-11.4.4-.6.7-1.1,1.1-1.7,0-.2.1-.3,0-.5-.7-2.1-1.3-4.2-2-6.3-.3-.9-.6-1.8-.9-2.7,0-.3-.2-.4-.5-.4-2.2,0-4.5,0-6.7,0s-.4,0-.4-.4c0-2.7,0-5.5,0-8.2,0-.3.1-.4.4-.4,4.5,0,9,0,13.5,0,.2,0,.4.1.5.3,2.4,6,4.7,11.9,7.1,17.9,2.8,6.9,5.5,13.9,8.3,20.8.9,2.2,1.7,4.3,2.6,6.5.1.3.2.3.5.2,2.4-.7,4.7-1.4,7.1-2.2.3,0,.4,0,.5.3.8,2.5,1.6,5,2.4,7.6,0,0,0,.2,0,.3-.2,0-.3.1-.5.2-5.4,1.7-10.7,3.4-16.1,5.1-.3,0-.3,0-.4-.2-1.6-4.1-3.3-8.3-4.9-12.4-1.6-4.1-3.2-8.1-4.8-12.2-.2-.6-.5-1.2-.7-1.8,0-.1,0-.2-.2-.4h0Z"
        style="stroke-width:0px;"/>
</svg>