<?xml version="1.0" encoding="UTF-8"?>
<svg id="a" xmlns="http://www.w3.org/2000/svg" viewBox="0 0 990 1360">
    <g id="b">
        <path id="c" d="M495,151.9c-260.8,0-472.3,67-472.3,149.6h0c0,4,.5,8,1.5,12l118.7,924.4c0-61.6,157.5-111.5,351.9-111.5h.1c194.4,0,352,49.9,352,111.5h0s118.7-924.3,118.7-924.3c1-4,1.5-8,1.5-12,0-82.6-211.4-149.6-472.3-149.6h0Z" style="fill:#bbb; isolation:isolate; opacity:.2; stroke-width:0px;"/>
        <path id="d" d="M847,1225.8c0-39.8-67.1-76.6-176-96.6-108.9-19.9-243.1-19.9-352,0-108.9,19.9-176,56.7-176,96.6" style="fill:none; stroke:#000; stroke-linejoin:round; stroke-width:45.4px;"/>
        <path id="e" d="M967.3,301.5c0-53.4-90-102.8-236.1-129.5s-326.1-26.7-472.3,0S22.7,248.1,22.7,301.5" style="fill:none; stroke:#000; stroke-linejoin:round; stroke-width:45.4px;"/>
        <path id="f" d="M532.5,1012.7v26.7" style="fill:none; stroke:#000; stroke-linecap:round; stroke-miterlimit:121.2; stroke-width:16.7px;"/>
        <ellipse id="g" cx="495" cy="480.2" rx="447.8" ry="141.8" style="fill:#a8a8a8; stroke-width:0px;"/>
        <path id="h" d="M420.1,484.4L799.9,23.5s52.3,52,81.1,129.9c28.9,77.9,34,185.7-56.7,292.1-90.6,106.2-194.1,117.5-271.9,100.3-77.8-17.2-132.2-61.4-132.2-61.4h0Z" style="stroke:#000; stroke-linecap:round; stroke-linejoin:round; stroke-width:47px;"/>
        <g id="i">
            <path id="j" d="M791.2,58.7s195.3,172.1,21,376.6c-174.3,204.5-360.3,35.3-360.3,35.3L791.2,58.7Z" style="fill:#eaeaea; stroke-width:0px;"/>
            <path id="k" d="M430,472.1L789.4,36l12.2,10.8s51.6,45.2,80.2,117.7c28.6,72.5,32.9,174.9-57.6,281-90.4,106-188.7,117.3-261.4,99.5-72.7-17.8-121.7-62.7-121.7-62.7l-11.2-10.2ZM474.7,467.7c13.5,10.8,44.8,34,95.6,46.5,63.9,15.7,145.8,9.3,229.8-89.2,83.9-98.4,77.7-184.3,52.2-248.9-20.1-50.9-47.4-80.3-60.5-93.4l-317.1,385.1Z" style="fill:#eaeaea; stroke-width:0px;"/>
        </g>
        <path id="l" d="M659.1,271.6l138.7,115.4c43.2-52.7,52.5-99.7,38.7-154l-177.4,38.6Z" style="fill:#d9d9d9; stroke-width:0px;"/>
        <path id="m" d="M636,301.6l-12.8,184.2c66.6,3.2,109.2-17.9,144.5-62.4l-131.7-121.9Z" style="fill:#d9d9d9; stroke-width:0px;"/>
        <path id="n" d="M474.3,443.3l123.2-140-11,183.2c-44.2,1.3-112.3-43.2-112.3-43.2h0Z" style="fill:#d9d9d9; stroke-width:0px;"/>
        <path id="o" d="M767.1,87.9c33.3,22.7,54.3,55.9,64.1,108.4l-178.5,39.2s75-99.8,114.4-147.6Z" style="fill:#d9d9d9; stroke-width:0px;"/>
        <path id="p" d="M420.1,484.4l19.9-24.6s49.5,39.6,119.2,55.1,157.2,8.3,240.9-89.9c83.7-98.1,77.3-190,51.2-260.6-26.1-70.6-72.1-116.6-72.1-116.6l20.6-24.3s52.3,52,81.1,129.9c28.9,77.9,34,185.7-56.7,292.1-90.6,106.2-194.1,117.5-271.9,100.3-77.8-17.2-132.2-61.4-132.2-61.4h0Z" style="fill:#c2c2c2; stroke-width:0px;"/>
        <path id="q" d="M942.8,480.2c0,50.7-85.3,97.5-223.9,122.8-138.5,25.3-309.2,25.3-447.8,0s-223.9-72.2-223.9-122.8h349.8l418.4,27.3s57.1-27.3,127.3-27.3h0Z" style="fill:#a8a8a8; isolation:isolate; opacity:.7; stroke-width:0px;"/>
        <path id="r" d="M967.3,301.4c-19.6,77.7-225.2,137.7-472.3,137.7-247,0-452.5-59.9-472.3-137.6l119.1,924.3c0,61.6,158.2,111.5,353.2,111.5,195,0,353.2-49.9,353.2-111.5l119.1-924.4Z" style="fill:#bbb; isolation:isolate; opacity:.2; stroke-width:0px;"/>
        <path id="s" d="M967.3,301.5c0,53.4-90,102.8-236.1,129.5s-326.1,26.7-472.3,0S22.7,354.9,22.7,301.5" style="fill:none; stroke:#000; stroke-linejoin:round; stroke-width:45.4px;"/>
        <path id="t" d="M48.7,491.3l94.3,734.5c0,61.6,157.6,111.5,352,111.5,194.4,0,352-49.9,352-111.5l94.3-734.4c-18.4,73.8-212.8,130.6-446.4,130.6-233.7,0-428-56.9-446.4-130.7h0Z" style="fill:#bbb; stroke-width:0px;"/>
        <path id="u" d="M847,1225.8c0,39.8-67.1,76.6-176,96.6-108.9,19.9-243.1,19.9-352,0-108.9-19.9-176-56.7-176-96.6" style="fill:none; stroke:#000; stroke-linejoin:round; stroke-width:45.4px;"/>
        <g id="v">
            <g id="w">
                <path id="x" d="M502.7,1067.9c2.4,13.9,1.5,39.7,8.7,51.6,3.5,5.7,12,6.5,17.6,7.1,32,3.1,33.6-29.8,40.2-58" style="fill:#ededed; fill-rule:evenodd; stroke-width:0px;"/>
                <path id="y"
                      d="M503.4,1059.4h.5s.5.1.5.1h.5c0,.1.5.2.5.2l.4.2.4.2.4.2.4.2.4.2.4.3.4.3.4.3.3.3.3.3.3.4.3.4.3.4.2.4.2.4.2.4.2.4v.4c.1,0,.3.5.3.5v.5c0,0,.2.3.2.3v.4c0,0,.2.4.2.4v.4c0,0,.2.4.2.4v.4c0,0,.2.4.2.4v.4c0,0,.2.4.2.4v.4c0,0,.2.8.2.8v.8c0,0,.2.8.2.8v.8c0,0,.2.8.2.8v.8c0,0,.2.8.2.8v.8c0,0,.2.9.2.9v.9c0,0,.2.9.2.9v1.7c.1,0,.3,1.8.3,1.8v1.8c.1,0,.3,1.8.3,1.8v.9c0,0,.2.9.2.9v.9c0,0,.2.9.2.9v.9c0,0,.2.9.2.9v.9c0,0,.2.9.2.9v.9c0,0,.2.9.2.9v.9c0,0,.2.9.2.9v.9c.1,0,.2.4.2.4v.4c0,0,.2.4.2.4v.4c0,0,.2.4.2.4v.4c0,0,.2.4.2.4v.4c0,0,.2.4.2.4v.4c0,0,.2.4.2.4v.4c0,0,.2.4.2.4v.4c0,0,.2.4.2.4v.4c0,0,.2.4.2.4v.4c0,0,.2.4.2.4v.4c0,0,.2.4.2.4v.4c0,0,.2.4.2.4v.3c0,0,.2.3.2.3v.3c0,0,.2.3.2.3v.3c0,0,.2.3.2.3v.3c0,0,.2.3.2.3v.3c0,0,.2.3.2.3v.3c0,0,.2.3.2.3v.3c0,0,.2.3.2.3v.3c0,0,.2.3.2.3v.3c0,0,.2.2.2.2v.2c0,0,.2.3.2.3v.2c.1,0,.2.2.2.2v.2c.1,0,.2.2.2.2v.2c.1,0,.2.2.2.2v.2c0,0,.2.2.2.2v.2c0,0,.2.2.2.2v.2c.1,0,.1,0,.1,0h0v.2h0v.2h0s0,0,0,0h0c0,0,0,0,0,0h0s0,0,0,0h0s0,0,0,0h0s0,0,0,0h0s0,0,0,0h0c0,0,0,0,0,0h0s0,0,0,0h0s0,0,0,0h0s0,0,0,0h0s0,0,0,0h0s0,0,0,0h0s0,0,0,0h0s0,0,0,0h.2c0,0,.2.1.2.1h.2c0,0,.2.1.2.1h.2c0,0,.2.1.2.1h.2c0,0,.2.1.2.1h.2c0,0,.2.1.2.1h.2c0,0,.2.1.2.1h.2c0,0,.2.1.2.1h.2c0,0,.2,0,.2,0h.2c0,0,.2,0,.2,0h.2s.2,0,.2,0h.2s.2,0,.2,0h.3s.3,0,.3,0h.3s.3,0,.3,0h.3s.2,0,.2,0h.5c0,0,.5.1.5.1h.5c0,0,.5.1.5.1h1c0,0,.3.1.3.1h.3s.3,0,.3,0h.3s.3,0,.3,0h.3s.3,0,.3,0h.3s.3,0,.3,0h.3s.3,0,.3,0h.8s.2,0,.2,0h.2s.2,0,.2,0h.2s.2,0,.2,0h.2s.2,0,.2,0h.2s.2,0,.2,0h.2s.2,0,.2,0h.2s.2,0,.2,0h.2s.2,0,.2,0h.2s.2,0,.2,0h.2s.2,0,.2,0h.2s.2,0,.2,0h.2c0,0,.2,0,.2,0h.2c0,0,.2-.1.2-.1h.2c0,0,.2-.1.2-.1h.2c0,0,.2-.1.2-.1h.2c0,0,.2-.1.2-.1h.2c0,0,.2-.1.2-.1h.2c0,0,.2-.1.2-.1h.2c0,0,.2-.1.2-.1h.2c0,0,.2-.1.2-.1h.2c0,0,.2-.2.2-.2h.1c0,0,.2-.2.2-.2h.1c0,0,.2-.2.2-.2h.2c0,0,.1-.2.1-.2h.1c0,0,.1-.2.1-.2h.1c0,0,.2-.2.2-.2h.1c0,0,.1-.2.1-.2h.1c0,0,.1-.2.1-.2h.1c0-.1.1-.2.1-.2h.1c0,0,.1-.2.1-.2h.1c0-.1.1-.2.1-.2h.1c0-.1.1-.2.1-.2h.1c0-.1.1-.2.1-.2h.1c0-.1.1-.2.1-.2h.1c0-.1.1-.2.1-.2h.1c0-.1.1-.2.1-.2h.1c0-.1.1-.3.1-.3h.1c0-.1.1-.3.1-.3h.1c0-.1.1-.3.1-.3v-.2c.1,0,.2-.1.2-.1v-.2c.1,0,.3-.2.3-.2h.1c0-.1.1-.3.1-.3v-.2c.1,0,.2-.2.2-.2v-.2c.1,0,.2-.2.2-.2v-.2c.1,0,.2-.2.2-.2v-.2c.1,0,.2-.2.2-.2v-.2c.1,0,.2-.2.2-.2v-.2c.1,0,.2-.2.2-.2v-.2c.1,0,.2-.2.2-.2v-.2c.1,0,.2-.2.2-.2v-.2c.1,0,.2-.2.2-.2v-.2c.1,0,.2-.2.2-.2v-.2c.1,0,.2-.2.2-.2v-.2c.1,0,.2-.2.2-.2v-.2c.1,0,.2-.2.2-.2v-.2c.1,0,.2-.2.2-.2v-.2c.1,0,.2-.2.2-.2v-.2c.1,0,.2-.2.2-.2v-.2c0,0,.2-.2.2-.2v-.2c0,0,.2-.2.2-.2v-.2c0,0,.2-.2.2-.2v-.2c0,0,.2-.2.2-.2v-.2c0,0,.2-.2.2-.2v-.2c0,0,.2-.2.2-.2v-.2c0,0,.3-.5.3-.5l.2-.5.2-.5.2-.5.2-.5.2-.5.2-.5.2-.5.2-.6.2-.6.2-.6.2-.6.2-.6.2-.6.2-.6.2-.6.2-.6.2-.6v-.6c.1,0,.3-.6.3-.6l.2-.6v-.6c.1,0,.3-.6.3-.6l.2-.6v-.6c.1,0,.3-.6.3-.6v-.6c.1,0,.3-.6.3-.6v-.6c.1,0,.4-1.3.4-1.3l.3-1.3.3-1.3.3-1.3.6-2.7.3-1.4.3-1.4.3-1.4.3-1.4.3-1.4.2-.7.2-.7.2-.7.2-.7.2-.7.2-.7v-.5c.1,0,.3-.4.3-.4l.2-.4.2-.4.2-.4.2-.4.3-.4.3-.4.3-.4.3-.3.3-.3.4-.3.4-.3.4-.3.4-.2.4-.2.4-.2.4-.2h.4c0-.1.4-.3.4-.3h.5c0,0,.5-.2.5-.2h.5s.5,0,.5,0h.9s.5,0,.5,0h.5c0,0,.5.2.5.2h.4c0,.1.4.3.4.3l.4.2.4.2.4.2.4.2.4.3.4.3.4.3.3.3.3.3.3.4.3.4.2.4.2.4.2.4.2.4.2.4v.4c.1,0,.2.5.2.5v.5c0,0,.2.5.2.5v1.9c0,0-.2.5-.2.5v.5c0,0-.2.7-.2.7l-.2.6v.6c-.1,0-.3.6-.3.6v.7c-.1,0-.3.6-.3.6l-.3,1.3-.3,1.3-.3,1.3-.3,1.3-.3,1.3-.6,2.7-.3,1.3-.3,1.4-.3,1.4-.3,1.4-.2.7v.7c-.1,0-.3.7-.3.7l-.2.7-.2.7-.2.7-.2.7-.2.7-.2.7-.2.7-.2.7-.2.7-.2.7-.2.7-.2.7-.2.7-.2.7-.2.7-.2.7-.2.7-.2.7-.2.7-.2.7-.2.7-.2.7-.2.6-.2.7-.2.6-.2.6v.3c-.1,0-.3.3-.3.3v.3c-.1,0-.3.3-.3.3v.3c-.1,0-.3.3-.3.3v.3c-.1,0-.3.3-.3.3v.3c-.1,0-.3.3-.3.3v.3c-.1,0-.3.3-.3.3v.3c-.1,0-.3.3-.3.3l-.2.3v.3c-.1,0-.3.3-.3.3l-.2.3v.3c-.1,0-.3.3-.3.3l-.2.3-.2.3-.2.3-.2.3-.2.3-.2.3-.2.3-.2.3-.2.3-.2.3-.2.3-.2.3-.2.3-.2.3-.2.3-.2.3-.2.3-.2.3-.2.3-.2.3-.2.3-.2.3-.2.3-.2.3-.2.3-.2.3-.2.3-.2.3-.2.3-.2.3-.2.3-.2.3-.2.3-.2.3-.2.3-.2.2-.2.2-.2.3-.3.2-.2.2-.2.2-.3.2-.3.2-.3.2-.3.2-.3.2-.3.2-.3.2-.3.2-.3.2-.3.2-.3.2-.3.2-.3.2-.3.2-.3.2-.3.2-.3.2-.3.2-.3.2-.3.2-.3.2-.3.2-.3.2-.3.2-.3.2-.3.2-.3.2-.3.2-.3.2-.3.2-.3.2h-.3c0,.1-.3.3-.3.3h-.4c0,.1-.3.3-.3.3h-.4c0,.1-.4.3-.4.3h-.4c0,.1-.4.2-.4.2h-.4c0,.1-.4.2-.4.2h-.4c0,.1-.4.2-.4.2h-.4c0,.1-.4.2-.4.2h-.4c0,0-.4.2-.4.2h-.4c0,0-.4.2-.4.2h-.4c0,0-.4.2-.4.2h-.4c0,0-.4.1-.4.1h-.4c0,0-.4.1-.4.1h-.4c0,0-.4.1-.4.1h-.4s-.4,0-.4,0h-.4s-.4,0-.4,0h-.4s-.4,0-.4,0h-.4s-.4,0-.4,0h-.4s-.4,0-.4,0h-.4s-.4,0-.4,0h-1.3s-.4,0-.4,0h-.4s-.4,0-.4,0h-.4s-.4,0-.4,0h-.4s-.4,0-.4,0h-.4s-.4,0-.4,0h-1.1c0-.1-.6-.2-.6-.2h-.6c0,0-.6-.1-.6-.1h-.7c0,0-.3-.1-.3-.1h-.3s-.4,0-.4,0h-.4c0,0-.4-.1-.4-.1h-.4c0,0-.4-.1-.4-.1h-.4c0,0-.4-.1-.4-.1h-.4c0,0-.4-.2-.4-.2h-.4c0,0-.4-.2-.4-.2h-.4c0,0-.4-.2-.4-.2h-.4c0,0-.4-.2-.4-.2h-.4c0-.1-.4-.2-.4-.2h-.4c0-.1-.4-.2-.4-.2h-.4c0-.1-.4-.3-.4-.3l-.4-.2-.4-.2-.4-.2-.4-.2-.4-.2h-.2c0-.1-.2-.2-.2-.2h-.2c0,0-.2-.2-.2-.2h-.2c0,0-.2-.2-.2-.2h-.2c0-.1-.2-.2-.2-.2h-.2c0-.1-.2-.2-.2-.2h-.2c0-.1-.2-.2-.2-.2h-.2c0-.1-.2-.2-.2-.2h-.2c0-.1-.2-.3-.2-.3h-.2c0-.1-.2-.3-.2-.3h-.2c0-.1-.2-.3-.2-.3l-.2-.2-.2-.2-.2-.2-.2-.2-.2-.2-.2-.2-.2-.2-.2-.2-.2-.2-.2-.2-.2-.2-.2-.2-.2-.2-.2-.2-.2-.2-.2-.2-.2-.2-.2-.2-.2-.2-.2-.2-.2-.2-.2-.2-.2-.2-.2-.2-.2-.3-.2-.2-.2-.3-.2-.2-.2-.4-.2-.4-.2-.4-.2-.4-.2-.4-.2-.4-.2-.4-.2-.4-.2-.4-.2-.4-.2-.4-.2-.4-.2-.4-.2-.4-.2-.4-.2-.4-.2-.4-.2-.4v-.4c-.1,0-.3-.4-.3-.4v-.4c-.1,0-.3-.4-.3-.4v-.4c-.1,0-.3-.4-.3-.4v-.4c-.1,0-.2-.4-.2-.4v-.4c-.1,0-.2-.4-.2-.4v-.4c-.1,0-.2-.5-.2-.5v-.5c-.1,0-.2-.4-.2-.4v-.5c0,0-.2-.5-.2-.5v-.4c0,0-.2-.5-.2-.5v-.5c0,0-.2-.5-.2-.5v-.5c0,0-.2-.5-.2-.5v-.5c0,0-.2-.5-.2-.5v-.5c0,0-.2-.5-.2-.5v-.5c0,0-.2-.5-.2-.5v-.5c0,0-.2-.5-.2-.5v-.5c0,0-.2-.5-.2-.5v-.5c0,0-.2-.5-.2-.5v-.5c0,0-.2-.5-.2-.5v-.9c-.1,0-.2-.9-.2-.9v-.9c-.1,0-.2-.9-.2-.9v-.9c0,0-.2-.9-.2-.9v-.9c0,0-.2-.9-.2-.9v-.9c0,0-.2-.9-.2-.9v-.9c0,0-.2-.9-.2-.9v-.9c0,0-.2-1.8-.2-1.8v-1.8c-.1,0-.3-1.7-.3-1.7v-1.7c-.1,0-.2-.8-.2-.8v-.8c0,0-.2-.8-.2-.8v-.8c0,0-.2-.8-.2-.8v-.8c0,0-.2-.7-.2-.7v-.7c0,0-.2-.7-.2-.7v-.7c0,0-.2-.7-.2-.7v-.3c0,0-.2-.3-.2-.3v-.6c0,0-.2-.3-.2-.3v-.3c0,0-.2-.3-.2-.3v-.3c0,0-.2-.3-.2-.3v-.3c0,0-.2-.5-.2-.5v-.5c0,0,0-.5,0-.5v-1.4c0,0,.2-.5.2-.5v-.5c.1,0,.3-.4.3-.4l.2-.4.2-.4.2-.4.2-.4.3-.4.3-.4.3-.4.3-.3.3-.3.3-.3.4-.3.4-.3.4-.2.4-.2.4-.2.4-.2.4-.2h.5c0-.1.5-.2.5-.2h.5c0,0,.5-.1.5-.1h.5s.5,0,.5,0h.5Z"
                      style="fill-rule:evenodd; stroke-width:0px;"/>
                <path id="z" d="M537.4,972.7c26,1.6,46.3,16.3,45.3,32.8-1,16.5-22.9,28.6-48.9,27-26-1.6-46.3-16.3-45.3-32.8,1-16.5,22.9-28.6,48.9-27Z" style="fill-rule:evenodd; stroke-width:0px;"/>
                <path id="aa"
                      d="M533.1,1015.1h.4s.4,0,.4,0h.4c0,0,.4.1.4.1h.4c0,0,.4.2.4.2h.4c0,.1.4.3.4.3l.3.2.3.2.3.2.3.2.3.2.3.2.3.2.3.2.3.3.3.3.2.3.2.3.2.3.2.3.2.3.2.3.2.3.2.3v.3c.1,0,.3.4.3.4v.4c0,0,.2.4.2.4v.4c0,0,.2.4.2.4v1.1s0,.7,0,.7v4.2c0,0,0,.7,0,.7v.7c0,0-.2.7-.2.7v.7c0,0-.2.7-.2.7v.7c0,0-.2.7-.2.7v.7c0,0-.2.7-.2.7v.7c0,0-.2.7-.2.7v.7c0,0-.2.7-.2.7v.7c0,0-.2.7-.2.7v.7c0,0-.2.7-.2.7v1.3c-.1,0-.3,1.3-.3,1.3v1.3c-.1,0-.3,1.3-.3,1.3v1.3c-.1,0-.3,1.3-.3,1.3l-.3,2.6-.3,2.6v1.3c-.1,0-.3,1.3-.3,1.3v1.3c-.1,0-.3,1.3-.3,1.3v1.3c-.1,0-.3,1.3-.3,1.3v.6c0,0-.2.6-.2.6v.6c0,0-.2.6-.2.6v.6c0,0-.2.6-.2.6v.6c0,0-.2.7-.2.7v.4c0,0-.2.4-.2.4v.4c0,0-.2.4-.2.4v.4c-.1,0-.2.4-.2.4v.4c-.1,0-.3.3-.3.3l-.2.3-.2.3-.2.3-.2.3-.2.3-.2.3-.2.3-.3.3-.3.3-.3.2-.3.2-.3.2-.3.2-.3.2-.3.2-.3.2-.3.2h-.4c0,.1-.4.3-.4.3h-.4c0,.1-.4.2-.4.2h-.4c0,0-.4.1-.4.1h-.4s-.4,0-.4,0h-.8s-.4,0-.4,0h-.4s-.4-.1-.4-.1h-.4c0,0-.4-.2-.4-.2h-.4c0-.1-.4-.2-.4-.2h-.3c0-.1-.3-.3-.3-.3l-.3-.2-.3-.2-.3-.2-.3-.2-.3-.2-.3-.2-.3-.2-.3-.3-.3-.3-.2-.3-.2-.3-.2-.3-.2-.3-.2-.3-.2-.3-.2-.3v-.4c-.1,0-.3-.3-.3-.3v-.4c-.1,0-.2-.4-.2-.4v-.4c0,0-.2-.4-.2-.4v-.4c0,0,0-.4,0-.4v-.8s0-.4,0-.4v-.7c0,0,.2-.7.2-.7v-.7c0,0,.2-.7.2-.7v-.7c0,0,.2-.7.2-.7v-.7c0,0,.2-.7.2-.7v-1.3c.1,0,.3-1.3.3-1.3v-1.3c.1,0,.3-1.3.3-1.3v-1.3c.1,0,.3-1.3.3-1.3l.3-2.6.3-2.6.2-1.3v-1.3c.1,0,.3-1.3.3-1.3v-1.3c.1,0,.3-1.3.3-1.3v-1.3c.1,0,.2-.6.2-.6v-.6c0,0,.2-.6.2-.6v-.6c0,0,.2-.6.2-.6v-.6c0,0,.2-.6.2-.6v-.6c0,0,.2-.6.2-.6v-.6c0,0,.2-.6.2-.6v-.6c0,0,0-.6,0-.6v-.6c0,0,.2-.6.2-.6v-1.3c0,0,0-.6,0-.6v-4.9c0,0,.2-.4.2-.4v-.4c0,0,.2-.4.2-.4v-.4c.1,0,.2-.4.2-.4v-.3c.1,0,.3-.3.3-.3l.2-.3.2-.3.2-.3.2-.3.2-.3.2-.3.3-.3.3-.3.3-.2.3-.2.3-.2.3-.2.3-.2.3-.2.3-.2.3-.2h.3c0-.1.4-.3.4-.3h.4c0-.1.4-.2.4-.2h.4c0,0,.4-.1.4-.1h.4s.4,0,.4,0h.4s.6,0,.6,0Z"
                      style="fill-rule:evenodd; stroke-width:0px;"/>
                <path id="ab"
                      d="M432.7,1005.4h.8c0,.1.7.3.7.3l.7.2.7.3.7.4.6.4.6.5.6.5.6.7.6.6.6.6.6.6.6.6.6.6.6.6.6.6.6.6.6.6.6.6.6.6.6.6.6.6.6.6.6.6.6.6.6.6.6.6.6.6.6.5.6.5.6.5.6.5.6.5.6.5.6.5.6.5.6.5.6.5.6.5.6.5.6.5.6.5.6.5.6.5.6.5.6.5.6.5.6.5.6.5.6.5.6.5.6.4.6.4.6.4.6.4.6.4.6.4.6.4.6.4.6.4.6.4.6.4.6.4.6.4.6.4.6.4.6.4.6.4.6.4.6.4.6.4.6.4.6.4.6.4.6.4.6.3.6.3.6.3.6.3.6.3.6.3.6.3.6.3.6.3.6.3.6.3.6.3.6.3.6.3.6.3.6.3.6.3.6.3.6.3.6.3.6.3.6.3.6.3.6.3.6.3.6.2.6.2.6.2.6.2.6.2.6.2.6.2.6.2.6.2.7.2.6.2.7.2.6.2.7.2.6.2.7.2.7.2.7.2.7.2.7.2.7.2.7.2.7.2.7.2.7.2h.7c0,.1.7.3.7.3h.7c0,.1.7.3.7.3h.7c0,.1.7.3.7.3h.7c0,.1.7.2.7.2h.7c0,.1.7.2.7.2h.7c0,.1.7.2.7.2h.7c0,.1.7.2.7.2h.7c0,0,.7.2.7.2h.7c0,0,.7.2.7.2h.7c0,0,.7.2.7.2h.7c0,0,.7.1.7.1h.7c0,0,.7.1.7.1h.7c0,0,.7.1.7.1h.7s.7,0,.7,0h.7s.7,0,.7,0h.7s.7,0,.7,0h.7s.7,0,.7,0h.7s.7,0,.7,0h.7s.7,0,.7,0h.7s.7,0,.7,0h.7s.7,0,.7,0h.7s.7,0,.7,0h.7s.7,0,.7,0h.7s.7,0,.7,0h.7s.7,0,.7,0h.7s.7,0,.7,0h.7c0,0,.7-.1.7-.1h.7c0,0,.7-.1.7-.1h.7c0,0,.7-.2.7-.2h.7c0,0,.7-.2.7-.2h.7c0,0,.7-.2.7-.2h.7c0,0,.7-.2.7-.2h.7c0-.1.7-.2.7-.2h.7c0-.1.7-.2.7-.2h.7c0-.1.7-.2.7-.2h.7c0-.1.7-.3.7-.3h.7c0-.1.7-.3.7-.3l.7-.2.7-.2.7-.2.7-.2.7-.2.7-.2.7-.2.7-.2.7-.2.7-.2.7-.2.7-.2.7-.2.7-.2.7-.2.7-.2.7-.2.7-.2.7-.2.7-.2.7-.2.7-.2.7-.2.7-.2.7-.2.7-.2.7-.2.7-.3.7-.3.7-.3.7-.3.7-.3.7-.3.7-.3.7-.3.7-.3.7-.3.7-.3.8-.3.7-.3.7-.3.8-.3.7-.3.8-.3.8-.3.8-.3.8-.3.8-.3.8-.3.8-.4.8-.4.8-.4.8-.4.8-.4.8-.4.8-.4.8-.4.8-.4.8-.4.8-.4.8-.4.8-.4.8-.4.8-.4.8-.4.7-.3.7-.3.7-.2h.8c0-.1.8-.2.8-.2h.8s.8,0,.8,0h.8c0,.1.7.3.7.3l.7.3.7.3.7.4.6.4.6.5.5.6.5.6.4.6.4.7.3.7.2.7.2.7v.8c.1,0,.1.8.1.8v1.5c0,0-.3.7-.3.7l-.2.7-.3.7-.4.7-.4.6-.5.6-.5.6-.6.5-.6.5-.7.4-.8.4-.8.4-.8.4-.8.4-.8.4-.8.4-.8.4-.8.4-.8.4-.8.4-.8.4-.8.4-.8.4-.8.4-.8.4-.8.4-.8.4-.8.4-.8.4-.8.4-.8.4-.8.4-.8.3-.8.3-.8.3-.8.3-.8.3-.8.3-.8.3-.8.3-.8.3-.8.3-.8.3-.8.3-.8.3-.8.3-.8.3-.8.3-.8.3-.8.3-.8.3-.8.3-.8.3-.8.3-.8.3-.8.2-.8.2-.8.2-.8.2-.8.2-.8.2-.8.2-.8.2-.8.2-.8.2-.8.2-.8.2-.8.2-.8.2-.8.2-.8.2-.8.2-.8.2-.8.2-.8.2-.8.2-.8.2-.8.2-.8.2h-.8c0,.1-.8.3-.8.3h-.8c0,.1-.8.3-.8.3h-.8c0,.1-.8.2-.8.2h-.8c0,.1-.8.2-.8.2h-.8c0,.1-.8.2-.8.2h-.8c0,0-.8.2-.8.2h-.8c0,0-.8.2-.8.2h-.8c0,0-.8.2-.8.2h-.8c0,0-.8.1-.8.1h-.8c0,0-.8.1-.8.1h-.8c0,0-.8.1-.8.1h-.8s-.8,0-.8,0h-.8s-.8,0-.8,0h-.8s-.8,0-.8,0h-.8s-.8,0-.8,0h-.8s-.8,0-.8,0h-1.6s-.8,0-.8,0h-.8s-.8,0-.8,0h-.8s-.8,0-.8,0h-.8s-.8,0-.8,0h-.8s-.8,0-.8,0h-.8c0,0-.8-.1-.8-.1h-.8c0,0-.8-.1-.8-.1h-.8c0,0-.8-.1-.8-.1h-.8c0,0-.8-.2-.8-.2h-.8c0,0-.8-.2-.8-.2h-.8c0,0-.8-.2-.8-.2h-.8c0-.1-.8-.2-.8-.2h-.8c0-.1-.8-.2-.8-.2h-.8c0-.1-.8-.3-.8-.3h-.8c0-.1-.8-.3-.8-.3h-.8c0-.1-.8-.3-.8-.3l-.8-.2-.8-.2-.8-.2-.8-.2-.8-.2-.8-.2-.8-.2-.8-.2-.8-.2-.8-.2-.8-.2-.7-.2-.8-.2-.8-.2-.7-.2-.8-.2-.7-.2-.7-.2-.7-.2-.7-.2-.7-.2-.7-.2-.7-.3-.7-.3-.7-.3-.7-.3-.7-.3-.7-.3-.7-.3-.7-.3-.7-.3-.7-.3-.7-.3-.7-.3-.7-.3-.7-.3-.7-.3-.7-.3-.7-.3-.7-.3-.7-.3-.7-.3-.7-.3-.7-.3-.7-.3-.7-.4-.7-.4-.7-.4-.7-.4-.7-.4-.7-.4-.7-.4-.7-.4-.7-.4-.7-.4-.7-.4-.7-.4-.7-.4-.7-.4-.7-.4-.7-.4-.7-.4-.7-.4-.7-.4-.7-.4-.7-.4-.7-.4-.7-.5-.7-.5-.7-.5-.7-.5-.7-.5-.7-.5-.7-.5-.7-.5-.7-.5-.7-.5-.7-.5-.7-.5-.7-.5-.7-.5-.7-.5-.7-.5-.7-.5-.7-.5-.7-.5-.7-.5-.7-.5-.7-.5-.7-.5-.7-.6-.7-.6-.7-.6-.7-.6-.7-.6-.7-.6-.7-.6-.7-.6-.7-.6-.7-.6-.7-.6-.7-.6-.7-.6-.7-.6-.7-.6-.7-.6-.7-.6-.7-.6-.7-.6-.7-.6-.7-.6-.6-.6-.7-.6-.6-.7-.7-.7-.6-.7-.6-.7-.6-.7-.6-.7-.6-.7-.6-.7-.6-.7-.5-.6-.4-.6-.4-.7-.3-.7-.3-.7-.2-.7v-.8c-.1,0-.2-.8-.2-.8v-1.5c0,0,.2-.7.2-.7l.2-.7.3-.7.3-.7.4-.7.5-.6.5-.6.6-.5.6-.5.6-.4.7-.4.7-.3.7-.2.8-.2h.8c0,0,.8-.1.8-.1h.7Z"
                      style="fill-rule:evenodd; stroke-width:0px;"/>
            </g>
            <g id="ac">
                <g id="ad">
                    <path id="ae" d="M760.3,939.5s-13.2,66-91.8,62.1c-78.6-3.8-84.1-84.1-84.1-84.1l176,22Z" style="fill:#a8a8a8; fill-rule:evenodd; stroke-width:0px;"/>
                    <circle id="af" cx="733.2" cy="1019.5" r="9.4" style="fill:#e5e5e5; stroke-width:0px;"/>
                    <path id="ag" d="M624.6,753.2c-9.9-3-19.2-1.3-20.7,3.9-1.6,5.1,5.2,11.7,15.1,14.7,9.9,3,19.2,1.3,20.7-3.9,1.6-5.1-5.2-11.7-15.1-14.7Z" style="fill:#e5e5e5; fill-rule:evenodd; stroke-width:0px;"/>
                    <path id="ah" d="M691.4,787.5c-52.6-7.5-101.4,29.1-108.9,81.7-7.5,52.6,29.1,101.4,81.7,108.9,52.6,7.5,101.4-29.1,108.9-81.7s-29.1-101.4-81.7-108.9Z" style="fill:#fff; fill-rule:evenodd; stroke:#000; stroke-linecap:round; stroke-linejoin:round; stroke-width:15.9px;"/>
                    <path id="ai" d="M671.3,869.1c-18.7-2.7-36,10.3-38.7,29-2.7,18.7,10.3,36,29,38.7s36-10.3,38.7-29-10.3-36-29-38.7Z" style="fill-rule:evenodd; stroke-width:0px;"/>
                    <path id="aj" d="M674.1,883.4c-5.2-.7-10.1,2.9-10.9,8.1-.7,5.2,2.9,10.1,8.1,10.9,5.2.7,10.1-2.9,10.9-8.1.7-5.2-2.9-10.1-8.2-10.9Z" style="fill:#fff; fill-rule:evenodd; stroke-width:0px;"/>
                </g>
                <g id="ak">
                    <path id="al" d="M424,973s-13.2,66-91.8,62.1c-78.6-3.8-84.1-84.1-84.1-84.1l176,22Z" style="fill:#a8a8a8; fill-rule:evenodd; stroke-width:0px;"/>
                    <circle id="am" cx="268.7" cy="1036.5" r="9.4" style="fill:#e5e5e5; stroke-width:0px;"/>
                    <path id="an" d="M264.4,796.9c-6.6,7.9-8.7,17.1-4.6,20.5,4.1,3.4,12.8-.2,19.4-8.1s8.7-17.1,4.6-20.5c-4.1-3.4-12.8.2-19.4,8.1Z" style="fill:#e5e5e5; fill-rule:evenodd; stroke-width:0px;"/>
                    <path id="ao" d="M352.1,815.6c-52.6-7.5-101.4,29.1-108.9,81.7-7.5,52.6,29.1,101.4,81.7,108.9,52.6,7.5,101.4-29.1,108.9-81.7,7.5-52.6-29.1-101.4-81.7-108.9Z" style="fill:#fff; fill-rule:evenodd; stroke:#000; stroke-linecap:round; stroke-linejoin:round; stroke-width:15.9px;"/>
                    <path id="ap" d="M336.7,893.2c-18.7-2.7-36,10.3-38.7,29-2.7,18.7,10.4,36,29,38.7,18.7,2.7,36-10.3,38.7-29,2.7-18.7-10.3-36-29-38.7Z" style="fill-rule:evenodd; stroke-width:0px;"/>
                    <path id="aq" d="M339.5,907.5c-5.2-.7-10.1,2.9-10.9,8.1-.7,5.2,2.9,10.1,8.2,10.9,5.2.7,10.1-2.9,10.9-8.1.7-5.2-2.9-10.1-8.1-10.9Z" style="fill:#fff; fill-rule:evenodd; stroke-width:0px;"/>
                </g>
            </g>
        </g>
        <path id="ar" d="M143,1225.8L22.7,301.5" style="fill:none; stroke:#000; stroke-linecap:round; stroke-miterlimit:121.2; stroke-width:45.4px;"/>
        <path id="as" d="M847,1225.8l120.2-924.3" style="fill:none; stroke:#000; stroke-linecap:round; stroke-miterlimit:121.2; stroke-width:45.4px;"/>
    </g>
</svg>