<svg width="33" height="27" viewBox="0 0 33 27" fill="none" xmlns="http://www.w3.org/2000/svg">
    <path d="M20.8047 7.26592H21.8047L24.6547 4.41592L24.7947 3.20592C23.162 1.76488 21.1889 0.763836 19.0618 0.297356C16.9347 -0.169124 14.7238 -0.0856401 12.6379 0.539922C10.5521 1.16548 8.6601 2.31247 7.14076 3.87254C5.62142 5.4326 4.52487 7.35424 3.95469 9.45592C4.27219 9.32579 4.6239 9.30468 4.95469 9.39592L10.6547 8.45592C10.6547 8.45592 10.9447 7.97592 11.0947 8.00592C12.316 6.66459 14.0039 5.84082 15.8127 5.70325C17.6215 5.56568 19.4146 6.12472 20.8247 7.26592H20.8047Z" fill="#EA4335"/>
    <path d="M28.7147 9.45592C28.0596 7.04356 26.7146 4.87487 24.8447 3.21592L20.8447 7.21592C21.6783 7.89709 22.3464 8.75866 22.7985 9.73566C23.2506 10.7127 23.475 11.7796 23.4547 12.8559V13.5659C23.9222 13.5659 24.3851 13.658 24.817 13.8369C25.249 14.0158 25.6414 14.278 25.972 14.6086C26.3026 14.9392 26.5648 15.3317 26.7437 15.7636C26.9226 16.1955 27.0147 16.6584 27.0147 17.1259C27.0147 17.5934 26.9226 18.0564 26.7437 18.4883C26.5648 18.9202 26.3026 19.3126 25.972 19.6432C25.6414 19.9738 25.249 20.236 24.817 20.4149C24.3851 20.5938 23.9222 20.6859 23.4547 20.6859H16.3347L15.6247 21.4059V25.6759L16.3347 26.3859H23.4547C25.4429 26.4014 27.3833 25.7765 28.9889 24.6037C30.5945 23.4309 31.7799 21.7724 32.3698 19.8737C32.9597 17.9749 32.9228 15.9367 32.2646 14.0605C31.6063 12.1843 30.3616 10.5699 28.7147 9.45592Z" fill="#4285F4"/>
    <path d="M9.20469 26.3459H16.3247V20.6459H9.20469C8.69742 20.6458 8.1961 20.5367 7.73469 20.3259L6.73469 20.6359L3.86469 23.4859L3.61469 24.4859C5.22412 25.7012 7.18796 26.3547 9.20469 26.3459Z" fill="#34A853"/>
    <path d="M9.20469 7.85592C7.27551 7.86745 5.3981 8.48122 3.83468 9.61153C2.27126 10.7418 1.09991 12.3322 0.484221 14.1605C-0.131464 15.9889 -0.160733 17.9638 0.400502 19.8096C0.961737 21.6554 2.08545 23.2798 3.61469 24.4559L7.74469 20.3259C7.21985 20.0888 6.76038 19.7279 6.40569 19.2742C6.051 18.8204 5.81169 18.2874 5.70828 17.7209C5.60488 17.1543 5.64047 16.5711 5.81201 16.0213C5.98354 15.4716 6.2859 14.9716 6.69313 14.5644C7.10036 14.1571 7.60032 13.8548 8.1501 13.6832C8.69987 13.5117 9.28306 13.4761 9.84962 13.5795C10.4162 13.6829 10.9492 13.9222 11.4029 14.2769C11.8567 14.6316 12.2176 15.0911 12.4547 15.6159L16.5847 11.4859C15.7178 10.3527 14.6006 9.43533 13.3203 8.8056C12.04 8.17587 10.6314 7.85084 9.20469 7.85592Z" fill="#FBBC05"/>
</svg>
