<?xml version="1.0" encoding="UTF-8"?><svg id="a" xmlns="http://www.w3.org/2000/svg" viewBox="0 0 850 850"><path d="M0,0h850v1.2c-283.3,0-566.7-.1-850,.1V0Z" style="fill:#fff; stroke-width:0px;"/><path d="M12.8,13.5c115.4-.3,230.9,0,346.3-.1,160.2,0,320.5,0,480.7,0,0,275.8,0,551.5,0,827.3-275.6.1-551.3,0-826.9,0-.2-275.7,0-551.5-.1-827.2ZM128.2,28.2c.1,22.2,0,44.4,0,66.6,10.9-.3,21.9.8,32.8-1,10.2-1.6,18.5-9.7,21.6-19.3,3-9.7,2.6-20.7-2.1-29.8-3.9-7.9-11.7-13.5-20.2-15.3-10.5-2-21.3-1-32-1.2ZM211.8,134.8c-6.2,6.4-9.6,15.3-9.3,24.1-.4,9.1,2.8,18.6,9.3,25.1,6.8,7.4,17.2,10.8,27.1,10.3,10.8.3,21-5.2,28-13.2-3.1-2.9-6.1-5.9-8.9-9.1-2.6,2.4-5.4,4.8-8.4,6.7-9.6,5.6-23.1,3.3-29.8-5.6-5.1-6.8-5.9-16.6-2-24.2,4.3-8.1,13.7-13.4,22.9-11.9,6.7.8,12.7,4.6,17.1,9.6,3-3,6.3-5.8,9.3-8.9-6.4-7.7-16-12.6-26-13.4-10.7-1.1-21.7,3-29.4,10.5ZM535.4,124.7c-7.7,1.1-14.9,4.9-20.1,10.7-12.4,12.9-12.3,35.4.1,48.2,13,14.9,38.9,14.4,51.4-.8,6.4-7.2,9.3-17.2,8.3-26.7-.8-10.3-6.6-20.1-15.2-25.9-7-5.1-16.1-6.7-24.5-5.5ZM149.7,125.4c-4.1,11.2-8,22.4-12.3,33.5-6.4-1.7-13.1-1.7-19.5,0,.6,2.9,1.2,5.7,1.8,8.5,4.9-.5,9.9-1.6,14.8,0-3.3,8.3-6.2,16.8-9.4,25.1,8.8,0,17.6,0,26.4,0,1.9-4.2,2.6-9,5.2-12.9,1.4,4.4,3,8.6,4.6,12.9,8.8,0,17.6,0,26.4,0-8.1-22.4-16.4-44.8-24.5-67.1-4.5,0-9,0-13.5,0ZM70.8,125.8c0,22.2,0,44.5,0,66.7,7.8.1,15.5,0,23.3,0,7-.2,13.7-4.1,16.9-10.4,2.4-4,2-8.9,1.7-13.4-.9-5.9-5.6-10.5-10.8-12.8,2.8-2.6,5.7-5.5,6.2-9.5,1.8-8.1-3.5-16.7-11.3-18.9-8.3-2.5-17.2-1.6-25.8-1.8ZM277.2,125.8c0,22.3,0,44.6,0,66.9,4.5,0,9,0,13.4,0,0-9.7,0-19.3,0-29,7.3,0,14.5,0,21.8,0,0,9.7,0,19.3,0,29,4.4,0,8.8,0,13.1,0-.2-22.2,0-44.5,0-66.8-4.3,0-8.6,0-13,0-.2,8.4,0,16.9-.1,25.4-7.2,0-14.5,0-21.8,0,0-8.5.1-16.9-.1-25.4-4.4.1-8.9,0-13.3,0ZM389.5,125.8c0,22.3,0,44.5,0,66.8,4.4,0,8.7,0,13,0,0-9.6,0-19.2,0-28.8,6.9,9.4,13.4,19.1,19.9,28.7,5.3,0,10.5,0,15.8,0-8.4-12.3-16.9-24.6-25.5-36.7,7.5-10.1,15.8-19.7,23.2-30.1-5.2.2-10.6-.3-15.8.2-6.2,7.2-11.6,15-17.6,22.2,0-7.4.1-14.7,0-22.1-4.1-.8-8.7,0-13-.3ZM446.2,125.8c0,22.3,0,44.6,0,66.8,4.5-.1,8.9,0,13.4,0,0-9.7,0-19.4,0-29,7.3,0,14.6,0,21.8,0,0,9.7,0,19.4,0,29,4.4,0,8.7,0,13.1,0,0-22.3,0-44.6,0-66.8-4.3,0-8.6,0-13,0-.2,8.4,0,16.9,0,25.4-7.3,0-14.5,0-21.8,0,0-8.4,0-16.9,0-25.3-4.5.1-8.9,0-13.4,0ZM603.5,135.4c-7.4,19.1-14.8,38.1-22.2,57.2,4.6,0,9.2,0,13.9,0,1.5-4.5,3.4-8.9,5.1-13.3,8.9,0,17.8,0,26.8,0,1.8,4.5,3.4,9,5.1,13.4,4.6,0,9.1,0,13.7,0-8.7-22.2-17-44.6-25.8-66.9-4.2,0-8.4.1-12.6,0-1.7,3.1-2.7,6.4-4,9.7ZM209.1,209.6c0,200.4,0,400.8,0,601.1,200.2,0,400.4,0,600.6,0,.1-97.9,0-195.8,0-293.8,0-102.5.2-205.1-.1-307.6-56.5.3-113.1,0-169.6.1-143.6,0-287.3,0-430.9,0ZM129.9,249.6c.1,22.2,0,44.5,0,66.8,2.4,0,4.9,0,7.3,0-.2-16.5.2-33-.2-49.4,1.1.9,2.2,1.9,3.1,3,12.5,14.5,25.2,28.8,37.7,43.3,1.3,1.4,2.4,3.4,4.6,3.4,0-22.4,0-44.7,0-67.1-2.4,0-4.8,0-7.2,0,.2,16.7-.1,33.4.2,50.1-14.3-16.4-28.6-32.9-42.9-49.3-.6-1-1.7-.8-2.6-.8ZM155.4,360.2c-10.6,22.2-21.2,44.5-31.7,66.9,2.7,0,5.3,0,8-.1,3.6-7.2,6.7-14.6,10.4-21.7,9.4,0,18.8-.1,28.1,0,3.6,7.2,6.9,14.5,10.4,21.8,2.6,0,5.2,0,7.8,0-10.2-22.3-20.9-44.5-31-66.8-.5,0-1.6-.1-2.1-.1ZM130,471c-.1,22.3,0,44.5,0,66.8,2.4,0,4.8,0,7.3,0-.1-16.6.2-33.1-.2-49.7,14.7,16.2,28.7,33,43.3,49.4.5.2,1.5.5,2,.6.1-22.3,0-44.7,0-67-2.4,0-4.8,0-7.2,0,.2,16.6,0,33.3.1,50-14.2-16.4-28.5-32.7-42.7-49.1-.7-.8-1.6-1.1-2.7-1.1ZM138.5,586.3c-11.2,6.1-18.6,18.9-17.8,31.7-.1,17,14.6,32,31.4,33.5,10.3,1.3,21.9-.3,29.6-7.8,7.2-6.3,10.4-16.2,10-25.6-9.7-.4-19.3,0-29-.2,0,2.3-.1,4.6-.1,6.8,7.1,0,14.2,0,21.4,0-1.7,11.8-13.2,20.7-25,20.1-13.6.9-27.1-8.6-30.3-22-2-7.2-.3-15.2,3.9-21.3,5.3-8,14.9-12.7,24.4-13,9.7,0,18.7,4.8,25.7,11.2,1.8-1.8,3.8-3.5,5.5-5.4-5.9-5-12.5-9.6-20.2-11.4-9.8-2.3-20.7-1.7-29.6,3.2Z" style="fill:#fff; stroke-width:0px;"/><path d="M135.1,34.8c7.7,0,15.5.2,23.1,1.6,10.1,2,17.8,11.3,18.7,21.5.3,5.6.5,11.6-2.3,16.7-3,6.9-10,11.6-17.4,12.6-7.3.7-14.7,1.1-22.1.9,0-17.8,0-35.6,0-53.3Z" style="fill:#fff; stroke-width:0px;"/><path d="M538.1,137c8.1-1.1,16.4,3.3,20.7,10.2,6,9.3,4,22.9-4.8,29.8-5.3,4.6-12.9,5.8-19.5,3.8-7-2.3-12.9-8.1-14.7-15.3-1.7-7.9-.1-17.1,6.1-22.7,3.2-3.4,7.7-5.2,12.2-5.9Z" style="fill:#fff; stroke-width:0px;"/><path d="M83.8,138.4c3.5,0,7.7-.4,10.3,2.5,2.5,2.6,1.8,7.1-.9,9.2-2.7,2-6.2,1.7-9.4,1.7,0-4.5,0-9,0-13.4Z" style="fill:#fff; stroke-width:0px;"/><path d="M604.9,166.5c3.2-7.1,5.7-14.6,9-21.8,2.8,7.3,5.5,14.7,8.6,21.8-5.8-.1-11.7,0-17.6,0Z" style="fill:#fff; stroke-width:0px;"/><path d="M138.2,159.7c4.1,1.2,7.9,3,11.8,4.8,4.4-1.1,8.2-4.2,12.9-4.6.8,2.3,1.6,4.6,2.3,7-5.5.8-10.4,3.7-15,6.7-4.3-3.4-9.3-5.8-14.6-6.9.8-2.4,1.7-4.7,2.6-7Z" style="fill:#fff; stroke-width:0px;"/><path d="M83.8,163.6c4.4-.1,9.1,0,13,2.4,3.9,2.6,4.9,8.9,1,12-4.1,2.7-9.3,1.8-14,1.9,0-5.4,0-10.8,0-16.3Z" style="fill:#fff; stroke-width:0px;"/><path d="M156.1,375.4c4,7.4,7.3,15.2,10.9,22.8-7.2,0-14.4,0-21.7,0,3.6-7.6,7.3-15.2,10.7-22.8Z" style="fill:#fff; stroke-width:0px;"/><path d="M688.5,782.6s0-.2.1-.2c0,0,0,.2-.1.2Z" style="fill:#fff; stroke-width:0px;"/><path d="M0,1.3c283.3-.2,566.7,0,850-.1v848.8H0V1.3ZM12.8,13.5c.2,275.7,0,551.5.1,827.2,275.6,0,551.3,0,826.9,0,0-275.8,0-551.5,0-827.3-160.2,0-320.5,0-480.7,0-115.4,0-230.9-.2-346.3.1Z" style="fill:#e3e3e3; stroke-width:0px;"/><path d="M209.1,209.6c143.6,0,287.3,0,430.9,0,56.5,0,113.1.2,169.6-.1.3,102.5,0,205.1.1,307.6,0,97.9,0,195.8,0,293.8-200.2-.1-400.4,0-600.6,0,0-200.4,0-400.8,0-601.1ZM221.6,222.2c0,192,0,384.1,0,576.1,28.9,0,57.8,0,86.7,0,0-38,0-76,0-114.1,1.9,0,3.9-.2,5.8-.4,34.1-.5,68.1-7.4,99.7-20,45.1-18.1,85.8-48.3,113.6-88.3,19.8-28.4,33.2-61.4,37.5-95.8,3.6-27.7,1.5-56.2-6.1-83.1-7.7-27.8-21.5-53.6-39.1-76.3-36-45.6-88.5-76.9-144.7-90.1-20.9-5.1-42.4-7.5-63.8-7.9-29.8,0-59.6,0-89.5,0ZM401.5,222.4v.7c13.2.9,26.4,3,39.4,6,80.2,17,154.2,61.3,207.2,123.8,46.1,53.6,75.9,120.7,85.9,190.7,3.7,25,4.2,50.3,3.2,75.5-1.9,25.9-5.7,51.8-12.8,76.8-8.2,30.2-20.2,59.3-35.8,86.5,0,0,0,.2-.1.2-3,5.2-6.3,10.3-9.3,15.6,39.2,0,78.3-.2,117.5.1,1-3,.4-6.3.5-9.4,0-188.9,0-377.7,0-566.6-85.1-.2-170.2,0-255.3,0-46.8.1-93.7-.2-140.5.1Z" style="fill:#e3e3e3; stroke-width:0px;"/><path d="M128.2,28.2c10.6.2,21.4-.9,31.9,1.2,8.6,1.8,16.4,7.4,20.2,15.3,4.7,9.1,5.2,20.1,2.1,29.8-3.1,9.6-11.4,17.7-21.6,19.3-10.8,1.8-21.8.7-32.8,1,0-22.2.1-44.4,0-66.6ZM135.1,34.8c0,17.8,0,35.6,0,53.3,7.4.2,14.7-.2,22.1-.9,7.4-1,14.4-5.7,17.4-12.6,2.8-5.1,2.6-11.1,2.3-16.7-.9-10.1-8.6-19.4-18.7-21.5-7.6-1.5-15.4-1.6-23.1-1.6Z" style="fill:#161616; stroke-width:0px;"/><path d="M221.6,222.2c29.8.1,59.6,0,89.5,0,21.5.4,42.9,2.8,63.8,7.9,56.2,13.2,108.8,44.5,144.7,90.1,17.7,22.7,31.5,48.6,39.1,76.3,7.7,26.9,9.7,55.4,6.1,83.1-4.3,34.4-17.6,67.4-37.5,95.8-27.8,40.1-68.5,70.3-113.6,88.3-31.7,12.6-65.6,19.5-99.7,20-1.9.2-3.9.3-5.8.4,0,38,0,76,0,114.1-28.9,0-57.8,0-86.7,0,0-192,0-384.1,0-576.1Z" style="fill:#161616; stroke-width:0px;"/><path d="M401.5,222.4c46.8-.4,93.7,0,140.5-.1,85.1,0,170.2-.1,255.3,0-.1,188.9,0,377.7,0,566.6-.1,3.1.5,6.4-.5,9.4-39.2-.3-78.3,0-117.5-.1,3-5.3,6.2-10.4,9.3-15.6,0,0,0-.2.1-.2,15.5-27.2,27.6-56.3,35.8-86.5,7.1-25,10.9-50.9,12.8-76.8,1.1-25.2.5-50.5-3.2-75.5-10-69.9-39.9-137-85.9-190.7-52.9-62.6-127-106.8-207.1-123.8-12.9-3-26.1-5.1-39.4-6v-.7Z" style="fill:#161616; stroke-width:0px;"/><path d="M129.9,249.6c.9,0,2.1-.2,2.6.8,14.3,16.4,28.6,32.9,42.9,49.3-.3-16.7,0-33.4-.2-50.1,2.4,0,4.8,0,7.2,0,0,22.3,0,44.7,0,67.1-2.2,0-3.3-2-4.6-3.4-12.5-14.5-25.1-28.8-37.7-43.3-.9-1.2-2-2.1-3.1-3,.4,16.5,0,33,.2,49.4-2.4,0-4.9,0-7.3,0,0-22.2,0-44.5,0-66.8Z" style="fill:#161616; stroke-width:0px;"/><path d="M155.4,360.2c.5,0,1.6.1,2.1.1,10.2,22.3,20.8,44.5,31,66.8-2.6,0-5.2,0-7.8,0-3.5-7.3-6.9-14.6-10.4-21.8-9.4-.2-18.8,0-28.1,0-3.7,7.1-6.9,14.5-10.4,21.7-2.7.2-5.3.2-8,.1,10.5-22.3,21-44.6,31.6-66.9ZM156.1,375.4c-3.4,7.7-7.1,15.2-10.7,22.9,7.2,0,14.4,0,21.7,0-3.6-7.6-7-15.4-10.9-22.8Z" style="fill:#161616; stroke-width:0px;"/><path d="M130,471c1.1,0,2,.3,2.7,1.1,14.2,16.4,28.4,32.8,42.7,49.1-.2-16.7,0-33.3-.1-50,2.4,0,4.8,0,7.2,0,0,22.3,0,44.7,0,67-.5-.2-1.5-.5-2-.6-14.6-16.3-28.7-33.1-43.3-49.4.4,16.5,0,33.1.2,49.7-2.4,0-4.9,0-7.3,0,0-22.3,0-44.5,0-66.8Z" style="fill:#161616; stroke-width:0px;"/><path d="M138.5,586.3c9-4.9,19.8-5.6,29.6-3.2,7.7,1.8,14.2,6.4,20.2,11.4-1.7,1.9-3.7,3.6-5.5,5.4-7-6.4-16-11.2-25.7-11.2-9.5.3-19.1,5-24.4,13-4.2,6.1-5.9,14.1-3.9,21.3,3.2,13.3,16.7,22.9,30.3,22,11.8.6,23.3-8.3,25-20.1-7.1,0-14.3,0-21.4,0,0-2.3,0-4.6.1-6.8,9.7.2,19.3-.2,29,.2.3,9.4-2.8,19.3-10,25.6-7.7,7.5-19.3,9.1-29.6,7.8-16.7-1.4-31.5-16.5-31.4-33.5-.8-12.8,6.5-25.6,17.8-31.7Z" style="fill:#161616; stroke-width:0px;"/><path d="M211.8,134.8c7.7-7.5,18.7-11.6,29.4-10.4,10,.8,19.6,5.7,26,13.4-3,3.1-6.3,5.9-9.3,8.9-4.4-5-10.4-8.8-17.1-9.6-9.2-1.6-18.6,3.8-22.9,11.9-3.8,7.6-3.1,17.4,2,24.2,6.8,8.9,20.3,11.2,29.8,5.6,3-1.9,5.8-4.2,8.4-6.7,2.8,3.2,5.8,6.2,8.9,9.1-7,8-17.2,13.5-28,13.2-9.9.6-20.3-2.8-27.1-10.3-6.6-6.5-9.7-15.9-9.3-25.1-.3-8.9,3.2-17.8,9.3-24.2Z" style="fill:#3e3e3e; stroke-width:0px;"/><path d="M535.4,124.7c8.5-1.3,17.6.4,24.5,5.5,8.6,5.8,14.4,15.6,15.2,25.9,1,9.5-1.9,19.5-8.3,26.7-12.5,15.2-38.5,15.8-51.4.8-12.5-12.8-12.5-35.4-.1-48.2,5.2-5.7,12.5-9.5,20.1-10.7ZM538.1,137c-4.6.6-9,2.4-12.2,5.9-6.2,5.6-7.8,14.8-6.1,22.7,1.8,7.2,7.7,13,14.7,15.3,6.6,1.9,14.2.7,19.5-3.8,8.8-6.9,10.8-20.5,4.8-29.8-4.3-6.9-12.6-11.3-20.7-10.2Z" style="fill:#3e3e3e; stroke-width:0px;"/><path d="M149.7,125.4c4.5,0,9,0,13.5,0,8.2,22.4,16.4,44.8,24.5,67.1-8.8,0-17.6,0-26.4,0-1.6-4.3-3.2-8.5-4.6-12.9-2.6,3.9-3.3,8.7-5.2,12.9-8.8-.2-17.6,0-26.4,0,3.2-8.4,6.1-16.8,9.4-25.1-4.9-1.6-9.9-.5-14.8,0-.6-2.9-1.2-5.7-1.8-8.5,6.4-1.7,13.1-1.7,19.5,0,4.3-11.1,8.1-22.4,12.3-33.5ZM138.2,159.7c-.9,2.3-1.8,4.7-2.6,7,5.3,1.2,10.4,3.5,14.6,6.9,4.6-3.1,9.4-5.9,15-6.7-.7-2.4-1.5-4.7-2.3-7-4.7.3-8.5,3.5-12.9,4.6-3.8-1.8-7.7-3.6-11.8-4.8Z" style="fill:#3e3e3e; stroke-width:0px;"/><path d="M70.8,125.8c8.6.2,17.5-.7,25.8,1.8,7.9,2.3,13.2,10.9,11.3,19-.5,3.9-3.4,6.9-6.2,9.5,5.3,2.3,9.9,6.9,10.8,12.8.3,4.5.7,9.3-1.7,13.4-3.2,6.3-9.9,10.2-16.9,10.4-7.8,0-15.5,0-23.3,0,.1-22.2,0-44.5,0-66.7ZM83.8,138.4c0,4.5,0,8.9,0,13.4,3.2,0,6.7.3,9.4-1.7,2.6-2.2,3.4-6.6.9-9.2-2.6-2.9-6.8-2.5-10.3-2.5ZM83.8,163.6c0,5.4,0,10.8,0,16.3,4.7-.1,9.8.8,14-1.9,3.8-3.1,2.9-9.4-1-12-3.9-2.4-8.6-2.5-13-2.4Z" style="fill:#3e3e3e; stroke-width:0px;"/><path d="M277.2,125.8c4.4,0,8.9,0,13.3,0,.2,8.4,0,16.9.1,25.4,7.2,0,14.5,0,21.8,0,.1-8.4,0-16.9.1-25.3,4.3.1,8.6,0,13,0,0,22.3-.1,44.5,0,66.8-4.4.1-8.8,0-13.1,0,.1-9.7,0-19.3,0-29-7.3,0-14.6,0-21.8,0,0,9.7,0,19.3,0,29-4.5,0-9,0-13.4,0,0-22.3,0-44.6,0-66.9Z" style="fill:#3e3e3e; stroke-width:0px;"/><path d="M389.5,125.8c4.3.3,8.9-.5,13,.3.2,7.3,0,14.7,0,22.1,6.1-7.3,11.5-15,17.6-22.2,5.2-.5,10.5,0,15.8-.2-7.3,10.3-15.6,19.9-23.2,30.1,8.6,12.2,17,24.5,25.5,36.7-5.3,0-10.5,0-15.8,0-6.6-9.6-13-19.3-19.9-28.7,0,9.6,0,19.2,0,28.8-4.4-.1-8.7,0-13,0,0-22.3,0-44.5,0-66.8Z" style="fill:#3e3e3e; stroke-width:0px;"/><path d="M446.2,125.8c4.5,0,8.9,0,13.4,0,.1,8.4,0,16.9,0,25.4,7.2,0,14.5,0,21.8,0,0-8.5-.1-16.9,0-25.4,4.3.1,8.6,0,13,0,0,22.3,0,44.6,0,66.8-4.4,0-8.7,0-13.1,0,0-9.7,0-19.4,0-29-7.3,0-14.6,0-21.8,0,0,9.7,0,19.4,0,29-4.5,0-8.9,0-13.4,0,0-22.3,0-44.6,0-66.8Z" style="fill:#3e3e3e; stroke-width:0px;"/><path d="M603.5,135.4c1.3-3.2,2.4-6.6,4-9.7,4.2.2,8.4,0,12.6,0,8.8,22.2,17.1,44.6,25.8,66.9-4.6,0-9.2,0-13.7,0-1.8-4.5-3.4-9-5.1-13.4-8.9,0-17.8,0-26.8,0-1.7,4.4-3.6,8.8-5.1,13.3-4.6,0-9.2,0-13.9,0,7.5-19,14.8-38.1,22.2-57.2ZM604.9,166.5c5.8,0,11.7,0,17.6,0-3.1-7.2-5.8-14.5-8.6-21.8-3.2,7.1-5.7,14.6-9,21.8Z" style="fill:#3e3e3e; stroke-width:0px;"/></svg>