<svg id="a" xmlns="http://www.w3.org/2000/svg" viewBox="0 0 47.8 47.6">
    <path d="M36.4,12.5c0-6.9-5.6-12.5-12.5-12.5s-12.5,5.6-12.5,12.5c0,9.9,12.5,24.6,12.5,24.6,0,0,12.5-14.7,12.5-24.6ZM17.7,11.8c0-3.4,2.8-6.2,6.2-6.2s6.2,2.8,6.2,6.2-2.8,6.2-6.2,6.2-6.2-2.8-6.2-6.2Z" style="stroke-width:0px;"/>
    <circle cx="23.9" cy="11.8" r="3" style="stroke-width:0px;"/>
    <path d="M31,32.8c-1,1.5-2,2.8-2.8,3.8,7.9.5,13.1,2.2,15,3.5-2.3,1.5-9,3.6-19.3,3.6s-17.1-2.1-19.3-3.6c1.9-1.3,7.1-3,15-3.5-.8-1-1.8-2.3-2.8-3.8-9.7,1-16.8,3.8-16.8,7.2s10.7,7.6,23.9,7.6,23.9-3.4,23.9-7.6c0-3.4-7.1-6.3-16.8-7.2Z" style="stroke-width:0px;"/>
</svg>