<svg width="500" height="240" viewBox="0 0 500 240" fill="none" xmlns="http://www.w3.org/2000/svg">
    <g clip-path="url(#clip0_15_19)">
        <path d="M120 85C166.944 85 205 69.33 205 50C205 30.67 166.944 15 120 15C73.0558 15 35 30.67 35 50C35 69.33 73.0558 85 120 85Z" stroke="black" stroke-width="15"/>
        <path d="M35 50V200C35.3928 204.603 37.9804 209.161 42.615 213.414C47.2496 217.667 53.8404 221.531 62.0112 224.786C70.1819 228.041 79.7726 230.622 90.2356 232.384C100.699 234.146 111.829 235.052 122.991 235.052C134.154 235.052 145.129 234.146 155.292 232.384C165.454 230.622 174.604 228.041 182.219 224.786C189.835 221.531 195.766 217.667 199.675 213.414C203.583 209.161 205.393 204.603 205 200V50M35 100C35.3928 104.603 37.9804 109.161 42.615 113.414C47.2496 117.667 53.8404 121.531 62.0112 124.786C70.1819 128.041 79.7726 130.622 90.2356 132.384C100.699 134.146 111.829 135.052 122.991 135.052C134.154 135.052 145.129 134.146 155.292 132.384C165.454 130.622 174.604 128.041 182.219 124.786C189.835 121.531 195.766 117.667 199.675 113.414C203.583 109.161 205.393 104.603 205 100M35 150C35.3928 154.603 37.9804 159.161 42.615 163.414C47.2496 167.667 53.8404 171.531 62.0112 174.786C70.1819 178.041 79.7726 180.622 90.2356 182.384C100.699 184.146 111.829 185.052 122.991 185.052C134.154 185.052 145.129 184.146 155.292 182.384C165.454 180.622 174.604 178.041 182.219 174.786C189.835 171.531 195.766 167.667 199.675 163.414C203.583 159.161 205.393 154.603 205 150" stroke="black" stroke-width="15"/>
        <path d="M300 100C300 96.717 299.353 93.4661 298.097 90.4329C296.841 87.3998 294.999 84.6438 292.678 82.3223C290.356 80.0009 287.6 78.1594 284.567 76.903C281.534 75.6466 278.283 75 275 75C271.717 75 268.466 75.6466 265.433 76.903C262.4 78.1594 259.644 80.0009 257.322 82.3223C255.001 84.6438 253.159 87.3998 251.903 90.4329C250.647 93.4661 250 96.717 250 100C249.869 103.903 250.472 107.783 251.759 111.329C253.047 114.874 254.983 117.987 257.414 120.418C259.844 122.848 262.701 124.528 265.755 125.324C268.809 126.12 271.975 126.009 275 125C277.64 124.974 280.254 125.602 282.691 126.847C285.128 128.092 287.339 129.929 289.199 132.253C291.058 134.577 292.528 137.342 293.523 140.388C294.519 143.434 295.021 146.701 295 150C294.337 156.63 291.067 162.726 285.91 166.945C280.753 171.165 274.13 173.163 267.5 172.5C260.87 171.837 254.774 168.567 250.555 163.41C246.335 158.253 244.337 151.63 245 145" stroke="black" stroke-width="15"/>
        <path d="M375 175C362.592 177.04 349.871 174.33 339.372 167.411C328.873 160.491 321.367 149.869 318.349 137.662C315.331 125.455 317.023 112.56 323.089 101.545C329.154 90.5298 339.147 82.2047 351.076 78.2284C363.005 74.252 375.995 74.9163 387.456 80.089C398.917 85.2617 408.008 94.5629 412.918 106.139C417.828 117.715 418.196 130.716 413.949 142.552C409.701 154.387 401.15 164.187 390 170M375 150L405 190" stroke="black" stroke-width="15"/>
        <path d="M440 70V150C440 156.63 442.634 162.989 447.322 167.678C452.011 172.366 458.37 175 465 175H485" stroke="black" stroke-width="15"/>
    </g>
    <defs>
        <clipPath id="clip0_15_19">
            <rect width="500" height="240" fill="white"/>
        </clipPath>
    </defs>
</svg>
