<?xml version="1.0" encoding="utf-8"?>
<!-- Generator: Adobe Illustrator 28.2.0, SVG Export Plug-In . SVG Version: 6.00 Build 0)  -->
<svg version="1.1" id="OBJECTS" xmlns="http://www.w3.org/2000/svg" xmlns:xlink="http://www.w3.org/1999/xlink" x="0px" y="0px"
	 viewBox="0 0 500 500" style="enable-background:new 0 0 500 500;" xml:space="preserve">
<style type="text/css">
	.st0{fill:url(#SVGID_1_);}
	.st1{fill:#FAFAFA;}
	.st2{fill:url(#SVGID_00000156573835026166575320000008263682993573298323_);}
	.st3{fill:url(#SVGID_00000031185874033413916900000010377099862823148192_);}
	.st4{fill:url(#SVGID_00000118377911769469893640000004668198690092730249_);}
	.st5{fill:url(#SVGID_00000103947712301078165650000009824571354599255710_);}
	.st6{fill:url(#SVGID_00000065780463906014094420000009605659168719570577_);}
	.st7{fill:url(#SVGID_00000113333563357424584940000002737543809626612152_);}
	.st8{fill:url(#SVGID_00000152953966318068472010000006265486731876473753_);}
	.st9{fill:url(#SVGID_00000047749168025293694880000005420379819786769589_);}
	.st10{fill:url(#SVGID_00000155119633874328094060000001086601623460777647_);}
	.st11{fill:url(#SVGID_00000158716557719067261440000000746688414058734977_);}
	.st12{fill:url(#SVGID_00000116223184684030401330000017135931439735883170_);}
	.st13{fill:url(#SVGID_00000070828623253141984990000009254416373309599934_);}
	.st14{fill:none;stroke:#EAEBF0;stroke-width:1.0556;stroke-miterlimit:10;}
	.st15{fill:url(#SVGID_00000059300684223880800960000015662161971853324672_);}
	.st16{fill:none;stroke:#EAEBF0;stroke-width:1.1502;stroke-miterlimit:10;}
	.st17{fill:url(#SVGID_00000097496422454319024230000007295375350696429713_);}
	.st18{fill:url(#SVGID_00000111874668620115351960000011023049818014793138_);}
	.st19{fill:url(#SVGID_00000105401251294049961110000011238324666768978057_);}
	.st20{fill:url(#path3462_00000145770266756747836590000018041342188863604387_);}
	.st21{fill:#777BB3;}
	.st22{fill:#FFFFFF;}
	.st23{fill:url(#SVGID_00000010285168330738534850000009705659341126608013_);}
	.st24{fill:none;stroke:#EAEBF0;stroke-width:1.1271;stroke-miterlimit:10;}
	.st25{fill-rule:evenodd;clip-rule:evenodd;stroke:#000000;stroke-width:3;stroke-linecap:round;stroke-linejoin:round;}
	.st26{fill:url(#SVGID_00000059271075753308609020000006598424319949566130_);}
	.st27{fill:url(#SVGID_00000181053830780980919650000014488675774959921052_);}
	.st28{fill:url(#SVGID_00000121961693106040566390000006681070526671590573_);}
	.st29{fill:url(#SVGID_00000134227607505489265680000001421665175616820652_);}
	.st30{fill:#252F3E;}
	.st31{fill:#FF9900;}
	.st32{clip-path:url(#SVGID_00000182494604941176758400000003942601403259460250_);}
	.st33{fill:url(#SVGID_00000165223505672565137010000012214931466749648315_);}
	.st34{clip-path:url(#SVGID_00000100359954034583809810000002711514385581727915_);}
	.st35{fill:url(#SVGID_00000117636119337400387800000000095972585677820843_);}
	.st36{clip-path:url(#SVGID_00000078039695943008851480000013346814819255777697_);}
	.st37{fill:#3B48CC;}
	.st38{clip-path:url(#SVGID_00000058576346988528014560000007061734451011157915_);}
	.st39{fill:url(#SVGID_00000103980892219034937480000004334503959030175644_);}
	.st40{clip-path:url(#SVGID_00000052063571101175321400000001148202910726146971_);}
	.st41{fill:url(#SVGID_00000044888798354687216860000016329020663322594714_);}
	.st42{clip-path:url(#SVGID_00000173875772438024396400000002676139500919295364_);}
	.st43{fill:url(#SVGID_00000009591028915460435250000015057342070052487607_);}
	.st44{clip-path:url(#SVGID_00000052813753679931892070000006636090627763504298_);}
	.st45{fill:url(#SVGID_00000183947273939856457340000001266367566849700762_);}
	.st46{clip-path:url(#SVGID_00000059991083924076679060000001895600372185714307_);}
	.st47{clip-path:url(#SVGID_00000075870574341255587210000013064867676315255721_);}
	.st48{fill:#D86613;}
	.st49{clip-path:url(#SVGID_00000074426372234737389870000008174916328986658451_);}
	.st50{fill:url(#SVGID_00000140013203302628705930000000927127757524588179_);}
	.st51{clip-path:url(#SVGID_00000174566826937552154910000011503464093777716129_);}
	.st52{fill:url(#SVGID_00000173131020081045389600000004162090679302030244_);}
	.st53{fill:#689F63;}
	.st54{fill-rule:evenodd;clip-rule:evenodd;fill:#333333;}
	.st55{fill-rule:evenodd;clip-rule:evenodd;fill:#689F63;}
	.st56{clip-path:url(#SVGID_00000167361850898749520590000016403216268764017805_);}
	.st57{fill:url(#SVGID_00000143580415698236025750000013068165772456564879_);}
	.st58{clip-path:url(#SVGID_00000059272650829895566460000002065354525158570172_);}
	.st59{fill:url(#SVGID_00000003797285906917466020000017608606699516614576_);}
	.st60{clip-path:url(#SVGID_00000169524790055781690100000007478750003642202555_);}
	.st61{fill:url(#SVGID_00000049943295676515803110000007325556277562722994_);}
</style>
<g>
	<g>
		<linearGradient id="SVGID_1_" gradientUnits="userSpaceOnUse" x1="201.266" y1="74.2106" x2="202.766" y2="102.2106">
			<stop  offset="0" style="stop-color:#FF839D"/>
			<stop  offset="1" style="stop-color:#F50B9A"/>
		</linearGradient>
		<circle class="st0" cx="202" cy="87.4" r="14.3"/>
		<circle class="st1" cx="202" cy="87.4" r="10.1"/>
		
			<linearGradient id="SVGID_00000140725195279020143620000004954788119369357461_" gradientUnits="userSpaceOnUse" x1="201.266" y1="74.2106" x2="202.766" y2="102.2105">
			<stop  offset="0" style="stop-color:#FF839D"/>
			<stop  offset="1" style="stop-color:#F50B9A"/>
		</linearGradient>
		<path style="fill:url(#SVGID_00000140725195279020143620000004954788119369357461_);" d="M207.4,87.4c0,3-2.5,5.5-5.5,5.5
			c-3,0-5.5-2.5-5.5-5.5c0-3,2.5-5.5,5.5-5.5C205,81.9,207.4,84.4,207.4,87.4z"/>
	</g>
	<g>
		
			<linearGradient id="SVGID_00000070798837917436211890000008309211739664754083_" gradientUnits="userSpaceOnUse" x1="133.8416" y1="307.923" x2="137.1561" y2="339.9635">
			<stop  offset="0" style="stop-color:#FF63DE"/>
			<stop  offset="1" style="stop-color:#B122E5"/>
		</linearGradient>
		<circle style="fill:url(#SVGID_00000070798837917436211890000008309211739664754083_);" cx="135.3" cy="322.5" r="15.8"/>
		<circle class="st1" cx="135.3" cy="322.5" r="11.2"/>
		
			<linearGradient id="SVGID_00000012456928082200680210000002836154783620319650_" gradientUnits="userSpaceOnUse" x1="133.8416" y1="307.923" x2="137.1561" y2="339.9636">
			<stop  offset="0" style="stop-color:#FF63DE"/>
			<stop  offset="1" style="stop-color:#B122E5"/>
		</linearGradient>
		<circle style="fill:url(#SVGID_00000012456928082200680210000002836154783620319650_);" cx="135.3" cy="322.5" r="6"/>
	</g>
	<g>
		
			<linearGradient id="SVGID_00000115487513276240702160000011523801144940093331_" gradientUnits="userSpaceOnUse" x1="296.8737" y1="366.7848" x2="300.3737" y2="393.2848">
			<stop  offset="0" style="stop-color:#9C27B0"/>
			<stop  offset="1" style="stop-color:#4A148C"/>
		</linearGradient>
		<circle style="fill:url(#SVGID_00000115487513276240702160000011523801144940093331_);" cx="298.6" cy="380.1" r="14.3"/>
		
			<ellipse transform="matrix(0.9229 -0.3851 0.3851 0.9229 -123.3326 144.2977)" class="st1" cx="298.6" cy="380.1" rx="10.1" ry="10.1"/>
		
			<linearGradient id="SVGID_00000170958944822715888570000011236533696896119176_" gradientUnits="userSpaceOnUse" x1="296.8736" y1="366.7848" x2="300.3736" y2="393.2847">
			<stop  offset="0" style="stop-color:#9C27B0"/>
			<stop  offset="1" style="stop-color:#4A148C"/>
		</linearGradient>
		<circle style="fill:url(#SVGID_00000170958944822715888570000011236533696896119176_);" cx="298.6" cy="380.1" r="5.5"/>
	</g>
	<g>
		
			<linearGradient id="SVGID_00000166675630197894696330000010229387542112241284_" gradientUnits="userSpaceOnUse" x1="423.3148" y1="217.1754" x2="428.3148" y2="244.6754">
			<stop  offset="0" style="stop-color:#FDC830"/>
			<stop  offset="1" style="stop-color:#F37335"/>
		</linearGradient>
		<circle style="fill:url(#SVGID_00000166675630197894696330000010229387542112241284_);" cx="425.6" cy="229.9" r="14.3"/>
		<circle class="st1" cx="425.6" cy="229.9" r="10.1"/>
		
			<linearGradient id="SVGID_00000004513105418953228760000014111714530546974106_" gradientUnits="userSpaceOnUse" x1="423.3148" y1="217.1755" x2="428.3147" y2="244.6755">
			<stop  offset="0" style="stop-color:#FDC830"/>
			<stop  offset="1" style="stop-color:#F37335"/>
		</linearGradient>
		<circle style="fill:url(#SVGID_00000004513105418953228760000014111714530546974106_);" cx="425.6" cy="229.9" r="5.5"/>
	</g>
	<g>
		
			<linearGradient id="SVGID_00000170995811626882634480000016500214633803006592_" gradientUnits="userSpaceOnUse" x1="282.3079" y1="224.299" x2="286.6606" y2="248.239">
			<stop  offset="0" style="stop-color:#FF839D"/>
			<stop  offset="1" style="stop-color:#F50B9A"/>
		</linearGradient>
		<circle style="fill:url(#SVGID_00000170995811626882634480000016500214633803006592_);" cx="284.3" cy="235.4" r="12.5"/>
		<circle class="st1" cx="284.3" cy="235.4" r="8.8"/>
		
			<linearGradient id="SVGID_00000034062146648877269700000010389795496504405651_" gradientUnits="userSpaceOnUse" x1="282.3079" y1="224.299" x2="286.6606" y2="248.239">
			<stop  offset="0" style="stop-color:#FF839D"/>
			<stop  offset="1" style="stop-color:#F50B9A"/>
		</linearGradient>
		<path style="fill:url(#SVGID_00000034062146648877269700000010389795496504405651_);" d="M289.1,235.4c0,2.6-2.1,4.8-4.8,4.8
			c-2.6,0-4.8-2.1-4.8-4.8c0-2.6,2.1-4.8,4.8-4.8C287,230.6,289.1,232.8,289.1,235.4z"/>
	</g>
	<g>
		
			<linearGradient id="SVGID_00000166634646490627868100000016040917833102207373_" gradientUnits="userSpaceOnUse" x1="349.03" y1="78.25" x2="349.03" y2="106.8179">
			<stop  offset="0" style="stop-color:#8E2DE2"/>
			<stop  offset="1" style="stop-color:#4A00E0"/>
		</linearGradient>
		<circle style="fill:url(#SVGID_00000166634646490627868100000016040917833102207373_);" cx="349" cy="92.9" r="14.3"/>
		
			<ellipse transform="matrix(0.9666 -0.2562 0.2562 0.9666 -12.1509 92.5369)" class="st1" cx="349" cy="92.9" rx="10.1" ry="10.1"/>
		
			<linearGradient id="SVGID_00000066516770034964990430000010953866850483901620_" gradientUnits="userSpaceOnUse" x1="349.03" y1="78.2499" x2="349.03" y2="106.818">
			<stop  offset="0" style="stop-color:#8E2DE2"/>
			<stop  offset="1" style="stop-color:#4A00E0"/>
		</linearGradient>
		<path style="fill:url(#SVGID_00000066516770034964990430000010953866850483901620_);" d="M354.5,92.9c0,3-2.5,5.5-5.5,5.5
			s-5.5-2.5-5.5-5.5c0-3,2.5-5.5,5.5-5.5S354.5,89.9,354.5,92.9z"/>
	</g>
</g>
<g>
	<g>
		
			<linearGradient id="SVGID_00000145023681961083111400000014987666225160673960_" gradientUnits="userSpaceOnUse" x1="200.2671" y1="312.2243" x2="220.2671" y2="439.7243">
			<stop  offset="0" style="stop-color:#6CBE4A"/>
			<stop  offset="1" style="stop-color:#3E863C"/>
		</linearGradient>
		<path style="fill:url(#SVGID_00000145023681961083111400000014987666225160673960_);" d="M265.6,364c-0.2-1-0.4-2-0.6-3
			c-0.3-1.3,0.4-2.5,1.6-3l5.3-2.2c1.4-0.6,2-2.1,1.4-3.5l-3.6-8.6c-0.6-1.4-2.1-2-3.5-1.5l-5.3,2.2c-1.2,0.5-2.6,0.1-3.3-1
			c-1.1-1.8-2.3-3.5-3.6-5.1c-0.8-1-0.7-2.5,0.1-3.4l3.8-4.3c1-1.1,0.9-2.8-0.2-3.8l-7-6.2c-1.1-1-2.8-0.9-3.8,0.2l-3.9,4.3
			c-0.9,1-2.3,1.2-3.4,0.5c-1.8-1.1-3.6-2.1-5.5-3c-1.2-0.6-1.7-1.9-1.4-3.1l1.6-5.5c0.4-1.4-0.4-2.9-1.8-3.3l-9-2.6
			c-1.4-0.4-2.9,0.4-3.3,1.8l-1.6,5.5c-0.4,1.2-1.5,2.1-2.8,1.9c-2.1-0.2-4.1-0.3-6.2-0.3c-1.3,0-2.4-1-2.6-2.2l-1-5.7
			c-0.2-1.5-1.6-2.4-3.1-2.2l-9.2,1.6c-1.5,0.2-2.4,1.6-2.2,3.1l1,5.7c0.2,1.3-0.5,2.5-1.7,3c-2,0.7-3.9,1.5-5.8,2.4
			c-1.2,0.6-2.6,0.2-3.3-0.9l-3.3-4.7c-0.9-1.2-2.5-1.5-3.7-0.6l-7.6,5.4c-1.2,0.9-1.5,2.5-0.6,3.7l3.3,4.7c0.7,1,0.6,2.5-0.3,3.4
			c-1.5,1.5-2.9,3-4.2,4.6c-0.8,1-2.2,1.3-3.4,0.6l-5.1-2.8c-1.3-0.7-2.9-0.2-3.6,1l-4.5,8.2c-0.7,1.3-0.2,2.9,1,3.6l5,2.8
			c1.1,0.6,1.7,2,1.2,3.2c-0.7,2-1.3,4-1.7,6c-0.3,1.3-1.5,2.1-2.7,2l-5.7-0.3c-1.5-0.1-2.7,1-2.8,2.5l-0.5,9.3
			c-0.1,1.5,1,2.7,2.5,2.8l5.8,0.3c1.3,0.1,2.4,1.1,2.5,2.4c0.1,1,0.3,2,0.4,3.1c0.2,1,0.4,2,0.6,3c0.3,1.3-0.4,2.5-1.6,3l-5.3,2.2
			c-1.4,0.6-2,2.1-1.4,3.5l3.6,8.6c0.6,1.4,2.1,2,3.5,1.4l5.3-2.2c1.2-0.5,2.6-0.1,3.3,1c1.1,1.8,2.3,3.5,3.6,5.1
			c0.8,1,0.7,2.5-0.1,3.4l-3.8,4.3c-1,1.1-0.9,2.8,0.2,3.8l7,6.2c1.1,1,2.8,0.9,3.8-0.2l3.9-4.3c0.9-1,2.3-1.2,3.4-0.5
			c1.8,1.1,3.6,2.1,5.5,3c1.2,0.6,1.7,1.9,1.4,3.1L185,433c-0.4,1.4,0.4,2.9,1.8,3.3l9,2.6c1.4,0.4,2.9-0.4,3.3-1.8l1.6-5.5
			c0.4-1.2,1.5-2.1,2.8-1.9c2.1,0.2,4.1,0.3,6.2,0.3c1.3,0,2.4,1,2.6,2.2l1,5.7c0.2,1.5,1.6,2.4,3.1,2.2l9.2-1.6
			c1.5-0.2,2.4-1.6,2.2-3.1l-1-5.7c-0.2-1.3,0.5-2.5,1.7-3c2-0.7,3.9-1.5,5.8-2.4c1.2-0.6,2.6-0.2,3.3,0.9l3.3,4.7
			c0.9,1.2,2.5,1.5,3.7,0.6l7.6-5.4c1.2-0.9,1.5-2.5,0.6-3.7l-3.3-4.7c-0.7-1-0.6-2.5,0.3-3.4c1.5-1.5,2.9-3,4.2-4.6
			c0.8-1,2.2-1.3,3.4-0.6l5.1,2.8c1.3,0.7,2.9,0.2,3.6-1l4.5-8.2c0.7-1.3,0.2-2.9-1-3.6l-5-2.8c-1.1-0.6-1.7-2-1.2-3.2
			c0.7-2,1.3-4,1.7-6c0.3-1.3,1.5-2.1,2.7-2l5.7,0.3c1.5,0.1,2.7-1,2.8-2.5l0.5-9.3c0.1-1.5-1-2.7-2.5-2.8l-5.8-0.3
			c-1.3-0.1-2.4-1.1-2.5-2.4C266,366,265.8,365,265.6,364z"/>
		
			<ellipse transform="matrix(0.5432 -0.8396 0.8396 0.5432 -217.6426 346.7714)" class="st14" cx="209.9" cy="373.4" rx="44.2" ry="44.2"/>
		
			<ellipse transform="matrix(0.4878 -0.873 0.873 0.4878 -218.4698 374.4671)" class="st1" cx="209.9" cy="373.4" rx="40.7" ry="40.7"/>
	</g>
</g>
<g>
	<g>
		
			<linearGradient id="SVGID_00000111892449877817543810000005672649441043116722_" gradientUnits="userSpaceOnUse" x1="394.4531" y1="244.1983" x2="403.4532" y2="304.4485">
			<stop  offset="0" style="stop-color:#FF839D"/>
			<stop  offset="1" style="stop-color:#F50B9A"/>
		</linearGradient>
		<path style="fill:url(#SVGID_00000111892449877817543810000005672649441043116722_);" d="M423.2,274.4c0-0.3,0-0.6,0-0.9l3.9-0.6
			c0.6-0.1,1.1-0.7,1-1.3l-0.6-4.1c-0.1-0.6-0.7-1.1-1.3-1l-3,0.4c-0.5,0.1-1.1-0.3-1.2-0.8c-0.6-1.7-1.4-3.4-2.4-4.9
			c-0.3-0.5-0.2-1.1,0.2-1.5l2.4-2.1c0.5-0.4,0.5-1.1,0.1-1.6l-2.7-3.1c-0.4-0.5-1.1-0.5-1.6-0.1l-2.5,2.2c-0.4,0.4-1,0.4-1.5,0
			c-1.4-1.1-2.9-2-4.5-2.8c-0.5-0.2-0.8-0.8-0.6-1.4l1-3.3c0.2-0.6-0.2-1.2-0.8-1.4l-4-1.2c-0.6-0.2-1.2,0.2-1.4,0.8l-1,3.4
			c-0.2,0.5-0.7,0.9-1.2,0.8c-0.9-0.1-1.7-0.2-2.6-0.2s-1.8,0.1-2.6,0.2c-0.6,0.1-1.1-0.3-1.2-0.8l-1-3.4c-0.2-0.6-0.8-1-1.4-0.8
			l-4,1.2c-0.6,0.2-1,0.8-0.8,1.4l1,3.3c0.2,0.5-0.1,1.1-0.6,1.4c-1.6,0.8-3.1,1.7-4.5,2.8c-0.4,0.3-1.1,0.3-1.5,0l-2.5-2.2
			c-0.5-0.4-1.2-0.4-1.6,0.1l-2.7,3.1c-0.4,0.5-0.4,1.2,0.1,1.6l2.4,2.1c0.4,0.4,0.5,1,0.2,1.5c-1,1.5-1.8,3.2-2.4,4.9
			c-0.2,0.5-0.7,0.9-1.2,0.8l-3-0.4c-0.6-0.1-1.2,0.3-1.3,1l-0.6,4.1c-0.1,0.6,0.3,1.2,1,1.3l3.9,0.6c0,0.3,0,0.6,0,0.9
			c0,2,0.2,3.9,0.7,5.7c0.1,0.5-0.1,1.1-0.6,1.3l-2.5,1.1c-0.6,0.3-0.8,0.9-0.6,1.5l1.7,3.8c0.3,0.6,0.9,0.8,1.5,0.6l2.3-1.1
			c0.5-0.2,1.1,0,1.4,0.4c1.1,1.6,2.3,3.1,3.7,4.4c0.4,0.4,0.5,1,0.2,1.5l-1.3,2.1c-0.3,0.5-0.2,1.2,0.3,1.6l3.5,2.3
			c0.5,0.3,1.2,0.2,1.6-0.3l1.3-2c0.3-0.5,0.9-0.6,1.4-0.4c1.8,0.8,3.7,1.4,5.6,1.7c0.6,0.1,1,0.6,1,1.1v2.3c0,0.6,0.5,1.2,1.2,1.2
			h4.2c0.6,0,1.2-0.5,1.2-1.2v-2.3c0-0.6,0.4-1,1-1.1c2-0.3,3.9-0.9,5.6-1.7c0.5-0.2,1.1-0.1,1.4,0.4l1.3,2c0.3,0.5,1.1,0.7,1.6,0.3
			l3.5-2.3c0.5-0.3,0.7-1.1,0.3-1.6l-1.3-2.1c-0.3-0.5-0.2-1.1,0.2-1.5c1.4-1.3,2.7-2.8,3.7-4.4c0.3-0.5,0.9-0.7,1.4-0.4l2.3,1.1
			c0.6,0.3,1.3,0,1.5-0.6l1.7-3.8c0.3-0.6,0-1.3-0.6-1.5l-2.5-1.1c-0.5-0.2-0.8-0.8-0.6-1.3C423,278.3,423.2,276.3,423.2,274.4z"/>
		<circle class="st16" cx="398.6" cy="274.4" r="18.3"/>
		
			<ellipse transform="matrix(0.2298 -0.9732 0.9732 0.2298 39.9913 599.2687)" class="st1" cx="398.6" cy="274.4" rx="16.3" ry="16.3"/>
	</g>
	<g>
		
			<linearGradient id="SVGID_00000060734965304907168590000003028179019394649506_" gradientUnits="userSpaceOnUse" x1="398.2425" y1="265.6428" x2="399.9092" y2="280.4761">
			<stop  offset="0" style="stop-color:#FF839D"/>
			<stop  offset="1" style="stop-color:#F50B9A"/>
		</linearGradient>
		<path style="fill:url(#SVGID_00000060734965304907168590000003028179019394649506_);" d="M401.9,268.8c0,1.8-1.5,3.3-3.3,3.3
			c-1.8,0-3.3-1.5-3.3-3.3c0-1.8,1.5-3.3,3.3-3.3C400.4,265.6,401.9,267,401.9,268.8z"/>
		
			<linearGradient id="SVGID_00000029010786070904678500000017730950659721772169_" gradientUnits="userSpaceOnUse" x1="396.8582" y1="265.7984" x2="398.5248" y2="280.6317">
			<stop  offset="0" style="stop-color:#FF839D"/>
			<stop  offset="1" style="stop-color:#F50B9A"/>
		</linearGradient>
		<path style="fill:url(#SVGID_00000029010786070904678500000017730950659721772169_);" d="M405.2,282.6H392v-2.1
			c0-3.6,3-6.6,6.6-6.6l0,0c3.6,0,6.6,3,6.6,6.6V282.6z"/>
	</g>
</g>
<g>
	
		<linearGradient id="SVGID_00000031177167377601973500000016625007455758566787_" gradientUnits="userSpaceOnUse" x1="306.1171" y1="248.9391" x2="323.6885" y2="360.1406">
		<stop  offset="0" style="stop-color:#777BB3"/>
		<stop  offset="1" style="stop-color:#000000"/>
	</linearGradient>
	<path style="fill:url(#SVGID_00000031177167377601973500000016625007455758566787_);" d="M364.9,305.3c0-0.3,0-0.5,0-0.8l5.3-0.6
		c0.6-0.1,1-0.6,0.9-1.2l-0.8-8c-0.1-0.6-0.6-1-1.2-0.9l-4.5,0.5c-0.5,0.1-1-0.3-1.1-0.8c-0.7-2.9-1.7-5.7-2.8-8.4
		c-0.2-0.5,0-1.1,0.4-1.3l4-2.3c0.5-0.3,0.7-0.9,0.4-1.4l-4-6.9c-0.3-0.5-0.9-0.7-1.4-0.4l-4.1,2.4c-0.5,0.3-1,0.1-1.4-0.3
		c-1.8-2.3-3.8-4.5-5.9-6.5c-0.4-0.4-0.5-1-0.1-1.4l2.9-3.9c0.3-0.5,0.2-1.1-0.2-1.5l-6.5-4.7c-0.5-0.3-1.1-0.2-1.5,0.2l-2.9,4
		c-0.3,0.4-0.9,0.6-1.4,0.3c-2.5-1.4-5.2-2.6-8-3.5c-0.5-0.2-0.8-0.7-0.7-1.2l1-4.9c0.1-0.6-0.2-1.1-0.8-1.3l-7.8-1.7
		c-0.6-0.1-1.1,0.2-1.3,0.8l-1,4.9c-0.1,0.5-0.6,0.9-1.1,0.8c-1.4-0.1-2.9-0.2-4.4-0.2c-1.5,0-2.9,0.1-4.4,0.2c-0.5,0-1-0.3-1.1-0.8
		l-1-4.9c-0.1-0.6-0.7-0.9-1.3-0.8l-7.8,1.7c-0.6,0.1-0.9,0.7-0.8,1.3l1,4.9c0.1,0.5-0.2,1-0.7,1.2c-2.8,0.9-5.5,2.1-8,3.5
		c-0.5,0.3-1,0.1-1.4-0.3l-2.9-4c-0.3-0.5-1-0.6-1.5-0.2l-6.5,4.7c-0.5,0.3-0.6,1-0.2,1.5l2.9,3.9c0.3,0.4,0.2,1-0.1,1.4
		c-2.2,2-4.2,4.1-5.9,6.5c-0.3,0.4-0.9,0.5-1.4,0.3l-4.1-2.4c-0.5-0.3-1.2-0.1-1.4,0.4l-4,6.9c-0.3,0.5-0.1,1.2,0.4,1.4l4,2.3
		c0.5,0.3,0.6,0.8,0.4,1.3c-1.2,2.7-2.1,5.5-2.8,8.4c-0.1,0.5-0.6,0.9-1.1,0.8l-4.5-0.5c-0.6-0.1-1.1,0.4-1.2,0.9l-0.8,8
		c-0.1,0.6,0.4,1.1,0.9,1.2l5.3,0.6c0,0.3,0,0.5,0,0.8c0,3.1,0.3,6.2,0.8,9.1c0.1,0.5-0.2,1-0.7,1.2l-4.1,1.3
		c-0.6,0.2-0.9,0.8-0.7,1.3l2.5,7.6c0.2,0.6,0.8,0.9,1.3,0.7l3.9-1.3c0.5-0.2,1.1,0.1,1.3,0.6c1.3,2.8,2.8,5.4,4.5,7.9
		c0.3,0.4,0.2,1-0.2,1.4l-3,2.7c-0.4,0.4-0.5,1.1-0.1,1.5l5.4,6c0.4,0.4,1.1,0.5,1.5,0.1l2.9-2.6c0.4-0.4,1-0.4,1.4,0
		c2.3,2,4.8,3.8,7.4,5.4c0.5,0.3,0.6,0.8,0.4,1.3l-1.6,3.5c-0.2,0.5,0,1.2,0.5,1.4l7.3,3.3c0.5,0.2,1.2,0,1.4-0.5l1.5-3.5
		c0.2-0.5,0.8-0.7,1.3-0.6c2.9,0.9,5.9,1.6,9,1.9c0.5,0.1,0.9,0.5,0.9,1v3.8c0,0.6,0.5,1.1,1.1,1.1h8c0.6,0,1.1-0.5,1.1-1.1v-3.8
		c0-0.5,0.4-1,0.9-1c3.1-0.4,6.1-1,9-1.9c0.5-0.2,1.1,0.1,1.3,0.6l1.5,3.5c0.2,0.5,0.9,0.8,1.4,0.5l7.3-3.3c0.5-0.2,0.8-0.9,0.5-1.4
		l-1.6-3.5c-0.2-0.5,0-1,0.4-1.3c2.6-1.6,5.1-3.4,7.4-5.4c0.4-0.4,1-0.4,1.4,0l2.9,2.6c0.4,0.4,1.1,0.4,1.5-0.1l5.4-6
		c0.4-0.4,0.4-1.1-0.1-1.5l-3-2.7c-0.4-0.4-0.5-0.9-0.2-1.4c1.7-2.5,3.2-5.1,4.5-7.9c0.2-0.5,0.8-0.7,1.3-0.6l3.9,1.3
		c0.6,0.2,1.2-0.1,1.3-0.7l2.5-7.6c0.2-0.6-0.1-1.1-0.7-1.3l-4.1-1.3c-0.5-0.2-0.8-0.7-0.7-1.2C364.7,311.4,364.9,308.4,364.9,305.3
		z"/>
	
		<ellipse transform="matrix(0.7071 -0.7071 0.7071 0.7071 -123.6421 312.023)" class="st14" cx="314.8" cy="305.3" rx="39.1" ry="39.1"/>
	
		<ellipse transform="matrix(0.1391 -0.9903 0.9903 0.1391 -31.252 574.574)" class="st1" cx="314.8" cy="305.3" rx="35.8" ry="35.8"/>
	<g id="PHP">
		<g id="g3440">
			<g>
				<g id="g3442">
					<g id="g3448">
						<g id="g3450">
							
								<radialGradient id="path3462_00000016757657428334447810000007278442957238682552_" cx="-1361.2733" cy="789.8743" r="8.016288e-02" gradientTransform="matrix(453.8224 0 0 -453.8224 618080.0625 358758.4062)" gradientUnits="userSpaceOnUse">
								<stop  offset="0" style="stop-color:#AEB2D5"/>
								<stop  offset="0.3" style="stop-color:#AEB2D5"/>
								<stop  offset="0.75" style="stop-color:#484C89"/>
								<stop  offset="1" style="stop-color:#484C89"/>
							</radialGradient>
							<path id="path3462" style="fill:url(#path3462_00000016757657428334447810000007278442957238682552_);" d="M287.1,305.3
								c0,8,12.4,14.6,27.7,14.6l0,0c15.3,0,27.7-6.5,27.7-14.6l0,0c0-8-12.4-14.6-27.7-14.6l0,0
								C299.5,290.7,287.1,297.2,287.1,305.3"/>
						</g>
					</g>
				</g>
			</g>
		</g>
		<g id="g3464">
			<g>
				<g id="g3466">
					<g id="g3472" transform="translate(288,27.3594)">
						<path id="path3474" class="st21" d="M26.8,291.4c14.7,0,26.6-6,26.6-13.5c0-7.5-11.9-13.5-26.6-13.5s-26.6,6-26.6,13.5
							C0.2,285.4,12.1,291.4,26.8,291.4"/>
					</g>
				</g>
			</g>
		</g>
		<g id="g3476">
			<g>
				<g id="g3478">
					<g id="g3484" transform="translate(161.7344,145.3066)">
						<path id="path3486" d="M140.4,161.6c1.2,0,2.1-0.2,2.7-0.7c0.6-0.4,1-1.2,1.2-2.2c0.2-1,0.1-1.7-0.2-2
							c-0.3-0.4-1.1-0.6-2.2-0.6h-1.9l-1.1,5.5H140.4z M134.1,168.4c-0.1,0-0.2,0-0.2-0.1c-0.1-0.1-0.1-0.2-0.1-0.2l2.8-14.6
							c0-0.1,0.2-0.2,0.3-0.2h6.1c1.9,0,3.4,0.5,4.3,1.6c0.9,1,1.2,2.5,0.8,4.3c-0.1,0.7-0.4,1.4-0.7,2c-0.3,0.6-0.8,1.2-1.4,1.7
							c-0.7,0.6-1.4,1.1-2.2,1.3c-0.8,0.3-1.8,0.4-3.1,0.4h-2.5l-0.7,3.6c0,0.1-0.2,0.2-0.3,0.2H134.1z"/>
					</g>
					<g id="g3488" transform="translate(159.2236,197.3071)">
						<path id="path3490" class="st22" d="M142.7,104.4h1.7c1.3,0,1.8,0.3,2,0.5c0.3,0.3,0.3,0.9,0.1,1.8c-0.2,1-0.5,1.7-1,2.1
							c-0.5,0.4-1.4,0.6-2.5,0.6h-1.2L142.7,104.4z M145.6,100.9h-6.1c-0.3,0-0.5,0.2-0.6,0.5L136,116c0,0.2,0,0.4,0.1,0.5
							c0.1,0.1,0.3,0.2,0.5,0.2h3.2c0.3,0,0.5-0.2,0.6-0.5l0.7-3.4h2.2c1.3,0,2.3-0.1,3.2-0.4c0.9-0.3,1.6-0.7,2.3-1.4
							c0.6-0.5,1.1-1.1,1.4-1.8c0.4-0.6,0.6-1.4,0.8-2.1c0.4-1.9,0.1-3.4-0.9-4.6C149.1,101.5,147.6,100.9,145.6,100.9 M141,109.9
							h1.9c1.3,0,2.2-0.2,2.9-0.7c0.6-0.5,1.1-1.3,1.3-2.4c0.2-1.1,0.1-1.9-0.3-2.3c-0.4-0.4-1.2-0.7-2.4-0.7h-2.2L141,109.9
							 M145.6,101.5c1.8,0,3.2,0.5,4,1.4c0.8,1,1.1,2.3,0.8,4c-0.1,0.7-0.4,1.4-0.7,2c-0.3,0.6-0.8,1.1-1.3,1.6
							c-0.6,0.6-1.3,1-2.1,1.3c-0.8,0.3-1.8,0.4-3,0.4h-2.7l-0.8,3.9h-3.2l2.8-14.6H145.6"/>
					</g>
					<g id="g3492" transform="translate(311.583,116.3066)">
						<path id="path3494" d="M5.6,193.5c-0.1,0-0.2,0-0.2-0.1c-0.1-0.1-0.1-0.2-0.1-0.2l1.3-6.5c0.1-0.6,0.1-1.1-0.1-1.2
							c-0.1-0.1-0.4-0.3-1.4-0.3H2.8l-1.6,8.1c0,0.1-0.2,0.2-0.3,0.2h-3.2c-0.1,0-0.2,0-0.2-0.1c-0.1-0.1-0.1-0.2-0.1-0.2l2.8-14.6
							c0-0.1,0.2-0.2,0.3-0.2h3.2c0.1,0,0.2,0,0.2,0.1c0.1,0.1,0.1,0.2,0.1,0.2l-0.7,3.5h2.4c1.9,0,3.1,0.3,3.9,1
							c0.8,0.7,1,1.8,0.7,3.3l-1.3,6.8c0,0.1-0.2,0.2-0.3,0.2H5.6z"/>
					</g>
					<g id="g3496" transform="translate(293.6611,271.0571)">
						<path id="path3498" class="st22" d="M21.7,23.3h-3.2c-0.3,0-0.5,0.2-0.6,0.5l-2.8,14.6c0,0.2,0,0.4,0.1,0.5
							c0.1,0.1,0.3,0.2,0.5,0.2h3.2c0.3,0,0.5-0.2,0.6-0.5l1.5-7.9h2c0.9,0,1.1,0.2,1.1,0.2c0.1,0.1,0.1,0.3,0,1l-1.3,6.5
							c0,0.2,0,0.4,0.1,0.5c0.1,0.1,0.3,0.2,0.5,0.2h3.2c0.3,0,0.5-0.2,0.6-0.5l1.3-6.8c0.3-1.6,0-2.8-0.8-3.6
							c-0.8-0.7-2.1-1.1-4.1-1.1h-2.1l0.6-3.2c0-0.2,0-0.4-0.1-0.5C22.1,23.4,21.9,23.3,21.7,23.3 M21.7,23.9L21,27.8h2.8
							c1.8,0,3,0.3,3.7,0.9c0.7,0.6,0.9,1.6,0.6,3l-1.3,6.8h-3.2l1.3-6.5c0.1-0.7,0.1-1.2-0.2-1.5c-0.2-0.3-0.8-0.4-1.6-0.4h-2.5
							l-1.6,8.4h-3.2l2.8-14.6H21.7"/>
					</g>
					<g id="g3500" transform="translate(409.5498,145.3066)">
						<path id="path3502" d="M-82.5,161.6c1.2,0,2.1-0.2,2.7-0.7c0.6-0.4,1-1.2,1.2-2.2c0.2-1,0.1-1.7-0.2-2
							c-0.3-0.4-1.1-0.6-2.2-0.6H-83l-1.1,5.5H-82.5z M-88.9,168.4c-0.1,0-0.2,0-0.2-0.1c-0.1-0.1-0.1-0.2-0.1-0.2l2.8-14.6
							c0-0.1,0.2-0.2,0.3-0.2h6.1c1.9,0,3.4,0.5,4.3,1.6c0.9,1,1.2,2.5,0.8,4.3c-0.1,0.7-0.4,1.4-0.7,2c-0.3,0.6-0.8,1.2-1.4,1.7
							c-0.7,0.6-1.4,1.1-2.2,1.3c-0.8,0.3-1.8,0.4-3.1,0.4h-2.5l-0.7,3.6c0,0.1-0.2,0.2-0.3,0.2H-88.9z"/>
					</g>
					<g id="g3504" transform="translate(407.0391,197.3071)">
						<path id="path3506" class="st22" d="M-80.3,104.4h1.7c1.3,0,1.8,0.3,2,0.5c0.3,0.3,0.3,0.9,0.1,1.8c-0.2,1-0.5,1.7-1,2.1
							c-0.5,0.4-1.4,0.6-2.5,0.6h-1.2L-80.3,104.4z M-77.4,100.9h-6.1c-0.3,0-0.5,0.2-0.6,0.5l-2.8,14.6c0,0.2,0,0.4,0.1,0.5
							c0.1,0.1,0.3,0.2,0.5,0.2h3.2c0.3,0,0.5-0.2,0.6-0.5l0.7-3.4h2.2c1.3,0,2.3-0.1,3.2-0.4c0.9-0.3,1.6-0.7,2.3-1.4
							c0.6-0.5,1.1-1.1,1.4-1.8c0.4-0.6,0.6-1.4,0.8-2.1c0.4-1.9,0.1-3.4-0.9-4.6C-73.9,101.5-75.4,100.9-77.4,100.9 M-82,109.9h1.9
							c1.3,0,2.2-0.2,2.9-0.7c0.6-0.5,1.1-1.3,1.3-2.4c0.2-1.1,0.1-1.9-0.3-2.3c-0.4-0.4-1.2-0.7-2.4-0.7h-2.2L-82,109.9
							 M-77.4,101.5c1.8,0,3.2,0.5,4,1.4c0.8,1,1.1,2.3,0.8,4c-0.1,0.7-0.4,1.4-0.7,2c-0.3,0.6-0.8,1.1-1.3,1.6
							c-0.6,0.6-1.3,1-2.1,1.3c-0.8,0.3-1.8,0.4-3,0.4h-2.7l-0.8,3.9h-3.2l2.8-14.6H-77.4"/>
					</g>
				</g>
			</g>
		</g>
	</g>
</g>
<g>
	
		<linearGradient id="SVGID_00000174582076318744816570000017635539450539758520_" gradientUnits="userSpaceOnUse" x1="282.187" y1="180.2977" x2="419.1311" y2="180.2977">
		<stop  offset="0" style="stop-color:#000000"/>
		<stop  offset="1" style="stop-color:#552500"/>
	</linearGradient>
	<path style="fill:url(#SVGID_00000174582076318744816570000017635539450539758520_);" d="M416.3,200.4l2.8-14.6
		c0.1-0.6-0.3-1.1-0.8-1.2l-12.3-2.4c-0.5-0.1-0.9-0.5-0.8-1.1c0.1-3.3-0.2-6.5-0.7-9.7c-0.1-0.5,0.2-1,0.7-1.2l11.8-4.1
		c0.6-0.2,0.8-0.8,0.7-1.3l-4.9-14.1c-0.2-0.6-0.8-0.8-1.3-0.7l-11.8,4.1c-0.5,0.2-1,0-1.3-0.5c-1.6-2.8-3.4-5.5-5.4-8
		c-0.3-0.4-0.3-1,0-1.4l8.2-9.5c0.4-0.4,0.3-1.1-0.1-1.5l-11.3-9.7c-0.4-0.4-1.1-0.3-1.5,0.1l-8.2,9.5c-0.3,0.4-0.9,0.5-1.3,0.2
		c-2.7-1.6-5.6-3.1-8.7-4.2c-0.5-0.2-0.8-0.7-0.7-1.2l2.4-12.3c0.1-0.6-0.3-1.1-0.8-1.2l-14.6-2.8c-0.6-0.1-1.1,0.3-1.2,0.8
		l-2.4,12.3c-0.1,0.5-0.5,0.9-1.1,0.8c-3.3-0.1-6.5,0.2-9.7,0.7c-0.5,0.1-1-0.2-1.2-0.7l-4.1-11.8c-0.2-0.6-0.8-0.8-1.3-0.7
		l-14.1,4.9c-0.6,0.2-0.8,0.8-0.7,1.3l4.1,11.8c0.2,0.5,0,1-0.5,1.3c-2.8,1.6-5.5,3.4-8,5.4c-0.4,0.3-1,0.3-1.4,0l-9.5-8.2
		c-0.4-0.4-1.1-0.3-1.5,0.1l-9.7,11.3c-0.4,0.4-0.3,1.1,0.1,1.5l9.5,8.2c0.4,0.3,0.5,0.9,0.2,1.3c-1.6,2.7-3.1,5.6-4.2,8.7
		c-0.2,0.5-0.7,0.8-1.2,0.7l-12.3-2.4c-0.6-0.1-1.1,0.3-1.2,0.8l-2.8,14.6c-0.1,0.6,0.3,1.1,0.8,1.2l12.3,2.4
		c0.5,0.1,0.9,0.5,0.8,1.1c-0.1,3.3,0.2,6.5,0.7,9.7c0.1,0.5-0.2,1-0.7,1.2l-11.8,4.1c-0.6,0.2-0.8,0.8-0.7,1.3l4.9,14.1
		c0.2,0.6,0.8,0.8,1.3,0.7l11.8-4.1c0.5-0.2,1,0,1.3,0.5c1.6,2.8,3.4,5.5,5.4,8c0.3,0.4,0.3,1,0,1.4l-8.2,9.5
		c-0.4,0.4-0.3,1.1,0.1,1.5l11.3,9.7c0.4,0.4,1.1,0.3,1.5-0.1l8.2-9.5c0.3-0.4,0.9-0.5,1.3-0.2c2.7,1.6,5.6,3.1,8.7,4.2
		c0.5,0.2,0.8,0.7,0.7,1.2l-2.4,12.3c-0.1,0.6,0.3,1.1,0.8,1.2l14.6,2.8c0.6,0.1,1.1-0.3,1.2-0.8l2.4-12.3c0.1-0.5,0.5-0.9,1.1-0.8
		c3.3,0.1,6.5-0.2,9.7-0.7c0.5-0.1,1,0.2,1.2,0.7l4.1,11.8c0.2,0.6,0.8,0.8,1.3,0.7l14.1-4.9c0.6-0.2,0.8-0.8,0.7-1.3l-4.1-11.8
		c-0.2-0.5,0-1,0.5-1.3c2.8-1.6,5.5-3.4,8-5.4c0.4-0.3,1-0.3,1.4,0l9.5,8.2c0.4,0.4,1.1,0.3,1.5-0.1l9.7-11.3
		c0.4-0.4,0.3-1.1-0.1-1.5l-9.5-8.2c-0.4-0.3-0.5-0.9-0.2-1.3c1.6-2.7,3.1-5.6,4.2-8.7c0.2-0.5,0.7-0.8,1.2-0.7l12.3,2.4
		C415.7,201.4,416.2,201,416.3,200.4z"/>
	
		<ellipse transform="matrix(0.5626 -0.8267 0.8267 0.5626 4.3237 368.7679)" class="st24" cx="350.7" cy="180.3" rx="41.2" ry="41.2"/>
	
		<ellipse transform="matrix(0.3247 -0.9458 0.9458 0.3247 66.2612 453.4041)" class="st1" cx="350.7" cy="180.3" rx="38.2" ry="38.2"/>
	<g>
		<path d="M350.7,152.5c-15.3,0-27.8,12.5-27.8,27.8s12.5,27.8,27.8,27.8s27.8-12.5,27.8-27.8S366,152.5,350.7,152.5z M350.6,155
			c1,0,1.8,0.8,1.8,1.8c0,1-0.8,1.8-1.8,1.8s-1.8-0.8-1.8-1.8C348.7,155.8,349.6,155,350.6,155C350.6,155,350.6,155,350.6,155z
			 M354.8,158c6.5,1.2,12.1,5.2,15.4,11l-2.2,4.9c-0.4,0.8,0,1.8,0.8,2.2l4.2,1.8c0.1,1.3,0.1,2.6,0,3.9h-2.3
			c-0.2,0-0.3,0.2-0.3,0.4v1.1c0,2.5-1.4,3-2.6,3.2c-1.2,0.1-2.5-0.5-2.6-1.2c-0.7-3.9-1.8-4.7-3.7-6.2c2.3-1.4,4.6-3.6,4.6-6.4
			c0-3.1-2.1-5-3.5-5.9c-2-1.3-4.2-1.6-4.8-1.6h-23.9c3.3-3.7,7.7-6.2,12.6-7.1l2.8,3c0.6,0.7,1.7,0.7,2.4,0.1L354.8,158z
			 M328.8,171.5c1,0,1.8,0.8,1.8,1.8c0,1-0.8,1.8-1.8,1.8c-1,0-1.8-0.8-1.8-1.8C326.9,172.3,327.7,171.5,328.8,171.5
			C328.8,171.5,328.8,171.5,328.8,171.5z M372.4,171.6c1,0,1.8,0.8,1.8,1.8c0,1-0.8,1.8-1.8,1.8s-1.8-0.8-1.8-1.8
			C370.5,172.4,371.4,171.6,372.4,171.6C372.4,171.6,372.4,171.6,372.4,171.6z M332.3,171.9h3.2v14.4H329c-0.8-2.8-1-5.7-0.7-8.6
			l3.9-1.8c0.8-0.4,1.2-1.4,0.8-2.2L332.3,171.9z M345.6,172h7.6c0.4,0,2.8,0.5,2.8,2.2c0,1.5-1.8,2-3.3,2h-7L345.6,172z
			 M345.6,182.4h5.8c0.5,0,2.8,0.2,3.6,3.1c0.2,0.9,0.7,3.9,1.1,4.8c0.3,1.1,1.8,3.2,3.3,3.2h9.5c-0.6,0.9-1.3,1.7-2.1,2.4l-3.9-0.8
			c-0.9-0.2-1.8,0.4-2,1.3l-0.9,4.3c-6,2.7-12.8,2.7-18.8-0.1l-0.9-4.3c-0.2-0.9-1.1-1.5-2-1.3l-3.8,0.8c-0.7-0.7-1.4-1.5-2-2.3
			h18.4c0.2,0,0.3,0,0.3-0.2v-6.5c0-0.2-0.1-0.2-0.3-0.2h-5.4L345.6,182.4z M337.1,197.3c1,0,1.8,0.8,1.8,1.8c0,1-0.8,1.8-1.8,1.8
			s-1.8-0.8-1.8-1.8C335.2,198.1,336,197.3,337.1,197.3C337,197.3,337.1,197.3,337.1,197.3z M364.2,197.4c1,0,1.8,0.8,1.8,1.8
			c0,1-0.8,1.8-1.8,1.8s-1.8-0.8-1.8-1.8C362.3,198.2,363.1,197.4,364.2,197.4C364.1,197.4,364.1,197.4,364.2,197.4z"/>
		<path class="st25" d="M376.9,180.3c0,14.5-11.8,26.3-26.3,26.3s-26.3-11.8-26.3-26.3l0,0c0-14.5,11.8-26.3,26.3-26.3
			S376.9,165.8,376.9,180.3C376.9,180.3,376.9,180.3,376.9,180.3z M376.4,177.8l4.1,2.5l-4.1,2.5l3.5,3.3l-4.5,1.7l2.8,3.9l-4.8,0.8
			l2,4.4l-4.8-0.2l1.1,4.7l-4.7-1.1l0.2,4.8l-4.4-2l-0.8,4.8l-3.9-2.8l-1.7,4.5l-3.3-3.5l-2.5,4.1l-2.5-4.1l-3.3,3.5l-1.7-4.5
			l-3.9,2.8l-0.8-4.8l-4.4,2l0.2-4.8l-4.7,1.1l1.1-4.7l-4.8,0.2l2-4.4l-4.8-0.8l2.8-3.9l-4.5-1.7l3.5-3.3l-4.1-2.5l4.1-2.5l-3.5-3.3
			l4.5-1.7l-2.8-3.9l4.8-0.8l-2-4.4l4.8,0.2l-1.1-4.7l4.7,1.1l-0.2-4.8l4.4,2l0.8-4.8l3.9,2.8l1.7-4.5l3.3,3.5l2.5-4.1l2.5,4.1
			l3.3-3.5l1.7,4.5l3.9-2.8l0.8,4.8l4.4-2l-0.2,4.8l4.7-1.1l-1.1,4.7l4.8-0.2l-2,4.4l4.8,0.8l-2.8,3.9l4.5,1.7L376.4,177.8z"/>
	</g>
</g>
<g>
	
		<linearGradient id="SVGID_00000172420769025716688620000005066551035641931955_" gradientUnits="userSpaceOnUse" x1="248.8507" y1="34.5735" x2="302.855" y2="128.1117">
		<stop  offset="0" style="stop-color:#FFD53E"/>
		<stop  offset="0.4232" style="stop-color:#2B5B84"/>
	</linearGradient>
	<path style="fill:url(#SVGID_00000172420769025716688620000005066551035641931955_);" d="M323.7,82c0-0.3,0-0.5,0-0.8l5.1-0.5
		c0.6-0.1,1-0.6,0.9-1.2l-0.8-7.5c-0.1-0.6-0.6-1-1.2-0.9l-4.2,0.4c-0.5,0.1-1-0.3-1.1-0.8c-0.7-2.8-1.6-5.4-2.7-8
		c-0.2-0.5,0-1.1,0.4-1.3l3.8-2.2c0.5-0.3,0.7-0.9,0.4-1.4l-3.8-6.6c-0.3-0.5-0.9-0.7-1.4-0.4l-3.9,2.2c-0.5,0.3-1,0.1-1.4-0.3
		c-1.7-2.2-3.6-4.3-5.6-6.1c-0.4-0.4-0.5-1-0.1-1.4l2.7-3.7c0.3-0.5,0.2-1.1-0.2-1.5l-6.1-4.5c-0.5-0.3-1.1-0.2-1.5,0.2l-2.7,3.8
		c-0.3,0.4-0.9,0.6-1.4,0.3c-2.4-1.3-4.9-2.4-7.6-3.3c-0.5-0.2-0.8-0.7-0.7-1.2l1-4.6c0.1-0.6-0.2-1.1-0.8-1.3l-7.4-1.6
		c-0.6-0.1-1.1,0.2-1.3,0.8l-1,4.6c-0.1,0.5-0.6,0.9-1.1,0.8c-1.4-0.1-2.7-0.2-4.1-0.2c-1.4,0-2.8,0.1-4.1,0.2c-0.5,0-1-0.3-1.1-0.8
		l-1-4.6c-0.1-0.6-0.7-0.9-1.3-0.8l-7.4,1.6c-0.6,0.1-0.9,0.7-0.8,1.3l1,4.6c0.1,0.5-0.2,1-0.7,1.2c-2.6,0.9-5.2,2-7.6,3.3
		c-0.5,0.3-1,0.1-1.4-0.3l-2.7-3.8c-0.3-0.5-1-0.6-1.5-0.2l-6.1,4.5c-0.5,0.3-0.6,1-0.2,1.5l2.7,3.7c0.3,0.4,0.2,1-0.1,1.4
		c-2.1,1.9-3.9,3.9-5.6,6.1c-0.3,0.4-0.9,0.5-1.4,0.3l-3.9-2.2c-0.5-0.3-1.2-0.1-1.4,0.4l-3.8,6.6c-0.3,0.5-0.1,1.2,0.4,1.4l3.8,2.2
		c0.5,0.3,0.6,0.8,0.4,1.3c-1.1,2.6-2,5.2-2.7,8c-0.1,0.5-0.6,0.9-1.1,0.8l-4.2-0.4c-0.6-0.1-1.1,0.4-1.2,0.9l-0.8,7.5
		c-0.1,0.6,0.4,1.1,0.9,1.2l5.1,0.5c0,0.3,0,0.5,0,0.8c0,3,0.3,5.9,0.8,8.7c0.1,0.5-0.2,1-0.7,1.2l-3.8,1.2
		c-0.6,0.2-0.9,0.8-0.7,1.3l2.3,7.2c0.2,0.6,0.8,0.9,1.3,0.7l3.7-1.2c0.5-0.2,1.1,0.1,1.3,0.6c1.2,2.6,2.6,5.2,4.3,7.5
		c0.3,0.4,0.2,1-0.2,1.4l-2.8,2.5c-0.4,0.4-0.5,1.1-0.1,1.5l5.1,5.6c0.4,0.4,1.1,0.5,1.5,0.1l2.7-2.5c0.4-0.4,1-0.4,1.4,0
		c2.2,1.9,4.5,3.7,7,5.2c0.5,0.3,0.6,0.8,0.4,1.3l-1.5,3.3c-0.2,0.5,0,1.2,0.5,1.4l6.9,3.1c0.5,0.2,1.2,0,1.4-0.5l1.5-3.3
		c0.2-0.5,0.8-0.7,1.3-0.6c2.8,0.9,5.6,1.5,8.5,1.8c0.5,0.1,0.9,0.5,0.9,1v3.5c0,0.6,0.5,1.1,1.1,1.1h7.6c0.6,0,1.1-0.5,1.1-1.1
		v-3.5c0-0.5,0.4-1,0.9-1c2.9-0.4,5.8-1,8.5-1.8c0.5-0.2,1.1,0.1,1.3,0.6l1.5,3.3c0.2,0.5,0.9,0.8,1.4,0.5l6.9-3.1
		c0.5-0.2,0.8-0.9,0.5-1.4l-1.5-3.3c-0.2-0.5,0-1,0.4-1.3c2.5-1.5,4.8-3.2,7-5.2c0.4-0.4,1-0.4,1.4,0l2.7,2.5
		c0.4,0.4,1.1,0.4,1.5-0.1l5.1-5.6c0.4-0.4,0.4-1.1-0.1-1.5l-2.8-2.5c-0.4-0.4-0.5-0.9-0.2-1.4c1.6-2.4,3.1-4.9,4.3-7.5
		c0.2-0.5,0.8-0.7,1.3-0.6l3.7,1.2c0.6,0.2,1.1-0.1,1.3-0.7l2.3-7.2c0.2-0.6-0.1-1.2-0.7-1.3l-3.8-1.2c-0.5-0.2-0.8-0.7-0.7-1.2
		C323.4,87.9,323.7,85,323.7,82z"/>
	<circle class="st14" cx="275.7" cy="82" r="37.2"/>
	<circle class="st1" cx="275.7" cy="82" r="33.9"/>
	<g>
		<g>
			
				<linearGradient id="SVGID_00000143591217704014294940000008457819583140014733_" gradientUnits="userSpaceOnUse" x1="257.4272" y1="438.1526" x2="279.674" y2="416.1276" gradientTransform="matrix(1 0 0 -1 0 502)">
				<stop  offset="0" style="stop-color:#387EB8"/>
				<stop  offset="1" style="stop-color:#366994"/>
			</linearGradient>
			<path style="fill:url(#SVGID_00000143591217704014294940000008457819583140014733_);" d="M275.5,59.7c-11.4,0-10.7,4.9-10.7,4.9
				l0,5.1h10.9v1.5h-15.2c0,0-7.3-0.8-7.3,10.7c0,11.5,6.4,11.1,6.4,11.1h3.8v-5.3c0,0-0.2-6.4,6.3-6.4h10.8c0,0,6.1,0.1,6.1-5.9
				v-9.8C286.5,65.7,287.4,59.7,275.5,59.7z M269.5,63.1c1.1,0,2,0.9,2,2c0,1.1-0.9,2-2,2c-1.1,0-2-0.9-2-2
				C267.6,64,268.5,63.1,269.5,63.1z"/>
			
				<linearGradient id="SVGID_00000134234914820066361110000001069558871136853409_" gradientUnits="userSpaceOnUse" x1="271.091" y1="424.0125" x2="294.9818" y2="401.4277" gradientTransform="matrix(1 0 0 -1 0 502)">
				<stop  offset="0" style="stop-color:#FFE052"/>
				<stop  offset="1" style="stop-color:#FFC331"/>
			</linearGradient>
			<path style="fill:url(#SVGID_00000134234914820066361110000001069558871136853409_);" d="M275.9,104.4c11.4,0,10.7-4.9,10.7-4.9
				l0-5.1h-10.9v-1.5h15.2c0,0,7.3,0.8,7.3-10.7S291.8,71,291.8,71H288v5.3c0,0,0.2,6.4-6.3,6.4h-10.8c0,0-6.1-0.1-6.1,5.9v9.8
				C264.9,98.4,263.9,104.4,275.9,104.4z M281.9,100.9c-1.1,0-2-0.9-2-2s0.9-2,2-2c1.1,0,2,0.9,2,2S282.9,100.9,281.9,100.9z"/>
		</g>
	</g>
</g>
<g id="AWS_00000032627000338121480960000013648843915841073285_">
	
		<linearGradient id="SVGID_00000106862663868360146720000012181285166331691187_" gradientUnits="userSpaceOnUse" x1="123.0156" y1="126.6195" x2="223.0602" y2="299.9017">
		<stop  offset="0" style="stop-color:#FF9900"/>
		<stop  offset="1" style="stop-color:#A66402"/>
	</linearGradient>
	<path style="fill:url(#SVGID_00000106862663868360146720000012181285166331691187_);" d="M277.2,224.7v-20.5c0-1.2-0.9-2.1-2.1-2.1
		h-15.8c-1,0-1.9-0.8-2.1-1.8c-0.9-5.3-2.3-10.4-4.1-15.3c-0.4-1,0-2.1,0.9-2.6l13.7-7.9c1-0.6,1.4-1.9,0.8-2.9l-10.3-17.8
		c-0.6-1-1.9-1.4-2.9-0.8l-13.7,7.9c-0.9,0.5-2,0.3-2.7-0.5c-3.4-4.1-7.1-7.8-11.2-11.2c-0.8-0.7-1-1.8-0.5-2.7l7.9-13.7
		c0.6-1,0.2-2.3-0.8-2.9l-17.8-10.3c-1-0.6-2.3-0.2-2.9,0.8l-7.9,13.7c-0.5,0.9-1.6,1.3-2.6,0.9c-4.9-1.8-10-3.2-15.3-4.1
		c-1-0.2-1.8-1-1.8-2.1V113c0-1.2-0.9-2.1-2.1-2.1h-20.5c-1.2,0-2.1,0.9-2.1,2.1v15.8c0,1-0.8,1.9-1.8,2.1
		c-5.3,0.9-10.4,2.3-15.3,4.1c-1,0.4-2.1,0-2.6-0.9l-7.9-13.7c-0.6-1-1.9-1.4-2.9-0.8l-17.8,10.3c-1,0.6-1.4,1.9-0.8,2.9l7.9,13.7
		c0.5,0.9,0.3,2-0.5,2.7c-4.1,3.4-7.8,7.1-11.2,11.2c-0.7,0.8-1.8,1-2.7,0.5L92.1,153c-1-0.6-2.3-0.2-2.9,0.8l-10.3,17.8
		c-0.6,1-0.2,2.3,0.8,2.9l13.7,7.9c0.9,0.5,1.3,1.6,0.9,2.6c-1.8,4.9-3.2,10-4.1,15.3c-0.2,1-1,1.8-2.1,1.8H72.3
		c-1.2,0-2.1,0.9-2.1,2.1v20.5c0,1.2,0.9,2.1,2.1,2.1h15.8c1,0,1.9,0.8,2.1,1.8c0.9,5.3,2.3,10.4,4.1,15.3c0.4,1,0,2.1-0.9,2.6
		l-13.7,7.9c-1,0.6-1.4,1.9-0.8,2.9L89.2,275c0.6,1,1.9,1.4,2.9,0.8l13.7-7.9c0.9-0.5,2-0.3,2.7,0.5c3.4,4.1,7.1,7.8,11.2,11.2
		c0.8,0.7,1,1.8,0.5,2.7l-7.9,13.7c-0.6,1-0.2,2.3,0.8,2.9l17.8,10.3c1,0.6,2.3,0.2,2.9-0.8l7.9-13.7c0.5-0.9,1.6-1.3,2.6-0.9
		c4.9,1.8,10,3.2,15.3,4.1c1,0.2,1.8,1,1.8,2.1v15.8c0,1.2,0.9,2.1,2.1,2.1H184c1.2,0,2.1-0.9,2.1-2.1V300c0-1,0.8-1.9,1.8-2.1
		c5.3-0.9,10.4-2.3,15.3-4.1c1-0.4,2.1,0,2.6,0.9l7.9,13.7c0.6,1,1.9,1.4,2.9,0.8l17.8-10.3c1-0.6,1.4-1.9,0.8-2.9l-7.9-13.7
		c-0.5-0.9-0.3-2,0.5-2.7c4.1-3.4,7.8-7.1,11.2-11.2c0.7-0.8,1.8-1,2.7-0.5l13.7,7.9c1,0.6,2.3,0.2,2.9-0.8l10.3-17.8
		c0.6-1,0.2-2.3-0.8-2.9l-13.7-7.9c-0.9-0.5-1.3-1.6-0.9-2.6c1.8-4.9,3.2-10,4.1-15.3c0.2-1,1-1.8,2.1-1.8h15.8
		C276.2,226.8,277.2,225.8,277.2,224.7z"/>
	<circle class="st14" cx="173.7" cy="214.4" r="67.9"/>
	<circle class="st1" cx="173.7" cy="214.4" r="63.9"/>
	<g>
		<g>
			<path class="st30" d="M167.5,177.2c0,0.6,0.1,1,0.2,1.3c0.1,0.3,0.3,0.7,0.5,1.1c0.1,0.1,0.1,0.2,0.1,0.3c0,0.1-0.1,0.3-0.3,0.4
				l-0.9,0.6c-0.1,0.1-0.3,0.1-0.4,0.1c-0.1,0-0.3-0.1-0.4-0.2c-0.2-0.2-0.4-0.5-0.5-0.7c-0.1-0.3-0.3-0.5-0.5-0.9
				c-1.2,1.4-2.6,2.1-4.4,2.1c-1.3,0-2.3-0.4-3-1.1c-0.7-0.7-1.1-1.7-1.1-2.9c0-1.3,0.4-2.3,1.4-3.1c0.9-0.8,2.1-1.2,3.7-1.2
				c0.5,0,1,0,1.6,0.1c0.6,0.1,1.1,0.2,1.7,0.3v-1.1c0-1.1-0.2-1.9-0.7-2.4c-0.5-0.5-1.3-0.7-2.4-0.7c-0.5,0-1.1,0.1-1.6,0.2
				c-0.6,0.1-1.1,0.3-1.6,0.5c-0.2,0.1-0.4,0.2-0.5,0.2c-0.1,0-0.2,0-0.2,0c-0.2,0-0.3-0.1-0.3-0.5v-0.7c0-0.2,0-0.4,0.1-0.5
				c0.1-0.1,0.2-0.2,0.4-0.3c0.5-0.3,1.2-0.5,1.9-0.7c0.7-0.2,1.5-0.3,2.3-0.3c1.8,0,3.1,0.4,3.9,1.2c0.8,0.8,1.2,2,1.2,3.7
				L167.5,177.2L167.5,177.2z M161.4,179.5c0.5,0,1-0.1,1.5-0.3c0.5-0.2,1-0.5,1.4-1c0.2-0.3,0.4-0.6,0.5-1c0.1-0.4,0.1-0.8,0.1-1.3
				v-0.6c-0.4-0.1-0.9-0.2-1.4-0.3c-0.5-0.1-0.9-0.1-1.4-0.1c-1,0-1.7,0.2-2.2,0.6c-0.5,0.4-0.7,1-0.7,1.7c0,0.7,0.2,1.2,0.6,1.6
				C160.2,179.3,160.7,179.5,161.4,179.5z M173.4,181.1c-0.3,0-0.4,0-0.6-0.1c-0.1-0.1-0.2-0.3-0.3-0.6l-3.5-11.6
				c-0.1-0.3-0.1-0.5-0.1-0.6c0-0.2,0.1-0.4,0.4-0.4h1.5c0.3,0,0.5,0,0.6,0.1c0.1,0.1,0.2,0.3,0.3,0.6l2.5,9.9l2.3-9.9
				c0.1-0.3,0.2-0.5,0.3-0.6c0.1-0.1,0.3-0.1,0.6-0.1h1.2c0.3,0,0.5,0,0.6,0.1c0.1,0.1,0.2,0.3,0.3,0.6l2.4,10l2.6-10
				c0.1-0.3,0.2-0.5,0.3-0.6c0.1-0.1,0.3-0.1,0.6-0.1h1.4c0.2,0,0.4,0.1,0.4,0.4c0,0.1,0,0.1,0,0.2c0,0.1,0,0.2-0.1,0.4l-3.6,11.6
				c-0.1,0.3-0.2,0.5-0.3,0.6c-0.1,0.1-0.3,0.1-0.6,0.1h-1.3c-0.3,0-0.5,0-0.6-0.1c-0.1-0.1-0.2-0.3-0.3-0.6l-2.3-9.7l-2.3,9.6
				c-0.1,0.3-0.2,0.5-0.3,0.6c-0.1,0.1-0.3,0.1-0.6,0.1H173.4z M192.7,181.5c-0.8,0-1.6-0.1-2.3-0.3s-1.3-0.4-1.7-0.6
				c-0.2-0.1-0.4-0.3-0.5-0.4c-0.1-0.1-0.1-0.3-0.1-0.4v-0.8c0-0.3,0.1-0.5,0.3-0.5c0.1,0,0.2,0,0.3,0c0.1,0,0.2,0.1,0.4,0.1
				c0.5,0.2,1.1,0.4,1.6,0.5c0.6,0.1,1.2,0.2,1.8,0.2c0.9,0,1.7-0.2,2.2-0.5c0.5-0.3,0.8-0.8,0.8-1.4c0-0.4-0.1-0.8-0.4-1
				c-0.3-0.3-0.8-0.5-1.5-0.8l-2.2-0.7c-1.1-0.3-1.9-0.9-2.4-1.5c-0.5-0.7-0.7-1.4-0.7-2.2c0-0.6,0.1-1.2,0.4-1.7
				c0.3-0.5,0.6-0.9,1.1-1.2c0.4-0.3,1-0.6,1.6-0.8c0.6-0.2,1.2-0.3,1.9-0.3c0.3,0,0.7,0,1,0.1c0.3,0,0.7,0.1,1,0.2
				c0.3,0.1,0.6,0.1,0.9,0.2c0.3,0.1,0.5,0.2,0.6,0.3c0.2,0.1,0.4,0.2,0.4,0.4c0.1,0.1,0.1,0.3,0.1,0.5v0.7c0,0.3-0.1,0.5-0.3,0.5
				c-0.1,0-0.3-0.1-0.6-0.2c-0.9-0.4-1.8-0.6-2.9-0.6c-0.9,0-1.5,0.1-2,0.4c-0.5,0.3-0.7,0.7-0.7,1.3c0,0.4,0.1,0.8,0.4,1.1
				c0.3,0.3,0.9,0.6,1.6,0.8l2.1,0.7c1.1,0.3,1.9,0.8,2.3,1.4c0.5,0.6,0.7,1.3,0.7,2.1c0,0.6-0.1,1.2-0.4,1.7
				c-0.3,0.5-0.6,1-1.1,1.3c-0.5,0.4-1,0.6-1.7,0.8C194.1,181.4,193.4,181.5,192.7,181.5z"/>
			<path class="st31" d="M195.5,188.8c-4.9,3.6-12.1,5.6-18.2,5.6c-8.6,0-16.4-3.2-22.3-8.5c-0.5-0.4,0-1,0.5-0.7
				c6.3,3.7,14.2,5.9,22.3,5.9c5.5,0,11.5-1.1,17-3.5C195.6,187.3,196.3,188.2,195.5,188.8z M197.5,186.5c-0.6-0.8-4.2-0.4-5.8-0.2
				c-0.5,0.1-0.6-0.4-0.1-0.7c2.8-2,7.4-1.4,8-0.7c0.5,0.7-0.1,5.3-2.8,7.5c-0.4,0.3-0.8,0.2-0.6-0.3
				C196.8,190.6,198.2,187.3,197.5,186.5z"/>
		</g>
		<g id="AWS">
			<g>
				<defs>
					<rect id="SVGID_00000139988956506414293010000015764044075176582070_" x="168.6" y="232.9" width="10" height="10"/>
				</defs>
				<clipPath id="SVGID_00000109740516644068437020000015613350477528250792_">
					<use xlink:href="#SVGID_00000139988956506414293010000015764044075176582070_"  style="overflow:visible;"/>
				</clipPath>
				<g style="clip-path:url(#SVGID_00000109740516644068437020000015613350477528250792_);">
					
						<linearGradient id="SVGID_00000155136100905959597930000006220999749936554660_" gradientUnits="userSpaceOnUse" x1="-397.4283" y1="490.9818" x2="-383.2869" y2="505.1232" gradientTransform="matrix(1 0 0 -1 564 736)">
						<stop  offset="0" style="stop-color:#4D27A8"/>
						<stop  offset="1" style="stop-color:#A166FF"/>
					</linearGradient>
					<path style="fill:url(#SVGID_00000155136100905959597930000006220999749936554660_);" d="M178.6,232.9h-10v10h10V232.9z"/>
					<path class="st22" d="M177,237.3v0.3h-1.2c-3.1,0-5.5-1.2-5.5-2.8c0-0.1,0-0.1,0-0.2h0.3c0,0.1,0,0.1,0,0.2
						c0,1.4,2.3,2.5,5.2,2.5H177z"/>
					<path class="st22" d="M177,237.8v0.3h-1.6c-2.6,0-4.5,0.4-5,1.1v-0.4c0.6-0.5,1.7-0.8,2.7-0.9c-1.1-0.1-2.1-0.4-2.7-0.9v-0.4
						c0.5,0.7,2.4,1.1,4.9,1.2H177z"/>
					<path class="st22" d="M177,236.7v0.3h-0.6c-2.7,0-4.6-0.9-4.6-2.2c0,0,0-0.2,0-0.2h0.3c0,0.1,0,0.2,0,0.2
						c0,1.1,1.9,1.9,4.3,1.9H177z"/>
					<path class="st22" d="M177,238.3v0.3h-1.2c-2.9,0-5.2,1.1-5.2,2.5c0,0.1,0,0.1,0,0.2h-0.3c0-0.1,0-0.1,0-0.2
						c0-1.6,2.4-2.8,5.5-2.8H177z"/>
					<path class="st22" d="M177,238.9v0.3h-0.6c-2.5,0-4.3,0.8-4.3,1.9c0,0.1,0,0.2,0,0.3h-0.3c0-0.1,0-0.3,0-0.3
						c0-1.2,1.9-2.1,4.6-2.1H177z"/>
				</g>
			</g>
			<g>
				<defs>
					<rect id="SVGID_00000039096106590318570250000008011015105041780391_" x="198.7" y="214.6" width="10" height="10"/>
				</defs>
				<clipPath id="SVGID_00000004539780798804212780000002850615657753707676_">
					<use xlink:href="#SVGID_00000039096106590318570250000008011015105041780391_"  style="overflow:visible;"/>
				</clipPath>
				<g style="clip-path:url(#SVGID_00000004539780798804212780000002850615657753707676_);">
					
						<linearGradient id="SVGID_00000153700253334054243660000013548634951985859716_" gradientUnits="userSpaceOnUse" x1="-367.3221" y1="509.3753" x2="-353.1794" y2="523.518" gradientTransform="matrix(1 0 0 -1 564 736)">
						<stop  offset="0" style="stop-color:#2E27AD"/>
						<stop  offset="1" style="stop-color:#527FFF"/>
					</linearGradient>
					<path style="fill:url(#SVGID_00000153700253334054243660000013548634951985859716_);" d="M208.7,214.6h-10v10h10V214.6z"/>
					<path class="st22" d="M205.2,218.3c0-0.4-0.8-0.6-1.5-0.6c-0.7,0-1.5,0.2-1.5,0.6c0,0,0,0,0,0.1v2.4c0,0.4,0.8,0.6,1.5,0.6
						c0.7,0,1.5-0.2,1.5-0.6L205.2,218.3L205.2,218.3z M203.7,218c0.8,0,1.2,0.2,1.2,0.3c0,0.1-0.4,0.3-1.2,0.3s-1.2-0.2-1.2-0.3
						S203,218,203.7,218z M204.9,220.8c0,0.1-0.4,0.3-1.2,0.3c-0.8,0-1.2-0.2-1.2-0.3v-0.4c0.3,0.2,0.8,0.2,1.2,0.2
						c0.4,0,0.9-0.1,1.2-0.2V220.8z M204.9,220c0,0.1-0.4,0.3-1.2,0.3s-1.2-0.2-1.2-0.3h0v-0.5c0.3,0.2,0.8,0.2,1.2,0.2
						c0.4,0,0.9-0.1,1.2-0.2L204.9,220z M204.9,219.2c0,0.1-0.4,0.3-1.2,0.3s-1.2-0.2-1.2-0.3h0v-0.5c0.3,0.2,0.8,0.2,1.2,0.2
						c0.4,0,0.9-0.1,1.2-0.2L204.9,219.2z"/>
					<path class="st22" d="M200.9,222.6h0.9v0.3h-1.2c0,0-0.1,0-0.1,0c0,0,0-0.1,0-0.1v-1.2h0.3v0.9l1-1l0.2,0.2L200.9,222.6z"/>
					<path class="st22" d="M207.1,221.6v1.2c0,0,0,0.1,0,0.1s-0.1,0-0.1,0h-1.2v-0.3h0.9l-1-1l0.2-0.2l1,1v-0.9H207.1z"/>
					<path class="st22" d="M207.1,216.4v1.2h-0.3v-0.9l-1,1l-0.2-0.2l1-1h-0.9v-0.3h1.2C207,216.2,207,216.2,207.1,216.4
						C207.1,216.3,207.1,216.3,207.1,216.4z"/>
					<path class="st22" d="M201.9,217.5l-0.2,0.2l-1-1v0.9h-0.3v-1.2c0,0,0-0.1,0-0.1c0,0,0.1,0,0.1,0h1.2v0.3h-0.9L201.9,217.5z"/>
					<path class="st22" d="M201.7,220.7c-0.8-0.3-1.3-0.7-1.3-1.2c0-0.5,0.5-0.9,1.3-1.2l0.1,0.3c-0.7,0.2-1.1,0.6-1.1,1
						c0,0.4,0.4,0.7,1.1,1L201.7,220.7z"/>
					<path class="st22" d="M205.7,220.8l-0.1-0.3c0.7-0.2,1.2-0.6,1.2-1c0-0.4-0.4-0.8-1.2-1l0.1-0.3c0.9,0.3,1.4,0.8,1.4,1.3
						S206.6,220.5,205.7,220.8z"/>
				</g>
			</g>
			<g>
				<defs>
					<rect id="SVGID_00000115502423991799819910000001074022432751366802_" x="168.6" y="214.6" width="10" height="10"/>
				</defs>
				<clipPath id="SVGID_00000080899238800333694420000017059611206857882799_">
					<use xlink:href="#SVGID_00000115502423991799819910000001074022432751366802_"  style="overflow:visible;"/>
				</clipPath>
				<g style="clip-path:url(#SVGID_00000080899238800333694420000017059611206857882799_);">
					<path class="st37" d="M178.6,214.6h-10v10h10V214.6z"/>
					<path class="st22" d="M175.3,220l-0.9,0.9c0.2,0,0.3-0.1,0.5-0.2c0,0,0.1,0.1,0.1,0.1c0,0,0,0.1,0.1,0.1c0,0.2-0.5,0.5-1.3,0.6
						c-0.2,0-0.5,0-0.7,0.1h-0.1c-1.1,0-1.9-0.4-1.9-0.7c0,0,0-0.1,0.1-0.1c0,0,0.1-0.1,0.1-0.1c0.4,0.2,1.1,0.4,1.8,0.4h0l0.1-0.3
						c0,0-0.1,0-0.1,0c-0.7,0-1.4-0.1-1.8-0.4c-0.1-0.1-0.2-0.2-0.2-0.3v-0.6c0.4,0.3,1.2,0.5,2,0.5c0.1,0,0.2,0,0.3,0l0.1-0.3
						c-0.1,0-0.3,0-0.4,0c-1.1,0-2-0.4-2-0.7c0,0,0-0.1,0.1-0.1c0,0,0.1-0.1,0.1-0.1c0.4,0.2,0.9,0.3,1.6,0.4l0-0.3
						c-0.6,0-1.2-0.2-1.5-0.4c-0.1-0.1-0.2-0.2-0.2-0.3v-0.6c0.4,0.3,1.2,0.5,2,0.5h0l0.1-0.3h-0.2c-1.1,0-2-0.4-2-0.7
						c0-0.3,0.9-0.7,2-0.7c0.4,0,0.8,0,1.1,0.1h0.7c-0.4-0.2-1.1-0.4-1.9-0.4c-1.1,0-2.3,0.3-2.3,0.9v1.1c0,0.1,0,0.2,0.1,0.2
						s0.1,0.1,0.1,0.2c-0.1,0-0.1,0.1-0.1,0.2c0,0.1-0.1,0.1-0.1,0.2v1.1c0,0.1,0,0.2,0.1,0.2s0.1,0.1,0.1,0.2
						c-0.1,0-0.1,0.1-0.1,0.2c0,0.1-0.1,0.1-0.1,0.2v1.1c0,0,0,0,0,0c0,0.6,1.2,0.9,2.3,0.9c1.1,0,2.2-0.3,2.3-0.9c0,0,0,0,0,0v-1.1
						c0-0.1,0-0.2-0.1-0.2c0-0.1-0.1-0.1-0.1-0.2c0.1,0,0.1-0.1,0.1-0.2c0-0.1,0.1-0.1,0.1-0.2V220z M175.1,222c0,0.3-0.9,0.7-2,0.7
						c-1.1,0-2-0.3-2-0.7v-0.6c0.4,0.3,1.2,0.5,2,0.5c0.8,0,1.6-0.2,2-0.5V222z"/>
					<path class="st22" d="M171.5,218.4c0.1,0,0.2-0.1,0.2-0.2c0-0.1-0.1-0.2-0.2-0.2c-0.1,0-0.2,0.1-0.2,0.2
						C171.3,218.3,171.4,218.4,171.5,218.4z"/>
					<path class="st22" d="M171.5,220.3c0.1,0,0.2-0.1,0.2-0.2c0-0.1-0.1-0.2-0.2-0.2c-0.1,0-0.2,0.1-0.2,0.2
						C171.3,220.2,171.4,220.3,171.5,220.3z"/>
					<path class="st22" d="M171.5,222.1c0.1,0,0.2-0.1,0.2-0.2c0-0.1-0.1-0.2-0.2-0.2c-0.1,0-0.2,0.1-0.2,0.2
						C171.3,222,171.4,222.1,171.5,222.1z"/>
					<path class="st22" d="M173.4,221.4C173.4,221.4,173.4,221.4,173.4,221.4c-0.1,0-0.1-0.1-0.1-0.1c0,0,0-0.1,0-0.1l0.7-2.5h-0.8
						c0,0,0,0-0.1,0s0,0,0,0c0,0,0,0,0-0.1c0,0,0,0,0-0.1l0.8-1.6c0,0,0,0,0-0.1c0,0,0,0,0.1,0h1.7c0,0,0,0,0.1,0c0,0,0,0,0,0
						c0,0,0,0,0,0.1c0,0,0,0,0,0.1l-0.3,1h0.7c0,0,0.1,0,0.1,0c0,0,0,0,0,0.1s0,0.1,0,0.1c0,0,0,0,0,0.1l-2.9,3.1
						C173.5,221.4,173.5,221.4,173.4,221.4C173.4,221.4,173.4,221.4,173.4,221.4z M173.5,218.5h0.7c0,0,0,0,0.1,0c0,0,0,0,0,0
						s0,0,0,0.1c0,0,0,0,0,0.1l-0.6,2.1l2.3-2.4h-0.6c0,0,0,0-0.1,0c0,0,0,0-0.1,0c0,0,0,0,0-0.1c0,0,0,0,0-0.1l0.3-1h-1.5
						L173.5,218.5z"/>
				</g>
			</g>
			<g>
				<defs>
					<rect id="SVGID_00000096033528534678152910000016595691654441261714_" x="168.6" y="251.3" width="10" height="10"/>
				</defs>
				<clipPath id="SVGID_00000139282768177374435140000001203886568058168984_">
					<use xlink:href="#SVGID_00000096033528534678152910000016595691654441261714_"  style="overflow:visible;"/>
				</clipPath>
				<g style="clip-path:url(#SVGID_00000139282768177374435140000001203886568058168984_);">
					
						<linearGradient id="SVGID_00000158706964858736812240000009272546877910942091_" gradientUnits="userSpaceOnUse" x1="-397.4283" y1="472.5884" x2="-383.2856" y2="486.7311" gradientTransform="matrix(1 0 0 -1 564 736)">
						<stop  offset="0" style="stop-color:#BD0816"/>
						<stop  offset="1" style="stop-color:#FF5252"/>
					</linearGradient>
					<path style="fill:url(#SVGID_00000158706964858736812240000009272546877910942091_);" d="M178.6,251.3h-10v10h10V251.3z"/>
					<path class="st22" d="M175.3,257.8l-0.2,0.2l1.6,1.6l0.2-0.2L175.3,257.8z"/>
					<path class="st22" d="M170.5,253l-0.2,0.2l1.8,1.8l0.2-0.2L170.5,253z"/>
					<path class="st22" d="M171.7,258.1l-0.9,0.9l0.2,0.2l0.9-0.9L171.7,258.1z"/>
					<path class="st22" d="M176.3,253.4l-0.9,0.9l0.2,0.2l0.9-0.9L176.3,253.4z"/>
					<path class="st22" d="M177,256.2v0.3h-0.3c0,0.6-0.2,1.2-0.6,1.7l-0.2-0.2c0.3-0.4,0.5-1,0.5-1.5h-0.3v-0.3h0.3
						c0-0.5-0.2-1.1-0.5-1.5l0.2-0.2c0.4,0.5,0.6,1.1,0.6,1.7H177z"/>
					<path class="st22" d="M175.4,253.9l-0.2,0.2c-0.4-0.3-1-0.5-1.5-0.5v0.3h-0.3v-0.3c-0.5,0-1.1,0.2-1.5,0.5l-0.2-0.2
						c0.5-0.4,1.1-0.6,1.7-0.6V253h0.3v0.3C174.4,253.3,175,253.5,175.4,253.9z"/>
					<path class="st22" d="M175.4,258.8c-0.5,0.4-1.1,0.6-1.7,0.6v0.3h-0.3v-0.3c-0.6,0-1.2-0.2-1.7-0.6l0.2-0.2
						c0.4,0.3,1,0.5,1.5,0.5v-0.3h0.3v0.3c0.5,0,1.1-0.2,1.5-0.5L175.4,258.8z"/>
					<path class="st22" d="M170.8,256.5c0,0.5,0.2,1.1,0.5,1.5l-0.2,0.2c-0.4-0.5-0.6-1.1-0.6-1.7h-0.3v-0.3h0.3
						c0-0.6,0.2-1.2,0.6-1.7l0.2,0.2c-0.3,0.4-0.5,1-0.5,1.5h0.3v0.3H170.8z"/>
					<path class="st22" d="M174.8,255.5C174.8,255.5,174.8,255.5,174.8,255.5c-0.1,0-0.1,0-0.1,0c0,0,0,0,0,0c0,0,0,0,0,0.1
						c0,0.1,0,0.2,0,0.2c0-0.3-0.1-0.6-0.3-0.9s-0.4-0.5-0.7-0.6c-0.2-0.1-0.4-0.2-0.6-0.3c0,0-0.1,0-0.1,0c0,0,0,0-0.1,0.1
						c0,0,0,0.1,0,0.1c0,0,0,0.1,0,0.1c0.1,0.1,0.2,0.3,0.3,0.5c0.1,0.2,0.1,0.4,0,0.6c-0.2-0.2-0.4-0.4-0.7-0.4c0,0,0,0-0.1,0
						c0,0,0,0,0,0c0,0,0,0,0,0.1c0,0,0,0,0,0.1c0.1,0.2,0.2,0.8,0,1.1c0,0,0,0,0,0.1c-0.1,0.3-0.2,0.6-0.1,0.9
						c0.1,0.3,0.2,0.6,0.5,0.7c0.3,0.2,0.5,0.3,0.8,0.4c0,0,0,0,0,0h0c0.2,0,1.4-0.2,1.6-1.1C175.6,255.9,174.9,255.5,174.8,255.5z
						 M173.4,258c-0.2-0.1-0.4-0.2-0.5-0.3c-0.2-0.1-0.3-0.3-0.4-0.6s0-0.5,0.1-0.7l0-0.1c0.2-0.4,0.2-0.8,0.1-1.1
						c0.2,0.1,0.3,0.3,0.4,0.5c0,0,0,0,0.1,0.1c0,0,0,0,0.1,0c0,0,0.1,0,0.1,0c0,0,0,0,0-0.1c0.1-0.2,0.1-0.4,0.1-0.6
						c0-0.2-0.1-0.4-0.2-0.6c0.2,0.1,0.3,0.2,0.4,0.4c0.2,0.4,0.1,0.9-0.1,1.4C173.3,256.8,173.2,257.4,173.4,258z M175,257.1
						c-0.2,0.7-1,0.9-1.3,0.9c-0.1-0.3-0.2-1,0.1-1.6c0.2-0.4,0.3-0.9,0.2-1.4c0.2,0.3,0.4,0.7,0.3,1.4c0,0,0,0.1,0,0.1
						c0,0,0,0,0.1,0.1c0,0,0.1,0,0.1,0s0.1,0,0.1,0c0.2-0.2,0.3-0.4,0.3-0.6C175,256.1,175.1,256.4,175,257.1L175,257.1z"/>
				</g>
			</g>
			<g>
				<defs>
					<rect id="SVGID_00000065038607990347009030000000477578853619509401_" x="198.7" y="232.9" width="10" height="10"/>
				</defs>
				<clipPath id="SVGID_00000079478163980813244560000002732284438813929376_">
					<use xlink:href="#SVGID_00000065038607990347009030000000477578853619509401_"  style="overflow:visible;"/>
				</clipPath>
				<g style="clip-path:url(#SVGID_00000079478163980813244560000002732284438813929376_);">
					
						<linearGradient id="SVGID_00000084495877282411798290000012793991106782466472_" gradientUnits="userSpaceOnUse" x1="-367.3221" y1="490.9818" x2="-353.1807" y2="505.1232" gradientTransform="matrix(1 0 0 -1 564 736)">
						<stop  offset="0" style="stop-color:#4D27A8"/>
						<stop  offset="1" style="stop-color:#A166FF"/>
					</linearGradient>
					<path style="fill:url(#SVGID_00000084495877282411798290000012793991106782466472_);" d="M208.7,232.9h-10v10h10V232.9z"/>
					<path class="st22" d="M203.2,237.5v-1.2h0.2v0.5l0.3-0.5h0.3l-0.4,0.6l0.4,0.6h-0.3l-0.3-0.6v0.6H203.2z"/>
					<path class="st22" d="M205.5,237.4c-0.1,0-0.1,0-0.2,0l-1.3-2c0.1-0.1,0.1-0.2,0.1-0.3c0-0.1,0-0.2-0.1-0.3s-0.1-0.2-0.2-0.2
						c-0.1-0.1-0.2-0.1-0.3-0.1c-0.1,0-0.2,0-0.3,0.1c-0.1,0.1-0.2,0.1-0.2,0.2c0,0.1-0.1,0.2-0.1,0.3c0,0.1,0,0.2,0.1,0.3l-1.3,2
						c-0.1,0-0.1,0-0.2,0c-0.1,0-0.2,0-0.3,0.1c-0.1,0.1-0.2,0.1-0.2,0.2s-0.1,0.2-0.1,0.3c0,0.1,0,0.2,0.1,0.3
						c0.1,0.1,0.1,0.1,0.2,0.2c0.1,0,0.2,0,0.3,0c0.1,0,0.2-0.1,0.3-0.1c0.1-0.1,0.1-0.2,0.1-0.3h2.8c0,0.1,0.1,0.2,0.1,0.3
						c0.1,0.1,0.2,0.1,0.3,0.1s0.2,0,0.3,0c0.1,0,0.2-0.1,0.2-0.2c0.1-0.1,0.1-0.2,0.1-0.3c0-0.1,0-0.2-0.1-0.3s-0.1-0.2-0.2-0.2
						C205.7,237.4,205.6,237.4,205.5,237.4z M201.7,238.2c-0.1,0-0.1,0-0.1,0c0,0-0.1-0.1-0.1-0.1c0,0,0-0.1,0-0.2
						c0-0.1,0-0.1,0.1-0.1c0,0,0.1-0.1,0.1-0.1c0.1,0,0.1,0,0.2,0c0,0,0.1,0.1,0.1,0.1c0,0,0,0.1,0,0.1c0,0.1,0,0.1-0.1,0.2
						C201.8,238.2,201.7,238.2,201.7,238.2z M203.6,234.9c0.1,0,0.1,0,0.1,0c0,0,0.1,0.1,0.1,0.1c0,0,0,0.1,0,0.2
						c0,0.1,0,0.1-0.1,0.1s-0.1,0.1-0.1,0.1s-0.1,0-0.2,0c0,0-0.1-0.1-0.1-0.1c0,0,0-0.1,0-0.1c0-0.1,0-0.1,0.1-0.2
						C203.5,234.9,203.5,234.9,203.6,234.9z M205,237.8h-2.8c0-0.1-0.1-0.1-0.1-0.2l1.3-2c0.1,0,0.1,0,0.2,0c0.1,0,0.2,0,0.2,0
						l1.3,2C205.1,237.7,205,237.7,205,237.8L205,237.8z M205.5,238.2c-0.1,0-0.1,0-0.1,0s-0.1-0.1-0.1-0.1c0,0,0-0.1,0-0.2
						s0-0.1,0.1-0.1c0,0,0.1-0.1,0.1-0.1c0.1,0,0.1,0,0.2,0c0,0,0.1,0.1,0.1,0.1s0,0.1,0,0.1c0,0.1,0,0.1-0.1,0.2
						C205.7,238.2,205.6,238.2,205.5,238.2z"/>
					<path class="st22" d="M207.1,239.9L207.1,239.9c-0.2,0.2-0.4,0.2-0.6,0.2c-0.2,0-0.4-0.1-0.5-0.2l-0.2-0.2
						c-0.2-0.2-0.4-0.2-0.7-0.2c-0.2,0-0.5,0.1-0.7,0.2l-0.2,0.2c-0.1,0.1-0.3,0.2-0.5,0.2c-0.2,0-0.4-0.1-0.5-0.2l-0.2-0.2
						c-0.2-0.2-0.4-0.2-0.7-0.2c-0.2,0-0.5,0.1-0.7,0.2l-0.2,0.2c-0.1,0.1-0.3,0.2-0.5,0.2c-0.2,0-0.4-0.1-0.5-0.2l-0.1-0.1v0.3
						c0.2,0.1,0.4,0.2,0.6,0.2s0.4-0.1,0.6-0.2l0.2-0.2c0.1-0.1,0.3-0.2,0.5-0.2c0.2,0,0.4,0.1,0.5,0.2l0.2,0.2
						c0.2,0.2,0.4,0.2,0.7,0.2c0.2,0,0.5-0.1,0.7-0.2l0.2-0.2c0.1-0.1,0.3-0.2,0.5-0.2s0.4,0.1,0.5,0.2l0.2,0.2
						c0.2,0.2,0.4,0.2,0.7,0.2c0.2,0,0.4-0.1,0.6-0.2V239.9L207.1,239.9z"/>
					<path class="st22" d="M207.1,240.8L207.1,240.8c-0.2,0.2-0.4,0.2-0.6,0.2c-0.2,0-0.4-0.1-0.5-0.2l-0.2-0.2
						c-0.2-0.2-0.4-0.2-0.7-0.2c-0.2,0-0.5,0.1-0.7,0.2l-0.2,0.2c-0.1,0.1-0.3,0.2-0.5,0.2c-0.2,0-0.4-0.1-0.5-0.2l-0.2-0.2
						c-0.2-0.2-0.4-0.2-0.7-0.2c-0.2,0-0.5,0.1-0.7,0.2l-0.2,0.2c-0.1,0.1-0.3,0.2-0.5,0.2c-0.2,0-0.4-0.1-0.5-0.2l-0.1-0.1v0.3
						c0.2,0.1,0.4,0.2,0.6,0.2c0.2,0,0.4-0.1,0.6-0.2l0.2-0.2c0.1-0.1,0.3-0.2,0.5-0.2c0.2,0,0.4,0.1,0.5,0.2l0.2,0.2
						c0.2,0.2,0.4,0.2,0.7,0.2c0.2,0,0.5-0.1,0.7-0.2l0.2-0.2c0.1-0.1,0.3-0.2,0.5-0.2s0.4,0.1,0.5,0.2l0.2,0.2
						c0.2,0.2,0.4,0.2,0.7,0.2c0.2,0,0.4-0.1,0.6-0.2V240.8L207.1,240.8z"/>
					<path class="st22" d="M207.1,239L207.1,239c-0.2,0.2-0.4,0.2-0.6,0.2c-0.2,0-0.4-0.1-0.5-0.2l-0.2-0.2
						c-0.2-0.2-0.4-0.2-0.7-0.2c-0.2,0-0.5,0.1-0.7,0.2l-0.2,0.2c-0.1,0.1-0.3,0.2-0.5,0.2s-0.4-0.1-0.5-0.2l-0.2-0.2
						c-0.2-0.2-0.4-0.2-0.7-0.2c-0.2,0-0.5,0.1-0.7,0.2l-0.2,0.2c-0.1,0.1-0.3,0.2-0.5,0.2c-0.2,0-0.4-0.1-0.5-0.2l-0.1-0.1v0.3
						c0.2,0.1,0.4,0.2,0.6,0.2s0.4-0.1,0.6-0.2l0.2-0.2c0.1-0.1,0.3-0.2,0.5-0.2c0.2,0,0.4,0.1,0.5,0.2l0.2,0.2
						c0.2,0.2,0.4,0.2,0.7,0.2s0.5-0.1,0.7-0.2l0.2-0.2c0.1-0.1,0.3-0.2,0.5-0.2s0.4,0.1,0.5,0.2l0.2,0.2c0.2,0.2,0.4,0.2,0.7,0.2
						c0.2,0,0.4-0.1,0.6-0.2V239L207.1,239z"/>
				</g>
			</g>
			<g>
				<defs>
					<rect id="SVGID_00000027588451785157662680000007308905470273373589_" x="198.7" y="251.3" width="10" height="10"/>
				</defs>
				<clipPath id="SVGID_00000054255551832060876010000008041467615202130059_">
					<use xlink:href="#SVGID_00000027588451785157662680000007308905470273373589_"  style="overflow:visible;"/>
				</clipPath>
				<g style="clip-path:url(#SVGID_00000054255551832060876010000008041467615202130059_);">
					
						<linearGradient id="SVGID_00000078766546059652124890000007913557828904063380_" gradientUnits="userSpaceOnUse" x1="-367.3221" y1="472.5884" x2="-353.1807" y2="486.7298" gradientTransform="matrix(1 0 0 -1 564 736)">
						<stop  offset="0" style="stop-color:#B0084D"/>
						<stop  offset="1" style="stop-color:#FF4F8B"/>
					</linearGradient>
					<path style="fill:url(#SVGID_00000078766546059652124890000007913557828904063380_);" d="M208.7,251.3h-10v10h10V251.3z"/>
					<path class="st22" d="M202.9,257.7h-1.5c-0.1,0-0.3,0-0.4-0.1c-0.2-0.1-0.4-0.3-0.5-0.5c-0.1-0.2-0.2-0.4-0.2-0.7
						c0-0.3,0.1-0.5,0.2-0.8c0.2-0.2,0.4-0.4,0.6-0.5c0,0,0-0.1,0-0.1c0-0.3,0.1-0.7,0.3-1c0.2-0.3,0.4-0.5,0.7-0.7
						c0.3-0.1,0.7-0.2,1-0.1c0.4,0.1,0.7,0.2,0.9,0.5c0.2,0.2,0.3,0.4,0.4,0.6c0.1-0.1,0.3-0.2,0.5-0.2c0.4,0,0.8,0.3,0.8,0.9
						c0.3,0.1,1,0.4,1,1.3c0,0.2,0,0.5-0.2,0.7s-0.3,0.4-0.5,0.5l-0.1-0.2c0.2-0.1,0.3-0.2,0.4-0.4c0.1-0.2,0.1-0.3,0.1-0.5
						c0-0.8-0.6-1-0.9-1c0,0,0,0,0,0c0,0,0,0,0,0c0,0,0-0.1,0-0.1c0-0.5-0.3-0.7-0.6-0.7c-0.1,0-0.2,0-0.2,0.1s-0.1,0.1-0.2,0.2
						c0,0,0,0-0.1,0c0,0,0,0-0.1,0c0,0,0,0-0.1,0s0,0,0-0.1c-0.1-0.3-0.2-0.5-0.4-0.7c-0.2-0.2-0.5-0.4-0.8-0.4
						c-0.3-0.1-0.6,0-0.9,0.1c-0.3,0.1-0.5,0.3-0.6,0.6s-0.2,0.5-0.3,0.8c0,0.1,0,0.1,0,0.2c0,0,0,0.1,0,0.1c0,0,0,0-0.1,0.1
						c-0.2,0-0.4,0.2-0.6,0.4c-0.1,0.2-0.2,0.4-0.2,0.6c0,0.2,0,0.4,0.1,0.6c0.1,0.2,0.2,0.3,0.4,0.4c0.1,0.1,0.2,0.1,0.3,0.1h1.5
						V257.7z"/>
					<path class="st22" d="M206.9,258.5l-0.9-1c0.1-0.3,0.2-0.6,0.1-1c-0.1-0.3-0.3-0.6-0.6-0.8c-0.3-0.2-0.6-0.3-0.9-0.2
						s-0.6,0.2-0.9,0.4c-0.2,0.2-0.4,0.6-0.4,0.9s0.1,0.7,0.3,0.9s0.5,0.5,0.8,0.5c0.3,0.1,0.7,0,1-0.1l0.9,0.9
						c0.1,0.1,0.2,0.1,0.3,0.1c0.1,0,0.1,0,0.2,0c0.1,0,0.1-0.1,0.2-0.1c0,0,0.1-0.1,0.1-0.2c0-0.1,0-0.1,0-0.2s0-0.1,0-0.2
						C207,258.6,207,258.6,206.9,258.5z M204.7,258.2c-0.2,0-0.4-0.1-0.6-0.2c-0.2-0.1-0.3-0.3-0.4-0.5s-0.1-0.4-0.1-0.7
						c0-0.2,0.2-0.4,0.3-0.6c0.2-0.2,0.4-0.3,0.6-0.3c0.2,0,0.5,0,0.7,0.1c0.2,0.1,0.4,0.2,0.5,0.4c0.1,0.2,0.2,0.4,0.2,0.6
						c0,0.3-0.1,0.6-0.3,0.8C205.3,258,205,258.2,204.7,258.2z M206.7,259c0,0-0.1,0.1-0.1,0.1s-0.1,0-0.1-0.1l-0.9-0.9
						c0.1-0.1,0.2-0.2,0.3-0.3l0.9,0.9c0,0,0.1,0.1,0.1,0.1C206.8,258.9,206.8,259,206.7,259z"/>
					<path class="st22" d="M205.1,256.4l-0.2,0.2c-0.1-0.1-0.2-0.1-0.2-0.1c-0.1,0-0.2,0-0.3,0.1s-0.1,0.1-0.2,0.2
						c0,0.1-0.1,0.2,0,0.3c0,0.1,0,0.1,0.1,0.2c0,0.1,0.1,0.1,0.1,0.1l-0.2,0.2c-0.1-0.1-0.2-0.3-0.3-0.5c0-0.2,0-0.4,0.1-0.5
						c0.1-0.2,0.3-0.3,0.5-0.3C204.7,256.2,204.9,256.3,205.1,256.4L205.1,256.4z"/>
				</g>
			</g>
			<g>
				<defs>
					<rect id="SVGID_00000066478461118786144880000009970915931475955092_" x="138.6" y="196.2" width="10" height="10"/>
				</defs>
				<clipPath id="SVGID_00000124879101409739210840000015850326239080857253_">
					<use xlink:href="#SVGID_00000066478461118786144880000009970915931475955092_"  style="overflow:visible;"/>
				</clipPath>
				<g style="clip-path:url(#SVGID_00000124879101409739210840000015850326239080857253_);">
					
						<linearGradient id="SVGID_00000052811579540887562170000000591851073817292674_" gradientUnits="userSpaceOnUse" x1="-427.4286" y1="527.7686" x2="-413.2864" y2="541.9107" gradientTransform="matrix(1 0 0 -1 564 736)">
						<stop  offset="0" style="stop-color:#C8511B"/>
						<stop  offset="1" style="stop-color:#FF9900"/>
					</linearGradient>
					<path style="fill:url(#SVGID_00000052811579540887562170000000591851073817292674_);" d="M148.6,196.2h-10v10h10V196.2z"/>
					<path class="st22" d="M143.6,204.8C143.6,204.8,143.6,204.7,143.6,204.8l-3.1-1.8c0,0,0,0-0.1-0.1s0,0,0-0.1v-3.5
						c0,0,0,0,0-0.1s0,0,0.1-0.1l2.8-1.6c0,0,0,0,0.1,0s0.1,0,0.1,0c0,0,0,0,0.1,0.1s0,0,0,0.1v1.5c0,0,0,0,0,0.1c0,0,0,0,0,0.1
						l-1.4,0.8v1.9l1.6,0.9l1.4-0.8c0,0,0,0,0.1,0c0,0,0,0,0.1,0l1.3,0.8c0,0,0,0,0.1,0.1s0,0,0,0.1c0,0,0,0,0,0.1c0,0,0,0-0.1,0.1
						L143.6,204.8C143.7,204.7,143.6,204.8,143.6,204.8z M140.7,202.8l3,1.7l2.6-1.5l-1.1-0.6l-1.4,0.8c0,0,0,0-0.1,0
						c0,0-0.1,0-0.1,0l-1.8-1c0,0,0,0-0.1-0.1c0,0,0,0,0-0.1v-2c0,0,0,0,0-0.1c0,0,0,0,0.1-0.1l1.4-0.8v-1.2l-2.5,1.5L140.7,202.8z"
						/>
					<path class="st22" d="M146.7,202.7C146.7,202.7,146.7,202.7,146.7,202.7l-1.4-0.8c0,0,0,0-0.1-0.1c0,0,0,0,0-0.1v-1.6l-1.4-0.8
						c0,0,0,0-0.1-0.1c0,0,0,0,0-0.1v-1.5c0,0,0,0,0-0.1c0,0,0,0,0.1-0.1c0,0,0,0,0.1,0s0,0,0.1,0l2.8,1.6c0,0,0,0,0.1,0.1
						c0,0,0,0,0,0.1v3.2c0,0,0,0,0,0.1C146.8,202.6,146.8,202.7,146.7,202.7C146.8,202.7,146.7,202.7,146.7,202.7z M145.5,201.7
						l1.1,0.6v-2.9l-2.5-1.5v1.2l1.4,0.8c0,0,0,0,0.1,0.1c0,0,0,0,0,0.1L145.5,201.7z"/>
				</g>
			</g>
			<g>
				<defs>
					<rect id="SVGID_00000016065578419607283690000013772976322218180506_" x="138.6" y="214.6" width="10" height="10"/>
				</defs>
				<clipPath id="SVGID_00000157302913989624594150000009527567278860881589_">
					<use xlink:href="#SVGID_00000016065578419607283690000013772976322218180506_"  style="overflow:visible;"/>
				</clipPath>
				<g style="clip-path:url(#SVGID_00000157302913989624594150000009527567278860881589_);">
					<path class="st37" d="M148.6,214.6h-10v10h10V214.6z"/>
					<path class="st22" d="M143.6,222.9c-1.1,0-2.3-0.3-2.3-0.9v-4.8h0.3v4.8c0,0.3,0.8,0.6,2,0.6c1.2,0,2-0.4,2-0.6v-4.8h0.3v4.8
						C145.9,222.6,144.7,222.9,143.6,222.9z"/>
					<path class="st22" d="M143.6,222.9c-1.1,0-2.3-0.3-2.3-0.9v-4.8h0.3v4.8c0,0.3,0.8,0.6,2,0.6c1.2,0,2-0.4,2-0.6v-4.8h0.3v4.8
						C145.9,222.6,144.7,222.9,143.6,222.9z"/>
					<path class="st22" d="M143.6,218c-1.1,0-2.3-0.3-2.3-0.9c0-0.6,1.2-0.9,2.3-0.9s2.3,0.3,2.3,0.9
						C145.9,217.7,144.7,218,143.6,218z M143.6,216.5c-1.2,0-2,0.4-2,0.6c0,0.3,0.8,0.6,2,0.6c1.2,0,2-0.4,2-0.6
						C145.6,216.9,144.9,216.5,143.6,216.5z"/>
					<path class="st22" d="M143.3,219.8l-0.1,0.3l0.8,0.2l0.1-0.3L143.3,219.8z"/>
					<path class="st22" d="M144.7,219l-0.3,0.8l0.2,0.1l0.3-0.8L144.7,219z"/>
					<path class="st22" d="M142.7,220.1l-0.3,0.6l0.2,0.1l0.3-0.6L142.7,220.1z"/>
					<path class="st22" d="M142.4,221.6c-0.1,0-0.2,0-0.3-0.1s-0.1-0.1-0.2-0.2c0-0.1,0-0.2,0-0.3c0-0.1,0.1-0.2,0.1-0.2
						c0.1-0.1,0.1-0.1,0.2-0.1c0.1,0,0.2,0,0.3,0c0.1,0,0.2,0.1,0.2,0.2c0.1,0.1,0.1,0.2,0.1,0.3c0,0.1,0,0.2-0.1,0.3
						C142.6,221.5,142.5,221.6,142.4,221.6z M142.4,220.9c0,0-0.1,0-0.1,0c0,0-0.1,0.1-0.1,0.1s0,0.1,0,0.1c0,0,0,0.1,0.1,0.1
						s0.1,0,0.1,0.1c0,0,0.1,0,0.1,0s0.1,0,0.1-0.1c0,0,0-0.1,0-0.1c0-0.1,0-0.1-0.1-0.1C142.5,220.9,142.4,220.9,142.4,220.9z"/>
					<path class="st22" d="M142.9,220.3c-0.1,0-0.2,0-0.3-0.1c-0.1-0.1-0.1-0.1-0.2-0.2c0-0.1,0-0.2,0-0.3c0-0.1,0.1-0.2,0.1-0.2
						c0.1-0.1,0.1-0.1,0.2-0.1c0.1,0,0.2,0,0.3,0c0.1,0,0.2,0.1,0.2,0.2c0.1,0.1,0.1,0.2,0.1,0.3c0,0.1,0,0.2-0.1,0.3
						C143.2,220.3,143,220.3,142.9,220.3z M142.9,219.7c0,0-0.1,0-0.1,0c0,0-0.1,0.1-0.1,0.1s0,0.1,0,0.1c0,0,0,0.1,0.1,0.1
						s0.1,0,0.1,0.1c0,0,0.1,0,0.1,0c0,0,0.1,0,0.1-0.1c0,0,0-0.1,0-0.1c0-0.1,0-0.1-0.1-0.1C143,219.7,143,219.7,142.9,219.7z"/>
					<path class="st22" d="M144.4,220.6c-0.1,0-0.2,0-0.3-0.1c-0.1-0.1-0.1-0.1-0.2-0.2c0-0.1,0-0.2,0-0.3c0-0.1,0.1-0.2,0.1-0.2
						c0.1-0.1,0.1-0.1,0.2-0.1c0.1,0,0.2,0,0.3,0c0.1,0,0.2,0.1,0.2,0.2c0.1,0.1,0.1,0.2,0.1,0.3c0,0.1,0,0.2-0.1,0.3
						S144.5,220.6,144.4,220.6z M144.4,220c0,0-0.1,0-0.1,0c0,0-0.1,0.1-0.1,0.1c0,0,0,0.1,0,0.1c0,0,0,0.1,0.1,0.1s0.1,0,0.1,0.1
						c0,0,0.1,0,0.1,0s0.1,0,0.1-0.1c0,0,0-0.1,0-0.1c0-0.1,0-0.1-0.1-0.1C144.5,220,144.4,220,144.4,220z"/>
					<path class="st22" d="M144.9,219.2c-0.1,0-0.2,0-0.3-0.1c-0.1-0.1-0.1-0.1-0.2-0.2c0-0.1,0-0.2,0-0.3c0-0.1,0.1-0.2,0.1-0.2
						c0.1-0.1,0.1-0.1,0.2-0.1c0.1,0,0.2,0,0.3,0c0.1,0,0.2,0.1,0.2,0.2c0.1,0.1,0.1,0.2,0.1,0.3v0c0,0.1-0.1,0.2-0.1,0.3
						C145.1,219.2,145,219.2,144.9,219.2z M144.9,218.6c0,0-0.1,0-0.1,0s-0.1,0.1-0.1,0.1c0,0,0,0.1,0,0.1c0,0,0,0.1,0.1,0.1
						c0,0,0.1,0,0.1,0.1c0,0,0.1,0,0.1,0c0,0,0.1,0,0.1-0.1s0-0.1,0-0.1c0,0,0-0.1,0-0.1s0,0,0-0.1C145,218.6,145,218.6,144.9,218.6
						C145,218.6,144.9,218.6,144.9,218.6z"/>
				</g>
			</g>
			<g>
				<defs>
					<rect id="SVGID_00000123417651935395284510000018294116439574381700_" x="138.6" y="232.9" width="10" height="10"/>
				</defs>
				<clipPath id="SVGID_00000031894293473539297820000012531401137767725728_">
					<use xlink:href="#SVGID_00000123417651935395284510000018294116439574381700_"  style="overflow:visible;"/>
				</clipPath>
				<g style="clip-path:url(#SVGID_00000031894293473539297820000012531401137767725728_);">
					<path class="st48" d="M148.6,232.9h-10v10h10V232.9z"/>
					<path class="st22" d="M146.7,241.3h-1.6c0,0,0,0-0.1,0c0,0,0,0,0-0.1l-2.3-4.9h-1c0,0-0.1,0-0.1,0c0,0,0-0.1,0-0.1v-1.5
						c0,0,0-0.1,0-0.1c0,0,0.1,0,0.1,0h2.1c0,0,0,0,0.1,0c0,0,0,0,0,0.1l2.3,4.9h0.6c0,0,0.1,0,0.1,0c0,0,0,0.1,0,0.1v1.5
						C146.8,241.2,146.8,241.2,146.7,241.3C146.8,241.3,146.7,241.3,146.7,241.3z M145.2,241h1.4v-1.2H146c0,0,0,0-0.1,0
						c0,0,0,0,0-0.1l-2.3-4.9h-1.8v1.2h0.9c0,0,0,0,0.1,0c0,0,0,0,0,0.1L145.2,241z"/>
					<path class="st22" d="M142.3,241.3h-1.7c0,0,0,0-0.1,0c0,0,0,0,0,0c0,0,0,0,0-0.1s0,0,0-0.1l1.8-3.8c0,0,0,0,0-0.1
						c0,0,0,0,0.1,0c0,0,0,0,0.1,0s0,0,0,0.1l0.9,1.8c0,0,0,0,0,0.1s0,0,0,0.1l-0.9,2C142.4,241.2,142.4,241.2,142.3,241.3
						C142.4,241.3,142.3,241.3,142.3,241.3z M140.8,241h1.4l0.9-1.9l-0.7-1.5L140.8,241z"/>
				</g>
			</g>
			<g>
				<defs>
					<rect id="SVGID_00000023978332131059567460000009491877475363778952_" x="138.6" y="251.3" width="10" height="10"/>
				</defs>
				<clipPath id="SVGID_00000126281217438105425410000007212019283220293525_">
					<use xlink:href="#SVGID_00000023978332131059567460000009491877475363778952_"  style="overflow:visible;"/>
				</clipPath>
				<g style="clip-path:url(#SVGID_00000126281217438105425410000007212019283220293525_);">
					
						<linearGradient id="SVGID_00000000931522566067780240000000872105732121769406_" gradientUnits="userSpaceOnUse" x1="-427.4286" y1="472.5882" x2="-413.2864" y2="486.7304" gradientTransform="matrix(1 0 0 -1 564 736)">
						<stop  offset="0" style="stop-color:#4D27A8"/>
						<stop  offset="1" style="stop-color:#A166FF"/>
					</linearGradient>
					<path style="fill:url(#SVGID_00000000931522566067780240000000872105732121769406_);" d="M148.6,251.3h-10v10h10V251.3z"/>
					<path class="st22" d="M142.3,257.1c0.2,0.1,0.3,0.1,0.5,0.1c0.1,0,0.2,0,0.3-0.1c0,0,0.1-0.1,0.1-0.1s0-0.1,0-0.1
						c0-0.1,0-0.1,0-0.2c0,0,0-0.1-0.1-0.1c-0.1-0.1-0.2-0.1-0.3-0.1c-0.1,0-0.3,0-0.4,0v-0.2l0.1-0.8h1v0.2h-0.8l0,0.6
						c0.1,0,0.2,0,0.3,0c0.2,0,0.3,0,0.5,0.2c0.1,0.1,0.1,0.1,0.1,0.2c0,0.1,0,0.2,0,0.2c0,0.1,0,0.2,0,0.2c0,0.1-0.1,0.1-0.1,0.2
						c-0.1,0.1-0.3,0.2-0.5,0.2c-0.2,0-0.4,0-0.5-0.1L142.3,257.1z"/>
					<path class="st22" d="M144.5,256.3L144.5,256.3L144.5,256.3c0.2,0,0.4,0,0.5,0.1c0.1,0.1,0.1,0.1,0.1,0.2c0,0.1,0,0.1,0,0.2
						c0,0.1,0,0.2,0,0.2s-0.1,0.1-0.1,0.2c-0.1,0.1-0.3,0.2-0.5,0.2c-0.2,0-0.3,0-0.5-0.1v-0.2c0.2,0.1,0.3,0.1,0.5,0.1
						c0.1,0,0.2,0,0.3-0.1c0,0,0.1-0.1,0.1-0.1c0,0,0-0.1,0-0.1c0-0.2-0.1-0.3-0.4-0.3c-0.1,0-0.2,0-0.3,0v-0.2l0.6-0.6h-0.8v-0.2
						h1.1v0.2L144.5,256.3z"/>
					<path class="st22" d="M143.6,258.9C143.6,258.9,143.6,258.9,143.6,258.9c-0.5-0.3-1-0.5-1.5-0.6c-0.3-0.1-1.2-0.3-1.2-0.9
						c0-0.3,0.1-0.5,0.3-0.8c0.2-0.3,0.3-0.7,0.4-1.1c0-0.4-0.1-0.7-0.3-1.1c0,0,0-0.1,0-0.1s0-0.1,0-0.1l0.2-0.3c0,0,0,0,0.1,0
						s0.1,0,0.1,0c0.3,0.2,0.6,0.2,0.9,0.2c0.4,0,0.7-0.1,1-0.3c0,0,0,0,0.1,0s0.1,0,0.1,0c0.3,0.2,0.6,0.3,1,0.3
						c0.3,0,0.6-0.1,0.9-0.2c0,0,0.1,0,0.1,0c0,0,0.1,0,0.1,0l0.2,0.3c0,0,0,0,0,0.1c0,0,0,0.1,0,0.1c-0.2,0.3-0.3,0.7-0.3,1.1
						c0,0.5,0.2,0.8,0.4,1.1c0.1,0.3,0.3,0.5,0.3,0.8c0,0.7-0.9,0.9-1.2,0.9C144.6,258.4,144.1,258.6,143.6,258.9
						C143.7,258.9,143.7,258.9,143.6,258.9z M141.6,254.4c0.2,0.3,0.3,0.7,0.3,1.1c0,0.5-0.2,0.9-0.4,1.2c-0.1,0.2-0.2,0.4-0.2,0.6
						c0,0.5,0.8,0.6,1,0.7c0.5,0.1,1,0.3,1.4,0.5c0.4-0.3,0.9-0.4,1.4-0.5c0.2,0,1-0.2,1-0.7c0-0.2-0.1-0.4-0.2-0.6
						c-0.2-0.3-0.4-0.7-0.4-1.2c0-0.4,0.1-0.8,0.3-1.1l-0.1-0.1c-0.3,0.1-0.6,0.2-0.9,0.2c-0.4,0-0.7-0.1-1.1-0.3
						c-0.3,0.2-0.7,0.3-1.1,0.3c-0.3,0-0.6-0.1-0.9-0.2L141.6,254.4z"/>
					<path class="st22" d="M143.6,259.7C143.6,259.7,143.6,259.7,143.6,259.7c-0.5-0.4-1-0.6-1.6-0.7c-1.1-0.2-1.8-0.8-1.8-1.6
						c0-0.4,0.1-0.8,0.4-1.1c0.1-0.2,0.3-0.5,0.3-0.8c0-0.2-0.1-0.4-0.1-0.6c-0.1-0.2-0.2-0.3-0.3-0.5c0,0,0,0,0,0c0,0,0,0,0-0.1
						c0,0,0,0,0-0.1s0,0,0,0c0,0,0.8-0.9,1-1.2c0,0,0,0,0,0s0,0,0.1,0c0,0,0,0,0.1,0c0,0,0,0,0,0c0.1,0.1,0.3,0.3,0.4,0.3
						c0.2,0.1,0.4,0.1,0.5,0.1c0.4,0,0.7-0.2,1-0.5c0,0,0,0,0,0c0,0,0,0,0.1,0s0,0,0.1,0c0,0,0,0,0,0c0.3,0.4,0.6,0.5,1,0.5
						c0.2,0,0.4-0.1,0.5-0.1c0.2-0.1,0.3-0.2,0.4-0.3c0,0,0,0,0,0c0,0,0,0,0.1,0c0,0,0,0,0.1,0c0,0,0,0,0,0c0.2,0.2,1,1.2,1,1.2
						c0,0,0,0,0,0s0,0,0,0.1c0,0,0,0.1-0.1,0.1c-0.1,0.1-0.3,0.3-0.3,0.5c-0.1,0.2-0.1,0.4-0.1,0.6c0,0.3,0.1,0.5,0.3,0.8
						c0.2,0.3,0.3,0.7,0.4,1.1c0,0.8-0.7,1.4-1.8,1.6C144.7,259.1,144.2,259.3,143.6,259.7C143.7,259.7,143.7,259.7,143.6,259.7z
						 M140.7,254.4c0.3,0.3,0.5,0.7,0.5,1.1c0,0.4-0.2,0.6-0.3,0.9c-0.2,0.3-0.3,0.5-0.3,1c0,1,1.2,1.3,1.5,1.3
						c0.6,0.1,1.1,0.3,1.5,0.7c0.5-0.3,1-0.5,1.5-0.7c0.4-0.1,1.5-0.3,1.5-1.3c0-0.4-0.2-0.7-0.3-1c-0.2-0.3-0.3-0.5-0.3-0.9
						c0-0.4,0.2-0.8,0.5-1.1c-0.2-0.2-0.6-0.7-0.8-1c-0.3,0.3-0.7,0.4-1.1,0.5c-0.2,0-0.4,0-0.6-0.1s-0.3-0.2-0.5-0.4
						c-0.1,0.2-0.3,0.3-0.5,0.4c-0.2,0.1-0.4,0.1-0.6,0.1c-0.4,0-0.8-0.2-1.1-0.5C141.3,253.7,140.9,254.2,140.7,254.4z"/>
				</g>
			</g>
			<g>
				<path class="st31" d="M172.5,202.2V200h0.5v2.2H172.5z"/>
				<path class="st31" d="M174.2,200.9c0.2,0,0.3,0.1,0.5,0.2c0.1,0.1,0.1,0.1,0.1,0.2c0,0.1,0,0.2,0,0.2c0,0.1,0,0.3-0.1,0.4
					c-0.1,0.1-0.2,0.2-0.3,0.2c-0.1,0.1-0.3,0.1-0.5,0.1c-0.2,0-0.4,0-0.6-0.1v-0.3c0.2,0.1,0.4,0.1,0.6,0.1c0.1,0,0.2,0,0.3-0.1
					c0,0,0.1-0.1,0.1-0.1c0,0,0-0.1,0-0.1c0,0,0-0.1,0-0.1c0,0,0-0.1-0.1-0.1c-0.1-0.1-0.2-0.1-0.3-0.1h-0.1l-0.2,0V201l0.6-0.6
					h-0.9V200h1.4v0.4L174.2,200.9z"/>
				<path class="st31" d="M177.7,205.2h-8v-8h8V205.2z M170,204.8h7.2v-7.2H170V204.8z"/>
				<path class="st31" d="M171.2,196.2h-0.4v1.2h0.4V196.2z"/>
				<path class="st31" d="M172.5,196.2h-0.4v1.2h0.4V196.2z"/>
				<path class="st31" d="M173.8,196.2h-0.4v1.2h0.4V196.2z"/>
				<path class="st31" d="M175.1,196.2h-0.4v1.2h0.4V196.2z"/>
				<path class="st31" d="M176.4,196.2H176v1.2h0.4V196.2z"/>
				<path class="st31" d="M171.2,205h-0.4v1.2h0.4V205z"/>
				<path class="st31" d="M172.5,205h-0.4v1.2h0.4V205z"/>
				<path class="st31" d="M173.8,205h-0.4v1.2h0.4V205z"/>
				<path class="st31" d="M175.1,205h-0.4v1.2h0.4V205z"/>
				<path class="st31" d="M176.4,205H176v1.2h0.4V205z"/>
				<path class="st31" d="M178.6,198.3h-1.2v0.4h1.2V198.3z"/>
				<path class="st31" d="M178.6,199.6h-1.2v0.4h1.2V199.6z"/>
				<path class="st31" d="M178.6,201h-1.2v0.4h1.2V201z"/>
				<path class="st31" d="M178.6,202.3h-1.2v0.4h1.2V202.3z"/>
				<path class="st31" d="M178.6,203.6h-1.2v0.4h1.2V203.6z"/>
				<path class="st31" d="M169.8,198.3h-1.2v0.4h1.2V198.3z"/>
				<path class="st31" d="M169.8,199.6h-1.2v0.4h1.2V199.6z"/>
				<path class="st31" d="M169.8,201h-1.2v0.4h1.2V201z"/>
				<path class="st31" d="M169.8,202.3h-1.2v0.4h1.2V202.3z"/>
				<path class="st31" d="M169.8,203.6h-1.2v0.4h1.2V203.6z"/>
			</g>
			<g>
				<defs>
					<rect id="SVGID_00000080198568714784505350000006399771070482239379_" x="198.7" y="196.2" width="10" height="10"/>
				</defs>
				<clipPath id="SVGID_00000094601981918661118010000017270838854715744386_">
					<use xlink:href="#SVGID_00000080198568714784505350000006399771070482239379_"  style="overflow:visible;"/>
				</clipPath>
				<g style="clip-path:url(#SVGID_00000094601981918661118010000017270838854715744386_);">
					
						<linearGradient id="SVGID_00000086692436526782799560000000882507973846374552_" gradientUnits="userSpaceOnUse" x1="-367.3221" y1="527.7687" x2="-353.1807" y2="541.9101" gradientTransform="matrix(1 0 0 -1 564 736)">
						<stop  offset="0" style="stop-color:#1B660F"/>
						<stop  offset="1" style="stop-color:#6CAE3E"/>
					</linearGradient>
					<path style="fill:url(#SVGID_00000086692436526782799560000000882507973846374552_);" d="M208.7,196.2h-10v10h10V196.2z"/>
					<path class="st22" d="M206.9,201.5c0-0.2-0.3-0.4-0.4-0.5c-0.1,0-0.2-0.1-0.2-0.1c0,0,0-0.1,0-0.1l0.1-1c0-0.3,0.1-0.6,0.1-0.8
						c0-0.3-0.1-0.4-0.3-0.6c-0.4-0.3-1-0.4-1.5-0.5c-0.6-0.1-1.3-0.1-1.9-0.1c-0.6,0-1.1,0.2-1.7,0.4c-0.3,0.1-0.7,0.3-0.6,0.7
						c0.1,1.1,0.3,2.2,0.4,3.2c0.1,0.5,0.1,1,0.2,1.5c0,0.1,0,0.2,0.1,0.3c0.1,0.1,0.1,0.1,0.2,0.2c0.4,0.2,0.9,0.3,1.4,0.3
						c0.6,0.1,1.2,0,1.8-0.1c0.4-0.1,1.1-0.2,1.2-0.7c0.1-0.6,0.2-1.2,0.2-1.8l0-0.2C206.4,201.8,207,201.9,206.9,201.5z
						 M203.6,198.1c0.8,0,1.7,0.1,2.4,0.5c0.1,0.1,0.4,0.2,0.3,0.4c-0.1,0.2-0.3,0.2-0.5,0.3c-0.2,0.1-0.4,0.1-0.6,0.2
						c-1,0.2-1.9,0.2-2.9,0.1c-0.4,0-0.9-0.2-1.2-0.4c-0.1-0.1-0.3-0.2-0.2-0.3c0-0.1,0.1-0.1,0.2-0.2c0.3-0.2,0.6-0.3,1-0.4
						C202.5,198.2,203,198.1,203.6,198.1z M205.6,203.7c0,0.2-0.3,0.2-0.4,0.3c-0.3,0.1-0.5,0.1-0.8,0.2c-0.6,0.1-1.2,0.1-1.8,0
						c-0.4,0-0.7-0.1-1.1-0.3c0,0-0.1-0.1-0.1-0.1s0-0.1,0-0.1c-0.1-1.1-0.3-2.1-0.4-3.2l-0.2-1.1c0.3,0.2,0.6,0.3,1,0.3
						c0.4,0.1,0.7,0.1,1.1,0.1c0.7,0.1,1.5,0,2.2-0.1c0.4-0.1,0.8-0.2,1.1-0.4l-0.3,2.1c-0.7-0.2-1.3-0.5-2-0.8c0,0-0.1,0-0.1,0
						c0,0,0,0,0-0.1c0-0.1,0-0.1-0.1-0.2c0,0-0.1-0.1-0.1-0.1c0,0-0.1,0-0.1,0c0,0-0.1,0-0.1,0.1c0,0-0.1,0.1-0.1,0.1
						c0,0,0,0.1,0,0.1s0,0.1,0.1,0.1c0,0,0.1,0.1,0.1,0.1c0,0,0.1,0,0.1,0c0,0,0.1,0,0.1,0c0.1,0,0.1,0,0.1,0c0.6,0.3,1.3,0.6,2,0.8
						c0.1,0,0.1,0,0.1,0.1c0,0.1,0,0.1,0,0.2l-0.1,0.6L205.6,203.7z M203.6,200.6C203.6,200.6,203.5,200.6,203.6,200.6
						C203.5,200.5,203.6,200.5,203.6,200.6z M206.2,201.5l0-0.3c0.1,0.1,0.4,0.2,0.4,0.3C206.5,201.6,206.3,201.5,206.2,201.5z"/>
				</g>
			</g>
		</g>
	</g>
</g>
<g>
	<path class="st53" d="M209.6,392.5c-0.2,0-0.3,0-0.5-0.1l-1.5-0.9c-0.2-0.1-0.1-0.2,0-0.2c0.3-0.1,0.4-0.1,0.7-0.3c0,0,0.1,0,0.1,0
		l1.2,0.7c0,0,0.1,0,0.1,0l4.5-2.6c0,0,0.1-0.1,0.1-0.1v-5.2c0-0.1,0-0.1-0.1-0.1l-4.5-2.6c0,0-0.1,0-0.1,0l-4.5,2.6
		c0,0-0.1,0.1-0.1,0.1v5.2c0,0,0,0.1,0.1,0.1l1.2,0.7c0.7,0.3,1.1-0.1,1.1-0.5v-5.1c0-0.1,0.1-0.1,0.1-0.1h0.6
		c0.1,0,0.1,0.1,0.1,0.1v5.1c0,0.9-0.5,1.4-1.3,1.4c-0.3,0-0.5,0-1-0.3l-1.2-0.7c-0.3-0.2-0.5-0.5-0.5-0.8v-5.2
		c0-0.3,0.2-0.7,0.5-0.8l4.5-2.6c0.3-0.2,0.7-0.2,0.9,0l4.5,2.6c0.3,0.2,0.5,0.5,0.5,0.8v5.2c0,0.3-0.2,0.7-0.5,0.8l-4.5,2.6
		C209.9,392.4,209.7,392.5,209.6,392.5"/>
	<path class="st53" d="M211,388.9c-2,0-2.4-0.9-2.4-1.7c0-0.1,0.1-0.1,0.1-0.1h0.6c0.1,0,0.1,0,0.1,0.1c0.1,0.6,0.4,0.9,1.5,0.9
		c1,0,1.4-0.2,1.4-0.7c0-0.3-0.1-0.5-1.6-0.7c-1.2-0.1-2-0.4-2-1.4c0-0.9,0.8-1.5,2.1-1.5c1.4,0,2.2,0.5,2.3,1.6c0,0,0,0.1,0,0.1
		c0,0-0.1,0-0.1,0h-0.6c-0.1,0-0.1,0-0.1-0.1c-0.1-0.6-0.5-0.8-1.4-0.8c-1,0-1.2,0.4-1.2,0.6c0,0.3,0.1,0.4,1.5,0.6
		c1.4,0.2,2,0.4,2,1.4C213.2,388.3,212.4,388.9,211,388.9 M216.5,383.4h0.2c0.1,0,0.1-0.1,0.1-0.1c0-0.1-0.1-0.1-0.1-0.1h-0.2
		L216.5,383.4z M216.3,382.9h0.3c0.1,0,0.3,0,0.3,0.3c0,0.2-0.1,0.2-0.2,0.2c0.1,0,0.1,0.1,0.2,0.2c0,0.1,0,0.2,0.1,0.3h-0.2
		c0,0,0-0.3,0-0.3c0-0.1,0-0.1-0.1-0.1h-0.2v0.4h-0.2V382.9z M215.9,383.4c0,0.4,0.3,0.7,0.7,0.7c0.4,0,0.7-0.3,0.7-0.7
		c0-0.4-0.3-0.7-0.7-0.7C216.2,382.7,215.9,383,215.9,383.4 M217.5,383.4c0,0.5-0.4,0.9-0.9,0.9c-0.5,0-0.9-0.4-0.9-0.9
		c0-0.5,0.4-0.9,0.9-0.9C217.1,382.6,217.5,382.9,217.5,383.4"/>
	<path class="st54" d="M195.6,372.1c0-0.2-0.1-0.4-0.3-0.5l-4.8-2.8c-0.1,0-0.2-0.1-0.3-0.1h0c-0.1,0-0.2,0-0.3,0.1l-4.8,2.8
		c-0.2,0.1-0.3,0.3-0.3,0.5l0,7.4c0,0.1,0.1,0.2,0.1,0.2c0.1,0.1,0.2,0.1,0.3,0l2.8-1.6c0.2-0.1,0.3-0.3,0.3-0.5v-3.5
		c0-0.2,0.1-0.4,0.3-0.5l1.2-0.7c0.1-0.1,0.2-0.1,0.3-0.1c0.1,0,0.2,0,0.3,0.1l1.2,0.7c0.2,0.1,0.3,0.3,0.3,0.5v3.5
		c0,0.2,0.1,0.4,0.3,0.5l2.8,1.6c0.1,0.1,0.2,0.1,0.3,0c0.1-0.1,0.1-0.1,0.1-0.2L195.6,372.1z M218.2,375.9c0,0.1,0,0.1-0.1,0.1
		l-1.6,0.9c0,0-0.1,0-0.1,0l-1.6-0.9c0,0-0.1-0.1-0.1-0.1v-1.9c0-0.1,0-0.1,0.1-0.1l1.6-0.9c0,0,0.1,0,0.1,0l1.6,0.9
		c0,0,0.1,0.1,0.1,0.1L218.2,375.9z M218.6,361.9c-0.1,0-0.2,0-0.3,0c-0.1,0.1-0.1,0.1-0.1,0.2v7.3c0,0.1,0,0.1-0.1,0.2
		c-0.1,0-0.1,0-0.2,0l-1.2-0.7c-0.2-0.1-0.4-0.1-0.6,0l-4.8,2.8c-0.2,0.1-0.3,0.3-0.3,0.5v5.5c0,0.2,0.1,0.4,0.3,0.5l4.8,2.8
		c0.2,0.1,0.4,0.1,0.6,0l4.8-2.8c0.2-0.1,0.3-0.3,0.3-0.5V364c0-0.2-0.1-0.4-0.3-0.5L218.6,361.9z M234.6,374
		c0.2-0.1,0.3-0.3,0.3-0.5v-1.3c0-0.2-0.1-0.4-0.3-0.5l-4.8-2.8c-0.2-0.1-0.4-0.1-0.6,0l-4.8,2.8c-0.2,0.1-0.3,0.3-0.3,0.5v5.5
		c0,0.2,0.1,0.4,0.3,0.5l4.8,2.7c0.2,0.1,0.4,0.1,0.6,0l2.9-1.6c0.1-0.1,0.1-0.1,0.1-0.3c0-0.1-0.1-0.2-0.1-0.3l-4.8-2.8
		c-0.1-0.1-0.1-0.1-0.1-0.2v-1.7c0-0.1,0.1-0.2,0.1-0.3l1.5-0.9c0.1-0.1,0.2-0.1,0.3,0l1.5,0.9c0.1,0.1,0.1,0.1,0.1,0.2v1.4
		c0,0.1,0.1,0.2,0.1,0.3c0.1,0.1,0.2,0.1,0.3,0L234.6,374z"/>
	<path class="st55" d="M229.5,373.7c0,0,0.1,0,0.1,0l0.9,0.5c0,0,0.1,0.1,0.1,0.1v1.1c0,0,0,0.1-0.1,0.1l-0.9,0.5c0,0-0.1,0-0.1,0
		l-0.9-0.5c0,0-0.1-0.1-0.1-0.1v-1.1c0,0,0-0.1,0.1-0.1L229.5,373.7z"/>
	<g>
		<defs>
			<path id="SVGID_00000039135040616347161790000000419573314597310092_" d="M203,368.9l-4.8,2.7c-0.2,0.1-0.3,0.3-0.3,0.5v5.5
				c0,0.2,0.1,0.4,0.3,0.5l4.8,2.8c0.2,0.1,0.4,0.1,0.6,0l4.8-2.8c0.2-0.1,0.3-0.3,0.3-0.5v-5.5c0-0.2-0.1-0.4-0.3-0.5l-4.8-2.7
				c-0.1-0.1-0.2-0.1-0.3-0.1C203.2,368.8,203.1,368.9,203,368.9"/>
		</defs>
		<clipPath id="SVGID_00000065064456226819978810000014133187204684690341_">
			<use xlink:href="#SVGID_00000039135040616347161790000000419573314597310092_"  style="overflow:visible;"/>
		</clipPath>
		<g transform="translate(-78.306 -164.016)" style="clip-path:url(#SVGID_00000065064456226819978810000014133187204684690341_);">
			
				<linearGradient id="SVGID_00000137097947154117774600000002050429679819278770_" gradientUnits="userSpaceOnUse" x1="-1286.965" y1="967.4756" x2="-1286.8295" y2="967.4756" gradientTransform="matrix(-50.7531 103.536 103.536 50.7531 -165200.9844 84676.7109)">
				<stop  offset="0.3" style="stop-color:#3E863D"/>
				<stop  offset="0.5" style="stop-color:#55934F"/>
				<stop  offset="0.8" style="stop-color:#5AAD45"/>
			</linearGradient>
			<path style="fill:url(#SVGID_00000137097947154117774600000002050429679819278770_);" d="M291.8,535.2l-13.4-6.6l-6.9,14
				l13.4,6.6L291.8,535.2z"/>
		</g>
	</g>
	<g>
		<defs>
			<path id="SVGID_00000174581982765837656850000009445415658639830200_" d="M198.1,378c0,0.1,0.1,0.1,0.2,0.1l4.1,2.4l0.7,0.4
				c0.1,0.1,0.2,0.1,0.3,0.1c0,0,0.1,0,0.1,0l5-9.2c0,0-0.1-0.1-0.1-0.1l-3.1-1.8l-1.6-0.9c0,0-0.1,0-0.1-0.1L198.1,378z"/>
		</defs>
		<clipPath id="SVGID_00000152249210706893627370000002027693809157066664_">
			<use xlink:href="#SVGID_00000174581982765837656850000009445415658639830200_"  style="overflow:visible;"/>
		</clipPath>
		<g transform="translate(-78.306 -164.016)" style="clip-path:url(#SVGID_00000152249210706893627370000002027693809157066664_);">
			
				<linearGradient id="SVGID_00000143598907656653279340000014439476974469457066_" gradientUnits="userSpaceOnUse" x1="-1281.722" y1="948.1757" x2="-1281.634" y2="948.1757" gradientTransform="matrix(142.4074 -105.2221 -105.2221 -142.4074 282571.0312 705.2682)">
				<stop  offset="0.57" style="stop-color:#3E863D"/>
				<stop  offset="0.72" style="stop-color:#619857"/>
				<stop  offset="1" style="stop-color:#76AC64"/>
			</linearGradient>
			<path style="fill:url(#SVGID_00000143598907656653279340000014439476974469457066_);" d="M270.6,537.2l9.5,12.8l12.5-9.3
				l-9.5-12.8L270.6,537.2z"/>
		</g>
	</g>
	<g>
		<defs>
			<path id="SVGID_00000078751581930106285490000009594136681500109741_" d="M203.3,368.9c-0.1,0-0.2,0-0.2,0.1l-4.7,2.7l5.1,9.3
				c0.1,0,0.1,0,0.2-0.1l4.8-2.8c0.1-0.1,0.2-0.2,0.3-0.4l-5.2-8.9C203.4,368.9,203.3,368.9,203.3,368.9
				C203.3,368.9,203.3,368.9,203.3,368.9"/>
		</defs>
		<clipPath id="SVGID_00000022520921996640218170000017858091446868521349_">
			<use xlink:href="#SVGID_00000078751581930106285490000009594136681500109741_"  style="overflow:visible;"/>
		</clipPath>
		<g transform="translate(-78.306 -164.016)" style="clip-path:url(#SVGID_00000022520921996640218170000017858091446868521349_);">
			
				<linearGradient id="SVGID_00000000941616409400489030000018342050623718410887_" gradientUnits="userSpaceOnUse" x1="-1275.3085" y1="951.0916" x2="-1275.2288" y2="951.0916" gradientTransform="matrix(129.8891 0 0 -129.8891 165925.2656 124075.3672)">
				<stop  offset="0.16" style="stop-color:#6BBF47"/>
				<stop  offset="0.38" style="stop-color:#79B461"/>
				<stop  offset="0.47" style="stop-color:#75AC64"/>
				<stop  offset="0.7" style="stop-color:#659E5A"/>
				<stop  offset="0.9" style="stop-color:#3E863D"/>
			</linearGradient>
			<path style="fill:url(#SVGID_00000000941616409400489030000018342050623718410887_);" d="M276.6,532.9V545h10.4v-12.1H276.6z"/>
		</g>
	</g>
</g>
</svg>
