<?xml version="1.0" encoding="UTF-8"?>
<svg id="a" xmlns="http://www.w3.org/2000/svg" viewBox="0 0 63 56">
    <path d="M12.6,40.7c.8,0,1.5-.7,1.5-1.5s-.7-1.5-1.5-1.5-1.5.7-1.5,1.5.7,1.5,1.5,1.5Z" style="stroke-width:0px;"/>
    <path d="M31.5,48.6c-.9,0-1.5.7-1.5,1.5s.7,1.5,1.5,1.5,1.5-.7,1.5-1.5-.7-1.5-1.5-1.5Z" style="stroke-width:0px;"/>
    <path d="M31.5,7.7c.9,0,1.5-.7,1.5-1.5s-.7-1.6-1.5-1.6-1.5.7-1.5,1.5.6,1.6,1.5,1.6Z" style="stroke-width:0px;"/>
    <path d="M50.4,18.6c.9,0,1.5-.7,1.5-1.5s-.7-1.5-1.5-1.5-1.5.7-1.5,1.5.6,1.5,1.5,1.5Z" style="stroke-width:0px;"/>
    <path d="M12.6,18.6c.9,0,1.5-.7,1.5-1.5s-.6-1.6-1.5-1.6-1.5.7-1.5,1.5.6,1.6,1.5,1.6Z" style="stroke-width:0px;"/>
    <path d="M50.4,40.7c.8,0,1.5-.7,1.5-1.5s-.7-1.5-1.5-1.5-1.5.7-1.5,1.5.7,1.5,1.5,1.5Z" style="stroke-width:0px;"/>
    <path d="M31.5,26.6c-.9,0-1.5.7-1.5,1.5s.7,1.5,1.5,1.5,1.5-.7,1.5-1.5-.7-1.5-1.5-1.5Z" style="stroke-width:0px;"/>
    <path
        d="M61.9,27.1h-20.1c0-1.1-.4-2.2-.8-3.2l6.2-3.6.9-.5-1.1-1.8-.9.5-6.1,3.6c-.7-1-1.6-1.9-2.7-2.6l.2-.3L47.6,2l.5-.9-1.8-1.1-.5.9-10.1,17.2-.2.3c-1-.4-2-.6-3.1-.8v-7.9h-2.1v7.9c-1.1,0-2.2.4-3.1.8l-.3-.3L17.1.9l-.5-.9-1.8,1.1.5.9,10,17.2.2.3c-1,.7-1.9,1.6-2.6,2.6l-6.1-3.6-.9-.5-1.1,1.8.9.5,6.2,3.6c-.5,1-.7,2.1-.8,3.2H0v2.1h21.1c0,1.1.4,2.2.8,3.2l-6.2,3.6-.9.5,1.1,1.8.9-.5,6.1-3.6c.6.9,1.4,1.6,2.2,2.3l-.3.4-9.9,17.4-.5.9,1.8,1.1.5-.9,10-17.2.2-.4c1.1.5,2.3.9,3.6,1v7.9h2.1v-7.9c1.4,0,2.5-.5,3.7-1.1l.2.3,10.1,17.3.5.9,1.8-1.1-.5-.9-10-17.2-.2-.4c.8-.6,1.5-1.4,2.1-2.2l6.1,3.6.9.5,1.1-1.8-.9-.5-6.2-3.6c.5-1,.7-2.1.8-3.2h21.1v-2.2h-1.1ZM31.5,36.4c-4.6,0-8.3-3.7-8.3-8.3s3.7-8.3,8.3-8.3,8.3,3.7,8.3,8.3-3.8,8.3-8.3,8.3Z"
        style="stroke-width:0px;"/>
</svg>